M48
;GenerationSoftware,Autodesk,EAGLE,9.6.1*%
;CreationDate,2020-05-04T07:47:57Z*%
FMAT,2
ICI,OFF
INCH,TZ,00.00000
T9C0.01181
T8C0.01378
T7C0.01575
T6C0.01969
T5C0.03200
T4C0.03346
T3C0.03600
T2C0.03937
T1C0.04000
%
G90
M72
T1
X69079Y180500
X23000Y96000
X35921Y180500
X26079Y180500
X78921Y180500
X23000Y126000
X23000Y116000
X23000Y106000
T2
X72898Y19606
X54000Y8000
X54000Y32000
T3
X85000Y17000
X85000Y7000
X95000Y7000
X95000Y17000
T4
X7000Y136000
X7000Y146000
X7000Y166000
X7000Y96000
X7000Y86000
X7000Y76000
X7000Y66000
X7000Y56000
X7000Y46000
X97000Y106000
X97000Y96000
X97000Y86000
X97000Y76000
X97000Y66000
X97000Y56000
X97000Y116000
X97000Y126000
X97000Y136000
X97000Y156000
X97000Y166000
X97000Y146000
X7000Y156000
X7000Y106000
X7000Y116000
X7000Y126000
X97000Y46000
T5
X12000Y19000
X26000Y19000
T6
X75000Y77000
T7
X48000Y147000
X44000Y145000
X19000Y145000
X46000Y139000
X39000Y136000
X21000Y153000
X40000Y94000
X32000Y100000
X31000Y159000
X36000Y46000
X44000Y64000
X48000Y64000
X44000Y60000
X48000Y60000
X44000Y56000
X38000Y54000
X90000Y89000
X45000Y94000
X68000Y93000
X88000Y58000
X92000Y81000
X99000Y37000
X100000Y12000
X77000Y7000
X80000Y12000
X66000Y8000
X54000Y16000
X42000Y8000
X31000Y58000
X14000Y55000
X7000Y39000
X7000Y26000
X18000Y12000
X6000Y6000
X34000Y27000
X42000Y34000
X74000Y33000
X67000Y33000
X88000Y76000
X48000Y56000
X28000Y82000
X39000Y58000
X39000Y66000
X31000Y66000
X31000Y62000
X39000Y62000
X33000Y33000
X99000Y24000
X81000Y59000
X88000Y48000
X65000Y125000
X65000Y120000
X64000Y130000
X62000Y145000
T8
X47000Y107000
X64000Y115000
X35000Y151782
X27000Y151782
X39000Y46000
T9
X92000Y43000
X31000Y130000
X29000Y122000
X37000Y125000
X71000Y131000
X83000Y158000
X75000Y152000
X89000Y155000
X70000Y152000
X92000Y161000
X86000Y161000
X56000Y106000
X51000Y107000
X55000Y132000
X50000Y132000
X46000Y132000
M30