G04 EAGLE Gerber RS-274X export*
G75*
%MOMM*%
%FSLAX34Y34*%
%LPD*%
%INSilkscreen Bottom*%
%IPPOS*%
%AMOC8*
5,1,8,0,0,1.08239X$1,22.5*%
G01*
%ADD10C,0.076200*%
%ADD11C,0.203200*%
%ADD12C,0.152400*%
%ADD13C,0.050800*%
%ADD14C,0.101600*%


D10*
X224550Y140335D02*
X228727Y140335D01*
X228727Y149733D01*
X224550Y149733D01*
X225594Y145556D02*
X228727Y145556D01*
X218297Y140335D02*
X218208Y140337D01*
X218120Y140343D01*
X218032Y140352D01*
X217944Y140365D01*
X217857Y140382D01*
X217771Y140402D01*
X217686Y140427D01*
X217601Y140454D01*
X217518Y140486D01*
X217437Y140520D01*
X217357Y140559D01*
X217279Y140600D01*
X217202Y140645D01*
X217128Y140693D01*
X217055Y140744D01*
X216985Y140798D01*
X216918Y140856D01*
X216852Y140916D01*
X216790Y140978D01*
X216730Y141044D01*
X216672Y141111D01*
X216618Y141181D01*
X216567Y141254D01*
X216519Y141328D01*
X216474Y141405D01*
X216433Y141483D01*
X216394Y141563D01*
X216360Y141644D01*
X216328Y141727D01*
X216301Y141812D01*
X216276Y141897D01*
X216256Y141983D01*
X216239Y142070D01*
X216226Y142158D01*
X216217Y142246D01*
X216211Y142334D01*
X216209Y142423D01*
X218297Y140335D02*
X218426Y140337D01*
X218555Y140343D01*
X218684Y140352D01*
X218812Y140365D01*
X218940Y140382D01*
X219067Y140403D01*
X219194Y140427D01*
X219320Y140455D01*
X219445Y140487D01*
X219569Y140522D01*
X219692Y140561D01*
X219814Y140604D01*
X219934Y140650D01*
X220053Y140700D01*
X220171Y140753D01*
X220287Y140809D01*
X220401Y140869D01*
X220514Y140932D01*
X220624Y140999D01*
X220733Y141068D01*
X220839Y141141D01*
X220944Y141217D01*
X221046Y141296D01*
X221146Y141378D01*
X221243Y141462D01*
X221338Y141550D01*
X221430Y141640D01*
X221168Y147645D02*
X221166Y147734D01*
X221160Y147822D01*
X221151Y147910D01*
X221138Y147998D01*
X221121Y148085D01*
X221101Y148171D01*
X221076Y148256D01*
X221049Y148341D01*
X221017Y148424D01*
X220983Y148505D01*
X220944Y148585D01*
X220903Y148663D01*
X220858Y148740D01*
X220810Y148814D01*
X220759Y148887D01*
X220705Y148957D01*
X220647Y149024D01*
X220587Y149090D01*
X220525Y149152D01*
X220459Y149212D01*
X220392Y149270D01*
X220322Y149324D01*
X220249Y149375D01*
X220175Y149423D01*
X220098Y149468D01*
X220020Y149509D01*
X219940Y149548D01*
X219859Y149582D01*
X219776Y149614D01*
X219691Y149641D01*
X219606Y149666D01*
X219520Y149686D01*
X219433Y149703D01*
X219345Y149716D01*
X219257Y149725D01*
X219169Y149731D01*
X219080Y149733D01*
X218960Y149731D01*
X218840Y149726D01*
X218721Y149716D01*
X218601Y149704D01*
X218482Y149687D01*
X218364Y149667D01*
X218246Y149643D01*
X218130Y149616D01*
X218014Y149585D01*
X217899Y149551D01*
X217785Y149513D01*
X217672Y149471D01*
X217561Y149426D01*
X217451Y149378D01*
X217343Y149327D01*
X217236Y149272D01*
X217131Y149214D01*
X217028Y149152D01*
X216927Y149088D01*
X216827Y149020D01*
X216730Y148950D01*
X220124Y145818D02*
X220202Y145866D01*
X220278Y145918D01*
X220351Y145972D01*
X220422Y146030D01*
X220491Y146091D01*
X220557Y146155D01*
X220620Y146222D01*
X220680Y146291D01*
X220737Y146363D01*
X220791Y146437D01*
X220841Y146514D01*
X220889Y146593D01*
X220932Y146673D01*
X220973Y146756D01*
X221009Y146840D01*
X221042Y146925D01*
X221071Y147012D01*
X221097Y147101D01*
X221119Y147190D01*
X221136Y147280D01*
X221150Y147370D01*
X221160Y147462D01*
X221166Y147553D01*
X221168Y147645D01*
X217252Y144250D02*
X217174Y144202D01*
X217098Y144150D01*
X217025Y144096D01*
X216954Y144038D01*
X216885Y143977D01*
X216819Y143913D01*
X216756Y143846D01*
X216696Y143777D01*
X216639Y143705D01*
X216585Y143631D01*
X216535Y143554D01*
X216487Y143475D01*
X216444Y143395D01*
X216403Y143312D01*
X216367Y143228D01*
X216334Y143143D01*
X216305Y143056D01*
X216279Y142967D01*
X216257Y142878D01*
X216240Y142788D01*
X216226Y142698D01*
X216216Y142606D01*
X216210Y142515D01*
X216208Y142423D01*
X217252Y144251D02*
X220124Y145817D01*
X212154Y149733D02*
X212154Y140335D01*
X212154Y149733D02*
X209544Y149733D01*
X209443Y149731D01*
X209342Y149725D01*
X209241Y149715D01*
X209141Y149702D01*
X209041Y149684D01*
X208942Y149663D01*
X208844Y149637D01*
X208747Y149608D01*
X208651Y149576D01*
X208557Y149539D01*
X208464Y149499D01*
X208372Y149455D01*
X208283Y149408D01*
X208195Y149357D01*
X208109Y149303D01*
X208026Y149246D01*
X207944Y149186D01*
X207866Y149122D01*
X207789Y149056D01*
X207716Y148986D01*
X207645Y148914D01*
X207577Y148839D01*
X207512Y148761D01*
X207450Y148681D01*
X207391Y148599D01*
X207335Y148514D01*
X207283Y148428D01*
X207234Y148339D01*
X207188Y148248D01*
X207147Y148156D01*
X207108Y148062D01*
X207074Y147967D01*
X207043Y147871D01*
X207016Y147773D01*
X206992Y147675D01*
X206973Y147575D01*
X206957Y147475D01*
X206945Y147375D01*
X206937Y147274D01*
X206933Y147173D01*
X206933Y147071D01*
X206937Y146970D01*
X206945Y146869D01*
X206957Y146769D01*
X206973Y146669D01*
X206992Y146569D01*
X207016Y146471D01*
X207043Y146373D01*
X207074Y146277D01*
X207108Y146182D01*
X207147Y146088D01*
X207188Y145996D01*
X207234Y145905D01*
X207283Y145817D01*
X207335Y145730D01*
X207391Y145645D01*
X207450Y145563D01*
X207512Y145483D01*
X207577Y145405D01*
X207645Y145330D01*
X207716Y145258D01*
X207789Y145188D01*
X207866Y145122D01*
X207944Y145058D01*
X208026Y144998D01*
X208109Y144941D01*
X208195Y144887D01*
X208283Y144836D01*
X208372Y144789D01*
X208464Y144745D01*
X208557Y144705D01*
X208651Y144668D01*
X208747Y144636D01*
X208844Y144607D01*
X208942Y144581D01*
X209041Y144560D01*
X209141Y144542D01*
X209241Y144529D01*
X209342Y144519D01*
X209443Y144513D01*
X209544Y144511D01*
X209544Y144512D02*
X212154Y144512D01*
X203010Y145556D02*
X200400Y145556D01*
X200400Y145557D02*
X200299Y145555D01*
X200198Y145549D01*
X200097Y145539D01*
X199997Y145526D01*
X199897Y145508D01*
X199798Y145487D01*
X199700Y145461D01*
X199603Y145432D01*
X199507Y145400D01*
X199413Y145363D01*
X199320Y145323D01*
X199228Y145279D01*
X199139Y145232D01*
X199051Y145181D01*
X198965Y145127D01*
X198882Y145070D01*
X198800Y145010D01*
X198722Y144946D01*
X198645Y144880D01*
X198572Y144810D01*
X198501Y144738D01*
X198433Y144663D01*
X198368Y144585D01*
X198306Y144505D01*
X198247Y144423D01*
X198191Y144338D01*
X198139Y144252D01*
X198090Y144163D01*
X198044Y144072D01*
X198003Y143980D01*
X197964Y143886D01*
X197930Y143791D01*
X197899Y143695D01*
X197872Y143597D01*
X197848Y143499D01*
X197829Y143399D01*
X197813Y143299D01*
X197801Y143199D01*
X197793Y143098D01*
X197789Y142997D01*
X197789Y142895D01*
X197793Y142794D01*
X197801Y142693D01*
X197813Y142593D01*
X197829Y142493D01*
X197848Y142393D01*
X197872Y142295D01*
X197899Y142197D01*
X197930Y142101D01*
X197964Y142006D01*
X198003Y141912D01*
X198044Y141820D01*
X198090Y141729D01*
X198139Y141641D01*
X198191Y141554D01*
X198247Y141469D01*
X198306Y141387D01*
X198368Y141307D01*
X198433Y141229D01*
X198501Y141154D01*
X198572Y141082D01*
X198645Y141012D01*
X198722Y140946D01*
X198800Y140882D01*
X198882Y140822D01*
X198965Y140765D01*
X199051Y140711D01*
X199139Y140660D01*
X199228Y140613D01*
X199320Y140569D01*
X199413Y140529D01*
X199507Y140492D01*
X199603Y140460D01*
X199700Y140431D01*
X199798Y140405D01*
X199897Y140384D01*
X199997Y140366D01*
X200097Y140353D01*
X200198Y140343D01*
X200299Y140337D01*
X200400Y140335D01*
X203010Y140335D01*
X203010Y149733D01*
X200400Y149733D01*
X200310Y149731D01*
X200221Y149725D01*
X200131Y149716D01*
X200042Y149702D01*
X199954Y149685D01*
X199867Y149664D01*
X199780Y149639D01*
X199695Y149610D01*
X199611Y149578D01*
X199529Y149543D01*
X199448Y149503D01*
X199369Y149461D01*
X199292Y149415D01*
X199217Y149365D01*
X199144Y149313D01*
X199073Y149257D01*
X199005Y149199D01*
X198940Y149137D01*
X198877Y149073D01*
X198817Y149006D01*
X198760Y148937D01*
X198706Y148865D01*
X198655Y148791D01*
X198607Y148715D01*
X198563Y148637D01*
X198522Y148557D01*
X198484Y148475D01*
X198450Y148392D01*
X198420Y148307D01*
X198393Y148221D01*
X198370Y148135D01*
X198351Y148047D01*
X198336Y147958D01*
X198324Y147869D01*
X198316Y147780D01*
X198312Y147690D01*
X198312Y147600D01*
X198316Y147510D01*
X198324Y147421D01*
X198336Y147332D01*
X198351Y147243D01*
X198370Y147155D01*
X198393Y147069D01*
X198420Y146983D01*
X198450Y146898D01*
X198484Y146815D01*
X198522Y146733D01*
X198563Y146653D01*
X198607Y146575D01*
X198655Y146499D01*
X198706Y146425D01*
X198760Y146353D01*
X198817Y146284D01*
X198877Y146217D01*
X198940Y146153D01*
X199005Y146091D01*
X199073Y146033D01*
X199144Y145977D01*
X199217Y145925D01*
X199292Y145875D01*
X199369Y145829D01*
X199448Y145787D01*
X199529Y145747D01*
X199611Y145712D01*
X199695Y145680D01*
X199780Y145651D01*
X199867Y145626D01*
X199954Y145605D01*
X200042Y145588D01*
X200131Y145574D01*
X200221Y145565D01*
X200310Y145559D01*
X200400Y145557D01*
X194390Y144512D02*
X194390Y142423D01*
X194389Y144512D02*
X194387Y144602D01*
X194381Y144691D01*
X194372Y144781D01*
X194358Y144870D01*
X194341Y144958D01*
X194320Y145045D01*
X194295Y145132D01*
X194266Y145217D01*
X194234Y145301D01*
X194199Y145383D01*
X194159Y145464D01*
X194117Y145543D01*
X194071Y145620D01*
X194021Y145695D01*
X193969Y145768D01*
X193913Y145839D01*
X193855Y145907D01*
X193793Y145972D01*
X193729Y146035D01*
X193662Y146095D01*
X193593Y146152D01*
X193521Y146206D01*
X193447Y146257D01*
X193371Y146305D01*
X193293Y146349D01*
X193213Y146390D01*
X193131Y146428D01*
X193048Y146462D01*
X192963Y146492D01*
X192877Y146519D01*
X192791Y146542D01*
X192703Y146561D01*
X192614Y146576D01*
X192525Y146588D01*
X192436Y146596D01*
X192346Y146600D01*
X192256Y146600D01*
X192166Y146596D01*
X192077Y146588D01*
X191988Y146576D01*
X191899Y146561D01*
X191811Y146542D01*
X191725Y146519D01*
X191639Y146492D01*
X191554Y146462D01*
X191471Y146428D01*
X191389Y146390D01*
X191309Y146349D01*
X191231Y146305D01*
X191155Y146257D01*
X191081Y146206D01*
X191009Y146152D01*
X190940Y146095D01*
X190873Y146035D01*
X190809Y145972D01*
X190747Y145907D01*
X190689Y145839D01*
X190633Y145768D01*
X190581Y145695D01*
X190531Y145620D01*
X190485Y145543D01*
X190443Y145464D01*
X190403Y145383D01*
X190368Y145301D01*
X190336Y145217D01*
X190307Y145132D01*
X190282Y145045D01*
X190261Y144958D01*
X190244Y144870D01*
X190230Y144781D01*
X190221Y144691D01*
X190215Y144602D01*
X190213Y144512D01*
X190213Y142423D01*
X190215Y142333D01*
X190221Y142244D01*
X190230Y142154D01*
X190244Y142065D01*
X190261Y141977D01*
X190282Y141890D01*
X190307Y141803D01*
X190336Y141718D01*
X190368Y141634D01*
X190403Y141552D01*
X190443Y141471D01*
X190485Y141392D01*
X190531Y141315D01*
X190581Y141240D01*
X190633Y141167D01*
X190689Y141096D01*
X190747Y141028D01*
X190809Y140963D01*
X190873Y140900D01*
X190940Y140840D01*
X191009Y140783D01*
X191081Y140729D01*
X191155Y140678D01*
X191231Y140630D01*
X191309Y140586D01*
X191389Y140545D01*
X191471Y140507D01*
X191554Y140473D01*
X191639Y140443D01*
X191725Y140416D01*
X191811Y140393D01*
X191899Y140374D01*
X191988Y140359D01*
X192077Y140347D01*
X192166Y140339D01*
X192256Y140335D01*
X192346Y140335D01*
X192436Y140339D01*
X192525Y140347D01*
X192614Y140359D01*
X192703Y140374D01*
X192791Y140393D01*
X192877Y140416D01*
X192963Y140443D01*
X193048Y140473D01*
X193131Y140507D01*
X193213Y140545D01*
X193293Y140586D01*
X193371Y140630D01*
X193447Y140678D01*
X193521Y140729D01*
X193593Y140783D01*
X193662Y140840D01*
X193729Y140900D01*
X193793Y140963D01*
X193855Y141028D01*
X193913Y141096D01*
X193969Y141167D01*
X194021Y141240D01*
X194071Y141315D01*
X194117Y141392D01*
X194159Y141471D01*
X194199Y141552D01*
X194234Y141634D01*
X194266Y141718D01*
X194295Y141803D01*
X194320Y141890D01*
X194341Y141977D01*
X194358Y142065D01*
X194372Y142154D01*
X194381Y142244D01*
X194387Y142333D01*
X194389Y142423D01*
X186465Y142423D02*
X186465Y144512D01*
X186463Y144602D01*
X186457Y144691D01*
X186448Y144781D01*
X186434Y144870D01*
X186417Y144958D01*
X186396Y145045D01*
X186371Y145132D01*
X186342Y145217D01*
X186310Y145301D01*
X186275Y145383D01*
X186235Y145464D01*
X186193Y145543D01*
X186147Y145620D01*
X186097Y145695D01*
X186045Y145768D01*
X185989Y145839D01*
X185931Y145907D01*
X185869Y145972D01*
X185805Y146035D01*
X185738Y146095D01*
X185669Y146152D01*
X185597Y146206D01*
X185523Y146257D01*
X185447Y146305D01*
X185369Y146349D01*
X185289Y146390D01*
X185207Y146428D01*
X185124Y146462D01*
X185039Y146492D01*
X184953Y146519D01*
X184867Y146542D01*
X184779Y146561D01*
X184690Y146576D01*
X184601Y146588D01*
X184512Y146596D01*
X184422Y146600D01*
X184332Y146600D01*
X184242Y146596D01*
X184153Y146588D01*
X184064Y146576D01*
X183975Y146561D01*
X183887Y146542D01*
X183801Y146519D01*
X183715Y146492D01*
X183630Y146462D01*
X183547Y146428D01*
X183465Y146390D01*
X183385Y146349D01*
X183307Y146305D01*
X183231Y146257D01*
X183157Y146206D01*
X183085Y146152D01*
X183016Y146095D01*
X182949Y146035D01*
X182885Y145972D01*
X182823Y145907D01*
X182765Y145839D01*
X182709Y145768D01*
X182657Y145695D01*
X182607Y145620D01*
X182561Y145543D01*
X182519Y145464D01*
X182479Y145383D01*
X182444Y145301D01*
X182412Y145217D01*
X182383Y145132D01*
X182358Y145045D01*
X182337Y144958D01*
X182320Y144870D01*
X182306Y144781D01*
X182297Y144691D01*
X182291Y144602D01*
X182289Y144512D01*
X182288Y144512D02*
X182288Y142423D01*
X182289Y142423D02*
X182291Y142333D01*
X182297Y142244D01*
X182306Y142154D01*
X182320Y142065D01*
X182337Y141977D01*
X182358Y141890D01*
X182383Y141803D01*
X182412Y141718D01*
X182444Y141634D01*
X182479Y141552D01*
X182519Y141471D01*
X182561Y141392D01*
X182607Y141315D01*
X182657Y141240D01*
X182709Y141167D01*
X182765Y141096D01*
X182823Y141028D01*
X182885Y140963D01*
X182949Y140900D01*
X183016Y140840D01*
X183085Y140783D01*
X183157Y140729D01*
X183231Y140678D01*
X183307Y140630D01*
X183385Y140586D01*
X183465Y140545D01*
X183547Y140507D01*
X183630Y140473D01*
X183715Y140443D01*
X183801Y140416D01*
X183887Y140393D01*
X183975Y140374D01*
X184064Y140359D01*
X184153Y140347D01*
X184242Y140339D01*
X184332Y140335D01*
X184422Y140335D01*
X184512Y140339D01*
X184601Y140347D01*
X184690Y140359D01*
X184779Y140374D01*
X184867Y140393D01*
X184953Y140416D01*
X185039Y140443D01*
X185124Y140473D01*
X185207Y140507D01*
X185289Y140545D01*
X185369Y140586D01*
X185447Y140630D01*
X185523Y140678D01*
X185597Y140729D01*
X185669Y140783D01*
X185738Y140840D01*
X185805Y140900D01*
X185869Y140963D01*
X185931Y141028D01*
X185989Y141096D01*
X186045Y141167D01*
X186097Y141240D01*
X186147Y141315D01*
X186193Y141392D01*
X186235Y141471D01*
X186275Y141552D01*
X186310Y141634D01*
X186342Y141718D01*
X186371Y141803D01*
X186396Y141890D01*
X186417Y141977D01*
X186434Y142065D01*
X186448Y142154D01*
X186457Y142244D01*
X186463Y142333D01*
X186465Y142423D01*
X177757Y143990D02*
X175147Y142946D01*
X177757Y143990D02*
X177823Y144018D01*
X177888Y144051D01*
X177951Y144086D01*
X178012Y144125D01*
X178071Y144167D01*
X178127Y144212D01*
X178181Y144260D01*
X178232Y144311D01*
X178281Y144364D01*
X178326Y144421D01*
X178369Y144479D01*
X178408Y144539D01*
X178445Y144602D01*
X178477Y144667D01*
X178506Y144733D01*
X178532Y144800D01*
X178554Y144869D01*
X178572Y144939D01*
X178587Y145010D01*
X178598Y145081D01*
X178605Y145153D01*
X178608Y145225D01*
X178607Y145297D01*
X178602Y145370D01*
X178594Y145441D01*
X178582Y145513D01*
X178566Y145583D01*
X178546Y145652D01*
X178522Y145721D01*
X178495Y145788D01*
X178465Y145853D01*
X178431Y145917D01*
X178393Y145979D01*
X178353Y146039D01*
X178309Y146096D01*
X178262Y146151D01*
X178212Y146204D01*
X178160Y146253D01*
X178105Y146300D01*
X178048Y146344D01*
X177988Y146385D01*
X177926Y146422D01*
X177862Y146457D01*
X177797Y146487D01*
X177730Y146515D01*
X177662Y146538D01*
X177592Y146558D01*
X177522Y146574D01*
X177451Y146587D01*
X177379Y146595D01*
X177307Y146600D01*
X177235Y146601D01*
X177235Y146600D02*
X177084Y146596D01*
X176933Y146588D01*
X176782Y146577D01*
X176631Y146561D01*
X176481Y146541D01*
X176331Y146518D01*
X176182Y146491D01*
X176034Y146460D01*
X175886Y146425D01*
X175740Y146387D01*
X175594Y146344D01*
X175450Y146298D01*
X175307Y146249D01*
X175165Y146196D01*
X175025Y146139D01*
X174886Y146078D01*
X175146Y142946D02*
X175080Y142918D01*
X175015Y142885D01*
X174952Y142850D01*
X174891Y142811D01*
X174832Y142769D01*
X174776Y142724D01*
X174722Y142676D01*
X174671Y142625D01*
X174622Y142572D01*
X174577Y142515D01*
X174534Y142457D01*
X174495Y142397D01*
X174458Y142334D01*
X174426Y142269D01*
X174397Y142203D01*
X174371Y142136D01*
X174349Y142067D01*
X174331Y141997D01*
X174316Y141926D01*
X174305Y141855D01*
X174298Y141783D01*
X174295Y141711D01*
X174296Y141639D01*
X174301Y141566D01*
X174309Y141495D01*
X174321Y141423D01*
X174337Y141353D01*
X174357Y141284D01*
X174381Y141215D01*
X174408Y141148D01*
X174438Y141083D01*
X174472Y141019D01*
X174510Y140957D01*
X174550Y140897D01*
X174594Y140840D01*
X174641Y140785D01*
X174691Y140732D01*
X174743Y140683D01*
X174798Y140636D01*
X174855Y140592D01*
X174915Y140551D01*
X174977Y140514D01*
X175041Y140479D01*
X175106Y140449D01*
X175173Y140421D01*
X175241Y140398D01*
X175311Y140378D01*
X175381Y140362D01*
X175452Y140349D01*
X175524Y140341D01*
X175596Y140336D01*
X175668Y140335D01*
X175878Y140340D01*
X176087Y140351D01*
X176296Y140366D01*
X176504Y140386D01*
X176712Y140412D01*
X176919Y140442D01*
X177126Y140477D01*
X177331Y140517D01*
X177536Y140561D01*
X177739Y140611D01*
X177942Y140665D01*
X178143Y140725D01*
X178342Y140788D01*
X178540Y140857D01*
X171384Y146600D02*
X168252Y146600D01*
X170340Y149733D02*
X170340Y141901D01*
X170338Y141824D01*
X170332Y141748D01*
X170323Y141671D01*
X170310Y141595D01*
X170293Y141520D01*
X170273Y141446D01*
X170248Y141373D01*
X170221Y141302D01*
X170190Y141231D01*
X170155Y141163D01*
X170117Y141096D01*
X170076Y141031D01*
X170032Y140968D01*
X169985Y140908D01*
X169934Y140849D01*
X169881Y140794D01*
X169826Y140741D01*
X169767Y140690D01*
X169707Y140643D01*
X169644Y140599D01*
X169579Y140558D01*
X169512Y140520D01*
X169444Y140485D01*
X169373Y140454D01*
X169302Y140427D01*
X169229Y140402D01*
X169155Y140382D01*
X169080Y140365D01*
X169004Y140352D01*
X168927Y140343D01*
X168851Y140337D01*
X168774Y140335D01*
X168252Y140335D01*
X158164Y140335D02*
X160252Y146600D01*
X156076Y146600D02*
X158164Y140335D01*
X152545Y147645D02*
X149934Y149733D01*
X149934Y140335D01*
X147324Y140335D02*
X152545Y140335D01*
X143795Y140335D02*
X143795Y140857D01*
X143273Y140857D01*
X143273Y140335D01*
X143795Y140335D01*
X139744Y145034D02*
X139742Y145219D01*
X139735Y145404D01*
X139724Y145588D01*
X139709Y145772D01*
X139689Y145956D01*
X139665Y146140D01*
X139636Y146322D01*
X139603Y146504D01*
X139566Y146685D01*
X139524Y146865D01*
X139478Y147045D01*
X139428Y147223D01*
X139374Y147399D01*
X139315Y147575D01*
X139253Y147749D01*
X139186Y147921D01*
X139115Y148092D01*
X139040Y148261D01*
X138961Y148428D01*
X138931Y148508D01*
X138898Y148587D01*
X138861Y148664D01*
X138821Y148740D01*
X138778Y148814D01*
X138732Y148886D01*
X138682Y148955D01*
X138630Y149023D01*
X138574Y149088D01*
X138516Y149151D01*
X138454Y149210D01*
X138391Y149268D01*
X138324Y149322D01*
X138256Y149373D01*
X138185Y149421D01*
X138112Y149466D01*
X138038Y149508D01*
X137961Y149546D01*
X137883Y149581D01*
X137804Y149613D01*
X137723Y149641D01*
X137641Y149665D01*
X137557Y149686D01*
X137474Y149703D01*
X137389Y149716D01*
X137304Y149725D01*
X137219Y149731D01*
X137133Y149733D01*
X137047Y149731D01*
X136962Y149725D01*
X136877Y149716D01*
X136792Y149703D01*
X136709Y149686D01*
X136625Y149665D01*
X136543Y149641D01*
X136463Y149613D01*
X136383Y149581D01*
X136305Y149546D01*
X136228Y149508D01*
X136154Y149466D01*
X136081Y149421D01*
X136010Y149373D01*
X135942Y149322D01*
X135875Y149268D01*
X135812Y149210D01*
X135751Y149151D01*
X135692Y149088D01*
X135637Y149023D01*
X135584Y148955D01*
X135534Y148886D01*
X135488Y148814D01*
X135445Y148740D01*
X135405Y148664D01*
X135368Y148587D01*
X135335Y148508D01*
X135305Y148428D01*
X135226Y148261D01*
X135151Y148092D01*
X135080Y147921D01*
X135013Y147749D01*
X134951Y147575D01*
X134892Y147399D01*
X134838Y147223D01*
X134788Y147045D01*
X134742Y146865D01*
X134700Y146685D01*
X134663Y146504D01*
X134630Y146322D01*
X134601Y146140D01*
X134577Y145956D01*
X134557Y145772D01*
X134542Y145588D01*
X134531Y145404D01*
X134524Y145219D01*
X134522Y145034D01*
X139744Y145034D02*
X139742Y144849D01*
X139735Y144664D01*
X139724Y144480D01*
X139709Y144296D01*
X139689Y144112D01*
X139665Y143928D01*
X139636Y143746D01*
X139603Y143564D01*
X139566Y143383D01*
X139524Y143203D01*
X139478Y143023D01*
X139428Y142845D01*
X139374Y142669D01*
X139315Y142493D01*
X139253Y142319D01*
X139186Y142147D01*
X139115Y141976D01*
X139040Y141807D01*
X138961Y141640D01*
X138931Y141560D01*
X138898Y141481D01*
X138861Y141404D01*
X138821Y141328D01*
X138778Y141254D01*
X138732Y141182D01*
X138682Y141113D01*
X138629Y141045D01*
X138574Y140980D01*
X138515Y140917D01*
X138454Y140858D01*
X138391Y140800D01*
X138324Y140746D01*
X138256Y140695D01*
X138185Y140647D01*
X138112Y140602D01*
X138038Y140560D01*
X137961Y140522D01*
X137883Y140487D01*
X137804Y140455D01*
X137723Y140427D01*
X137641Y140403D01*
X137557Y140382D01*
X137474Y140365D01*
X137389Y140352D01*
X137304Y140343D01*
X137219Y140337D01*
X137133Y140335D01*
X135305Y141640D02*
X135226Y141807D01*
X135151Y141976D01*
X135080Y142147D01*
X135013Y142319D01*
X134951Y142493D01*
X134892Y142669D01*
X134838Y142845D01*
X134788Y143023D01*
X134742Y143203D01*
X134700Y143383D01*
X134663Y143564D01*
X134630Y143746D01*
X134601Y143928D01*
X134577Y144112D01*
X134557Y144296D01*
X134542Y144480D01*
X134531Y144664D01*
X134524Y144849D01*
X134522Y145034D01*
X135305Y141640D02*
X135335Y141560D01*
X135368Y141481D01*
X135405Y141404D01*
X135445Y141328D01*
X135488Y141254D01*
X135534Y141182D01*
X135584Y141113D01*
X135637Y141045D01*
X135692Y140980D01*
X135751Y140917D01*
X135812Y140858D01*
X135875Y140800D01*
X135942Y140746D01*
X136010Y140695D01*
X136081Y140647D01*
X136154Y140602D01*
X136228Y140560D01*
X136305Y140522D01*
X136383Y140487D01*
X136463Y140455D01*
X136543Y140427D01*
X136625Y140403D01*
X136709Y140382D01*
X136792Y140365D01*
X136877Y140352D01*
X136962Y140343D01*
X137047Y140337D01*
X137133Y140335D01*
X139221Y142423D02*
X135044Y147645D01*
X224550Y126111D02*
X227161Y126111D01*
X227238Y126113D01*
X227314Y126119D01*
X227391Y126128D01*
X227467Y126141D01*
X227542Y126158D01*
X227616Y126178D01*
X227689Y126203D01*
X227760Y126230D01*
X227831Y126261D01*
X227899Y126296D01*
X227966Y126334D01*
X228031Y126375D01*
X228094Y126419D01*
X228154Y126466D01*
X228213Y126517D01*
X228268Y126570D01*
X228321Y126625D01*
X228372Y126684D01*
X228419Y126744D01*
X228463Y126807D01*
X228504Y126872D01*
X228542Y126939D01*
X228577Y127007D01*
X228608Y127078D01*
X228635Y127149D01*
X228660Y127222D01*
X228680Y127296D01*
X228697Y127371D01*
X228710Y127447D01*
X228719Y127524D01*
X228725Y127600D01*
X228727Y127677D01*
X228727Y130810D01*
X228725Y130887D01*
X228719Y130963D01*
X228710Y131040D01*
X228697Y131116D01*
X228680Y131191D01*
X228660Y131265D01*
X228635Y131338D01*
X228608Y131409D01*
X228577Y131480D01*
X228542Y131548D01*
X228504Y131615D01*
X228463Y131680D01*
X228419Y131743D01*
X228372Y131803D01*
X228321Y131862D01*
X228268Y131917D01*
X228213Y131970D01*
X228154Y132021D01*
X228094Y132068D01*
X228031Y132112D01*
X227966Y132153D01*
X227899Y132191D01*
X227831Y132226D01*
X227760Y132257D01*
X227689Y132284D01*
X227616Y132309D01*
X227542Y132329D01*
X227467Y132346D01*
X227391Y132359D01*
X227314Y132368D01*
X227238Y132374D01*
X227161Y132376D01*
X224550Y132376D01*
X224550Y124545D01*
X224552Y124468D01*
X224558Y124392D01*
X224567Y124315D01*
X224580Y124239D01*
X224597Y124164D01*
X224617Y124090D01*
X224642Y124017D01*
X224669Y123946D01*
X224700Y123875D01*
X224735Y123807D01*
X224773Y123740D01*
X224814Y123675D01*
X224858Y123612D01*
X224905Y123552D01*
X224956Y123493D01*
X225009Y123438D01*
X225064Y123385D01*
X225123Y123334D01*
X225183Y123287D01*
X225246Y123243D01*
X225311Y123202D01*
X225378Y123164D01*
X225446Y123129D01*
X225517Y123098D01*
X225588Y123071D01*
X225661Y123046D01*
X225735Y123026D01*
X225810Y123009D01*
X225886Y122996D01*
X225963Y122987D01*
X226039Y122981D01*
X226116Y122979D01*
X226116Y122978D02*
X228205Y122978D01*
X220497Y126111D02*
X220497Y132376D01*
X220758Y134987D02*
X220758Y135509D01*
X220236Y135509D01*
X220236Y134987D01*
X220758Y134987D01*
X217563Y132376D02*
X214430Y132376D01*
X216519Y135509D02*
X216519Y127677D01*
X216518Y127677D02*
X216516Y127600D01*
X216510Y127524D01*
X216501Y127447D01*
X216488Y127371D01*
X216471Y127296D01*
X216451Y127222D01*
X216426Y127149D01*
X216399Y127078D01*
X216368Y127007D01*
X216333Y126939D01*
X216295Y126872D01*
X216254Y126807D01*
X216210Y126744D01*
X216163Y126684D01*
X216112Y126625D01*
X216059Y126570D01*
X216004Y126517D01*
X215945Y126466D01*
X215885Y126419D01*
X215822Y126375D01*
X215757Y126334D01*
X215690Y126296D01*
X215622Y126261D01*
X215551Y126230D01*
X215480Y126203D01*
X215407Y126178D01*
X215333Y126158D01*
X215258Y126141D01*
X215182Y126128D01*
X215105Y126119D01*
X215029Y126113D01*
X214952Y126111D01*
X214430Y126111D01*
X210698Y126111D02*
X210698Y135509D01*
X210698Y132376D02*
X208088Y132376D01*
X208011Y132374D01*
X207935Y132368D01*
X207858Y132359D01*
X207782Y132346D01*
X207708Y132329D01*
X207633Y132309D01*
X207560Y132284D01*
X207489Y132257D01*
X207418Y132226D01*
X207350Y132191D01*
X207283Y132153D01*
X207218Y132112D01*
X207155Y132068D01*
X207095Y132021D01*
X207036Y131970D01*
X206981Y131917D01*
X206928Y131862D01*
X206877Y131803D01*
X206830Y131743D01*
X206786Y131680D01*
X206745Y131615D01*
X206707Y131548D01*
X206672Y131480D01*
X206641Y131409D01*
X206614Y131338D01*
X206589Y131265D01*
X206569Y131191D01*
X206552Y131116D01*
X206539Y131040D01*
X206530Y130964D01*
X206524Y130887D01*
X206522Y130810D01*
X206521Y130810D02*
X206521Y126111D01*
X202164Y127677D02*
X202164Y132376D01*
X202164Y127677D02*
X202162Y127600D01*
X202156Y127524D01*
X202147Y127447D01*
X202134Y127371D01*
X202117Y127296D01*
X202097Y127222D01*
X202072Y127149D01*
X202045Y127078D01*
X202014Y127007D01*
X201979Y126939D01*
X201941Y126872D01*
X201900Y126807D01*
X201856Y126744D01*
X201809Y126684D01*
X201758Y126625D01*
X201705Y126570D01*
X201650Y126517D01*
X201591Y126466D01*
X201531Y126419D01*
X201468Y126375D01*
X201403Y126334D01*
X201336Y126296D01*
X201268Y126261D01*
X201197Y126230D01*
X201126Y126203D01*
X201053Y126178D01*
X200979Y126158D01*
X200904Y126141D01*
X200828Y126128D01*
X200751Y126119D01*
X200675Y126113D01*
X200598Y126111D01*
X197987Y126111D01*
X197987Y132376D01*
X193584Y135509D02*
X193584Y126111D01*
X190973Y126111D01*
X190896Y126113D01*
X190820Y126119D01*
X190743Y126128D01*
X190667Y126141D01*
X190593Y126158D01*
X190518Y126178D01*
X190445Y126203D01*
X190374Y126230D01*
X190303Y126261D01*
X190235Y126296D01*
X190168Y126334D01*
X190103Y126375D01*
X190040Y126419D01*
X189980Y126466D01*
X189921Y126517D01*
X189866Y126570D01*
X189813Y126625D01*
X189762Y126684D01*
X189715Y126744D01*
X189671Y126807D01*
X189630Y126872D01*
X189592Y126939D01*
X189557Y127007D01*
X189526Y127078D01*
X189499Y127149D01*
X189474Y127222D01*
X189454Y127296D01*
X189437Y127371D01*
X189424Y127447D01*
X189415Y127523D01*
X189409Y127600D01*
X189407Y127677D01*
X189407Y130810D01*
X189409Y130887D01*
X189415Y130963D01*
X189424Y131040D01*
X189437Y131116D01*
X189454Y131191D01*
X189474Y131265D01*
X189499Y131338D01*
X189526Y131409D01*
X189557Y131480D01*
X189592Y131548D01*
X189630Y131615D01*
X189671Y131680D01*
X189715Y131743D01*
X189762Y131803D01*
X189813Y131862D01*
X189866Y131917D01*
X189921Y131970D01*
X189980Y132021D01*
X190040Y132068D01*
X190103Y132112D01*
X190168Y132153D01*
X190235Y132191D01*
X190303Y132226D01*
X190374Y132257D01*
X190445Y132284D01*
X190518Y132309D01*
X190593Y132329D01*
X190668Y132346D01*
X190743Y132359D01*
X190820Y132368D01*
X190896Y132374D01*
X190973Y132376D01*
X193584Y132376D01*
X186011Y126633D02*
X186011Y126111D01*
X186011Y126633D02*
X185489Y126633D01*
X185489Y126111D01*
X186011Y126111D01*
X180471Y126111D02*
X178382Y126111D01*
X180471Y126111D02*
X180548Y126113D01*
X180624Y126119D01*
X180701Y126128D01*
X180777Y126141D01*
X180852Y126158D01*
X180926Y126178D01*
X180999Y126203D01*
X181070Y126230D01*
X181141Y126261D01*
X181209Y126296D01*
X181276Y126334D01*
X181341Y126375D01*
X181404Y126419D01*
X181464Y126466D01*
X181523Y126517D01*
X181578Y126570D01*
X181631Y126625D01*
X181682Y126684D01*
X181729Y126744D01*
X181773Y126807D01*
X181814Y126872D01*
X181852Y126939D01*
X181887Y127007D01*
X181918Y127078D01*
X181945Y127149D01*
X181970Y127222D01*
X181990Y127296D01*
X182007Y127371D01*
X182020Y127447D01*
X182029Y127524D01*
X182035Y127600D01*
X182037Y127677D01*
X182037Y130810D01*
X182035Y130887D01*
X182029Y130963D01*
X182020Y131040D01*
X182007Y131116D01*
X181990Y131191D01*
X181970Y131265D01*
X181945Y131338D01*
X181918Y131409D01*
X181887Y131480D01*
X181852Y131548D01*
X181814Y131615D01*
X181773Y131680D01*
X181729Y131743D01*
X181682Y131803D01*
X181631Y131862D01*
X181578Y131917D01*
X181523Y131970D01*
X181464Y132021D01*
X181404Y132068D01*
X181341Y132112D01*
X181276Y132153D01*
X181209Y132191D01*
X181141Y132226D01*
X181070Y132257D01*
X180999Y132284D01*
X180926Y132309D01*
X180852Y132329D01*
X180777Y132346D01*
X180701Y132359D01*
X180624Y132368D01*
X180548Y132374D01*
X180471Y132376D01*
X178382Y132376D01*
X175037Y130288D02*
X175037Y128199D01*
X175036Y130288D02*
X175034Y130378D01*
X175028Y130467D01*
X175019Y130557D01*
X175005Y130646D01*
X174988Y130734D01*
X174967Y130821D01*
X174942Y130908D01*
X174913Y130993D01*
X174881Y131077D01*
X174846Y131159D01*
X174806Y131240D01*
X174764Y131319D01*
X174718Y131396D01*
X174668Y131471D01*
X174616Y131544D01*
X174560Y131615D01*
X174502Y131683D01*
X174440Y131748D01*
X174376Y131811D01*
X174309Y131871D01*
X174240Y131928D01*
X174168Y131982D01*
X174094Y132033D01*
X174018Y132081D01*
X173940Y132125D01*
X173860Y132166D01*
X173778Y132204D01*
X173695Y132238D01*
X173610Y132268D01*
X173524Y132295D01*
X173438Y132318D01*
X173350Y132337D01*
X173261Y132352D01*
X173172Y132364D01*
X173083Y132372D01*
X172993Y132376D01*
X172903Y132376D01*
X172813Y132372D01*
X172724Y132364D01*
X172635Y132352D01*
X172546Y132337D01*
X172458Y132318D01*
X172372Y132295D01*
X172286Y132268D01*
X172201Y132238D01*
X172118Y132204D01*
X172036Y132166D01*
X171956Y132125D01*
X171878Y132081D01*
X171802Y132033D01*
X171728Y131982D01*
X171656Y131928D01*
X171587Y131871D01*
X171520Y131811D01*
X171456Y131748D01*
X171394Y131683D01*
X171336Y131615D01*
X171280Y131544D01*
X171228Y131471D01*
X171178Y131396D01*
X171132Y131319D01*
X171090Y131240D01*
X171050Y131159D01*
X171015Y131077D01*
X170983Y130993D01*
X170954Y130908D01*
X170929Y130821D01*
X170908Y130734D01*
X170891Y130646D01*
X170877Y130557D01*
X170868Y130467D01*
X170862Y130378D01*
X170860Y130288D01*
X170860Y128199D01*
X170862Y128109D01*
X170868Y128020D01*
X170877Y127930D01*
X170891Y127841D01*
X170908Y127753D01*
X170929Y127666D01*
X170954Y127579D01*
X170983Y127494D01*
X171015Y127410D01*
X171050Y127328D01*
X171090Y127247D01*
X171132Y127168D01*
X171178Y127091D01*
X171228Y127016D01*
X171280Y126943D01*
X171336Y126872D01*
X171394Y126804D01*
X171456Y126739D01*
X171520Y126676D01*
X171587Y126616D01*
X171656Y126559D01*
X171728Y126505D01*
X171802Y126454D01*
X171878Y126406D01*
X171956Y126362D01*
X172036Y126321D01*
X172118Y126283D01*
X172201Y126249D01*
X172286Y126219D01*
X172372Y126192D01*
X172458Y126169D01*
X172546Y126150D01*
X172635Y126135D01*
X172724Y126123D01*
X172813Y126115D01*
X172903Y126111D01*
X172993Y126111D01*
X173083Y126115D01*
X173172Y126123D01*
X173261Y126135D01*
X173350Y126150D01*
X173438Y126169D01*
X173524Y126192D01*
X173610Y126219D01*
X173695Y126249D01*
X173778Y126283D01*
X173860Y126321D01*
X173940Y126362D01*
X174018Y126406D01*
X174094Y126454D01*
X174168Y126505D01*
X174240Y126559D01*
X174309Y126616D01*
X174376Y126676D01*
X174440Y126739D01*
X174502Y126804D01*
X174560Y126872D01*
X174616Y126943D01*
X174668Y127016D01*
X174718Y127091D01*
X174764Y127168D01*
X174806Y127247D01*
X174846Y127328D01*
X174881Y127410D01*
X174913Y127494D01*
X174942Y127579D01*
X174967Y127666D01*
X174988Y127753D01*
X175005Y127841D01*
X175019Y127930D01*
X175028Y128020D01*
X175034Y128109D01*
X175036Y128199D01*
X166632Y126111D02*
X166632Y132376D01*
X161933Y132376D01*
X161856Y132374D01*
X161780Y132368D01*
X161703Y132359D01*
X161627Y132346D01*
X161552Y132329D01*
X161478Y132309D01*
X161405Y132284D01*
X161334Y132257D01*
X161263Y132226D01*
X161195Y132191D01*
X161128Y132153D01*
X161063Y132112D01*
X161000Y132068D01*
X160940Y132021D01*
X160881Y131970D01*
X160826Y131917D01*
X160773Y131862D01*
X160722Y131803D01*
X160675Y131743D01*
X160631Y131680D01*
X160590Y131615D01*
X160552Y131548D01*
X160517Y131480D01*
X160486Y131409D01*
X160459Y131338D01*
X160434Y131265D01*
X160414Y131191D01*
X160397Y131116D01*
X160384Y131040D01*
X160375Y130963D01*
X160369Y130887D01*
X160367Y130810D01*
X160367Y126111D01*
X163500Y126111D02*
X163500Y132376D01*
X156444Y125067D02*
X152267Y136553D01*
X148041Y129766D02*
X145431Y128722D01*
X148041Y129766D02*
X148107Y129794D01*
X148172Y129827D01*
X148235Y129862D01*
X148296Y129901D01*
X148355Y129943D01*
X148411Y129988D01*
X148465Y130036D01*
X148516Y130087D01*
X148565Y130140D01*
X148610Y130197D01*
X148653Y130255D01*
X148692Y130315D01*
X148729Y130378D01*
X148761Y130443D01*
X148790Y130509D01*
X148816Y130576D01*
X148838Y130645D01*
X148856Y130715D01*
X148871Y130786D01*
X148882Y130857D01*
X148889Y130929D01*
X148892Y131001D01*
X148891Y131073D01*
X148886Y131146D01*
X148878Y131217D01*
X148866Y131289D01*
X148850Y131359D01*
X148830Y131428D01*
X148806Y131497D01*
X148779Y131564D01*
X148749Y131629D01*
X148715Y131693D01*
X148677Y131755D01*
X148637Y131815D01*
X148593Y131872D01*
X148546Y131927D01*
X148496Y131980D01*
X148444Y132029D01*
X148389Y132076D01*
X148332Y132120D01*
X148272Y132161D01*
X148210Y132198D01*
X148146Y132233D01*
X148081Y132263D01*
X148014Y132291D01*
X147946Y132314D01*
X147876Y132334D01*
X147806Y132350D01*
X147735Y132363D01*
X147663Y132371D01*
X147591Y132376D01*
X147519Y132377D01*
X147519Y132376D02*
X147368Y132372D01*
X147217Y132364D01*
X147066Y132353D01*
X146915Y132337D01*
X146765Y132317D01*
X146615Y132294D01*
X146466Y132267D01*
X146318Y132236D01*
X146170Y132201D01*
X146024Y132163D01*
X145878Y132120D01*
X145734Y132074D01*
X145591Y132025D01*
X145449Y131972D01*
X145309Y131915D01*
X145170Y131854D01*
X145430Y128722D02*
X145364Y128694D01*
X145299Y128661D01*
X145236Y128626D01*
X145175Y128587D01*
X145116Y128545D01*
X145060Y128500D01*
X145006Y128452D01*
X144955Y128401D01*
X144906Y128348D01*
X144861Y128291D01*
X144818Y128233D01*
X144779Y128173D01*
X144742Y128110D01*
X144710Y128045D01*
X144681Y127979D01*
X144655Y127912D01*
X144633Y127843D01*
X144615Y127773D01*
X144600Y127702D01*
X144589Y127631D01*
X144582Y127559D01*
X144579Y127487D01*
X144580Y127415D01*
X144585Y127342D01*
X144593Y127271D01*
X144605Y127199D01*
X144621Y127129D01*
X144641Y127060D01*
X144665Y126991D01*
X144692Y126924D01*
X144722Y126859D01*
X144756Y126795D01*
X144794Y126733D01*
X144834Y126673D01*
X144878Y126616D01*
X144925Y126561D01*
X144975Y126508D01*
X145027Y126459D01*
X145082Y126412D01*
X145139Y126368D01*
X145199Y126327D01*
X145261Y126290D01*
X145325Y126255D01*
X145390Y126225D01*
X145457Y126197D01*
X145525Y126174D01*
X145595Y126154D01*
X145665Y126138D01*
X145736Y126125D01*
X145808Y126117D01*
X145880Y126112D01*
X145952Y126111D01*
X146162Y126116D01*
X146371Y126127D01*
X146580Y126142D01*
X146788Y126162D01*
X146996Y126188D01*
X147203Y126218D01*
X147410Y126253D01*
X147615Y126293D01*
X147820Y126337D01*
X148023Y126387D01*
X148226Y126441D01*
X148427Y126501D01*
X148626Y126564D01*
X148824Y126633D01*
X139118Y129766D02*
X136768Y129766D01*
X139118Y129765D02*
X139202Y129763D01*
X139287Y129757D01*
X139370Y129747D01*
X139454Y129734D01*
X139536Y129716D01*
X139618Y129695D01*
X139699Y129670D01*
X139778Y129642D01*
X139856Y129609D01*
X139932Y129573D01*
X140007Y129534D01*
X140080Y129491D01*
X140151Y129445D01*
X140219Y129396D01*
X140285Y129344D01*
X140349Y129288D01*
X140410Y129230D01*
X140468Y129169D01*
X140524Y129105D01*
X140576Y129039D01*
X140625Y128971D01*
X140671Y128900D01*
X140714Y128827D01*
X140753Y128752D01*
X140789Y128676D01*
X140822Y128598D01*
X140850Y128519D01*
X140875Y128438D01*
X140896Y128356D01*
X140914Y128274D01*
X140927Y128190D01*
X140937Y128107D01*
X140943Y128022D01*
X140945Y127938D01*
X140943Y127854D01*
X140937Y127769D01*
X140927Y127686D01*
X140914Y127602D01*
X140896Y127520D01*
X140875Y127438D01*
X140850Y127357D01*
X140822Y127278D01*
X140789Y127200D01*
X140753Y127124D01*
X140714Y127049D01*
X140671Y126976D01*
X140625Y126905D01*
X140576Y126837D01*
X140524Y126771D01*
X140468Y126707D01*
X140410Y126646D01*
X140349Y126588D01*
X140285Y126532D01*
X140219Y126480D01*
X140151Y126431D01*
X140080Y126385D01*
X140007Y126342D01*
X139932Y126303D01*
X139856Y126267D01*
X139778Y126234D01*
X139699Y126206D01*
X139618Y126181D01*
X139536Y126160D01*
X139454Y126142D01*
X139370Y126129D01*
X139287Y126119D01*
X139202Y126113D01*
X139118Y126111D01*
X136768Y126111D01*
X136768Y130810D01*
X136769Y130810D02*
X136771Y130887D01*
X136777Y130963D01*
X136786Y131040D01*
X136799Y131116D01*
X136816Y131191D01*
X136836Y131265D01*
X136861Y131338D01*
X136888Y131409D01*
X136919Y131480D01*
X136954Y131548D01*
X136992Y131615D01*
X137033Y131680D01*
X137077Y131743D01*
X137124Y131803D01*
X137175Y131862D01*
X137228Y131917D01*
X137283Y131970D01*
X137342Y132021D01*
X137402Y132068D01*
X137465Y132112D01*
X137530Y132153D01*
X137597Y132191D01*
X137665Y132226D01*
X137736Y132257D01*
X137807Y132284D01*
X137880Y132309D01*
X137955Y132329D01*
X138030Y132346D01*
X138105Y132359D01*
X138182Y132368D01*
X138258Y132374D01*
X138335Y132376D01*
X140423Y132376D01*
X132314Y132376D02*
X132314Y126111D01*
X132314Y132376D02*
X129181Y132376D01*
X129181Y131332D01*
X125859Y135509D02*
X125859Y126111D01*
X125859Y129244D02*
X121682Y132376D01*
X124032Y130549D02*
X121682Y126111D01*
X117988Y126111D02*
X117988Y132376D01*
X114855Y132376D01*
X114855Y131332D01*
X111639Y132376D02*
X111639Y127677D01*
X111638Y127677D02*
X111636Y127600D01*
X111630Y127524D01*
X111621Y127447D01*
X111608Y127371D01*
X111591Y127296D01*
X111571Y127222D01*
X111546Y127149D01*
X111519Y127078D01*
X111488Y127007D01*
X111453Y126939D01*
X111415Y126872D01*
X111374Y126807D01*
X111330Y126744D01*
X111283Y126684D01*
X111232Y126625D01*
X111179Y126570D01*
X111124Y126517D01*
X111065Y126466D01*
X111005Y126419D01*
X110942Y126375D01*
X110877Y126334D01*
X110810Y126296D01*
X110742Y126261D01*
X110671Y126230D01*
X110600Y126203D01*
X110527Y126178D01*
X110453Y126158D01*
X110378Y126141D01*
X110302Y126128D01*
X110225Y126119D01*
X110149Y126113D01*
X110072Y126111D01*
X107462Y126111D01*
X107462Y132376D01*
X103454Y132376D02*
X103454Y126111D01*
X103715Y134987D02*
X103715Y135509D01*
X103193Y135509D01*
X103193Y134987D01*
X103715Y134987D01*
X95880Y136553D02*
X100056Y125067D01*
X92027Y126111D02*
X87850Y126111D01*
X92027Y126111D02*
X92027Y135509D01*
X87850Y135509D01*
X88894Y131332D02*
X92027Y131332D01*
X81596Y126111D02*
X81507Y126113D01*
X81419Y126119D01*
X81331Y126128D01*
X81243Y126141D01*
X81156Y126158D01*
X81070Y126178D01*
X80985Y126203D01*
X80900Y126230D01*
X80817Y126262D01*
X80736Y126296D01*
X80656Y126335D01*
X80578Y126376D01*
X80501Y126421D01*
X80427Y126469D01*
X80354Y126520D01*
X80284Y126574D01*
X80217Y126632D01*
X80151Y126692D01*
X80089Y126754D01*
X80029Y126820D01*
X79971Y126887D01*
X79917Y126957D01*
X79866Y127030D01*
X79818Y127104D01*
X79773Y127181D01*
X79732Y127259D01*
X79693Y127339D01*
X79659Y127420D01*
X79627Y127503D01*
X79600Y127588D01*
X79575Y127673D01*
X79555Y127759D01*
X79538Y127846D01*
X79525Y127934D01*
X79516Y128022D01*
X79510Y128110D01*
X79508Y128199D01*
X81596Y126111D02*
X81725Y126113D01*
X81854Y126119D01*
X81983Y126128D01*
X82111Y126141D01*
X82239Y126158D01*
X82366Y126179D01*
X82493Y126203D01*
X82619Y126231D01*
X82744Y126263D01*
X82868Y126298D01*
X82991Y126337D01*
X83113Y126380D01*
X83233Y126426D01*
X83352Y126476D01*
X83470Y126529D01*
X83586Y126585D01*
X83700Y126645D01*
X83813Y126708D01*
X83923Y126775D01*
X84032Y126844D01*
X84138Y126917D01*
X84243Y126993D01*
X84345Y127072D01*
X84445Y127154D01*
X84542Y127238D01*
X84637Y127326D01*
X84729Y127416D01*
X84468Y133421D02*
X84466Y133510D01*
X84460Y133598D01*
X84451Y133686D01*
X84438Y133774D01*
X84421Y133861D01*
X84401Y133947D01*
X84376Y134032D01*
X84349Y134117D01*
X84317Y134200D01*
X84283Y134281D01*
X84244Y134361D01*
X84203Y134439D01*
X84158Y134516D01*
X84110Y134590D01*
X84059Y134663D01*
X84005Y134733D01*
X83947Y134800D01*
X83887Y134866D01*
X83825Y134928D01*
X83759Y134988D01*
X83692Y135046D01*
X83622Y135100D01*
X83549Y135151D01*
X83475Y135199D01*
X83398Y135244D01*
X83320Y135285D01*
X83240Y135324D01*
X83159Y135358D01*
X83076Y135390D01*
X82991Y135417D01*
X82906Y135442D01*
X82820Y135462D01*
X82733Y135479D01*
X82645Y135492D01*
X82557Y135501D01*
X82469Y135507D01*
X82380Y135509D01*
X82260Y135507D01*
X82140Y135502D01*
X82021Y135492D01*
X81901Y135480D01*
X81782Y135463D01*
X81664Y135443D01*
X81546Y135419D01*
X81430Y135392D01*
X81314Y135361D01*
X81199Y135327D01*
X81085Y135289D01*
X80972Y135247D01*
X80861Y135202D01*
X80751Y135154D01*
X80643Y135103D01*
X80536Y135048D01*
X80431Y134990D01*
X80328Y134928D01*
X80227Y134864D01*
X80127Y134796D01*
X80030Y134726D01*
X83424Y131594D02*
X83502Y131642D01*
X83578Y131694D01*
X83651Y131748D01*
X83722Y131806D01*
X83791Y131867D01*
X83857Y131931D01*
X83920Y131998D01*
X83980Y132067D01*
X84037Y132139D01*
X84091Y132213D01*
X84141Y132290D01*
X84189Y132369D01*
X84232Y132449D01*
X84273Y132532D01*
X84309Y132616D01*
X84342Y132701D01*
X84371Y132788D01*
X84397Y132877D01*
X84419Y132966D01*
X84436Y133056D01*
X84450Y133146D01*
X84460Y133238D01*
X84466Y133329D01*
X84468Y133421D01*
X80552Y130026D02*
X80474Y129978D01*
X80398Y129926D01*
X80325Y129872D01*
X80254Y129814D01*
X80185Y129753D01*
X80119Y129689D01*
X80056Y129622D01*
X79996Y129553D01*
X79939Y129481D01*
X79885Y129407D01*
X79835Y129330D01*
X79787Y129251D01*
X79744Y129171D01*
X79703Y129088D01*
X79667Y129004D01*
X79634Y128919D01*
X79605Y128832D01*
X79579Y128743D01*
X79557Y128654D01*
X79540Y128564D01*
X79526Y128474D01*
X79516Y128382D01*
X79510Y128291D01*
X79508Y128199D01*
X80552Y130027D02*
X83424Y131593D01*
X75454Y135509D02*
X75454Y126111D01*
X75454Y135509D02*
X72843Y135509D01*
X72742Y135507D01*
X72641Y135501D01*
X72540Y135491D01*
X72440Y135478D01*
X72340Y135460D01*
X72241Y135439D01*
X72143Y135413D01*
X72046Y135384D01*
X71950Y135352D01*
X71856Y135315D01*
X71763Y135275D01*
X71671Y135231D01*
X71582Y135184D01*
X71494Y135133D01*
X71408Y135079D01*
X71325Y135022D01*
X71243Y134962D01*
X71165Y134898D01*
X71088Y134832D01*
X71015Y134762D01*
X70944Y134690D01*
X70876Y134615D01*
X70811Y134537D01*
X70749Y134457D01*
X70690Y134375D01*
X70634Y134290D01*
X70582Y134204D01*
X70533Y134115D01*
X70487Y134024D01*
X70446Y133932D01*
X70407Y133838D01*
X70373Y133743D01*
X70342Y133647D01*
X70315Y133549D01*
X70291Y133451D01*
X70272Y133351D01*
X70256Y133251D01*
X70244Y133151D01*
X70236Y133050D01*
X70232Y132949D01*
X70232Y132847D01*
X70236Y132746D01*
X70244Y132645D01*
X70256Y132545D01*
X70272Y132445D01*
X70291Y132345D01*
X70315Y132247D01*
X70342Y132149D01*
X70373Y132053D01*
X70407Y131958D01*
X70446Y131864D01*
X70487Y131772D01*
X70533Y131681D01*
X70582Y131593D01*
X70634Y131506D01*
X70690Y131421D01*
X70749Y131339D01*
X70811Y131259D01*
X70876Y131181D01*
X70944Y131106D01*
X71015Y131034D01*
X71088Y130964D01*
X71165Y130898D01*
X71243Y130834D01*
X71325Y130774D01*
X71408Y130717D01*
X71494Y130663D01*
X71582Y130612D01*
X71671Y130565D01*
X71763Y130521D01*
X71856Y130481D01*
X71950Y130444D01*
X72046Y130412D01*
X72143Y130383D01*
X72241Y130357D01*
X72340Y130336D01*
X72440Y130318D01*
X72540Y130305D01*
X72641Y130295D01*
X72742Y130289D01*
X72843Y130287D01*
X72843Y130288D02*
X75454Y130288D01*
X66310Y131332D02*
X63699Y131332D01*
X63699Y131333D02*
X63598Y131331D01*
X63497Y131325D01*
X63396Y131315D01*
X63296Y131302D01*
X63196Y131284D01*
X63097Y131263D01*
X62999Y131237D01*
X62902Y131208D01*
X62806Y131176D01*
X62712Y131139D01*
X62619Y131099D01*
X62527Y131055D01*
X62438Y131008D01*
X62350Y130957D01*
X62264Y130903D01*
X62181Y130846D01*
X62099Y130786D01*
X62021Y130722D01*
X61944Y130656D01*
X61871Y130586D01*
X61800Y130514D01*
X61732Y130439D01*
X61667Y130361D01*
X61605Y130281D01*
X61546Y130199D01*
X61490Y130114D01*
X61438Y130028D01*
X61389Y129939D01*
X61343Y129848D01*
X61302Y129756D01*
X61263Y129662D01*
X61229Y129567D01*
X61198Y129471D01*
X61171Y129373D01*
X61147Y129275D01*
X61128Y129175D01*
X61112Y129075D01*
X61100Y128975D01*
X61092Y128874D01*
X61088Y128773D01*
X61088Y128671D01*
X61092Y128570D01*
X61100Y128469D01*
X61112Y128369D01*
X61128Y128269D01*
X61147Y128169D01*
X61171Y128071D01*
X61198Y127973D01*
X61229Y127877D01*
X61263Y127782D01*
X61302Y127688D01*
X61343Y127596D01*
X61389Y127505D01*
X61438Y127417D01*
X61490Y127330D01*
X61546Y127245D01*
X61605Y127163D01*
X61667Y127083D01*
X61732Y127005D01*
X61800Y126930D01*
X61871Y126858D01*
X61944Y126788D01*
X62021Y126722D01*
X62099Y126658D01*
X62181Y126598D01*
X62264Y126541D01*
X62350Y126487D01*
X62438Y126436D01*
X62527Y126389D01*
X62619Y126345D01*
X62712Y126305D01*
X62806Y126268D01*
X62902Y126236D01*
X62999Y126207D01*
X63097Y126181D01*
X63196Y126160D01*
X63296Y126142D01*
X63396Y126129D01*
X63497Y126119D01*
X63598Y126113D01*
X63699Y126111D01*
X66310Y126111D01*
X66310Y135509D01*
X63699Y135509D01*
X63609Y135507D01*
X63520Y135501D01*
X63430Y135492D01*
X63341Y135478D01*
X63253Y135461D01*
X63166Y135440D01*
X63079Y135415D01*
X62994Y135386D01*
X62910Y135354D01*
X62828Y135319D01*
X62747Y135279D01*
X62668Y135237D01*
X62591Y135191D01*
X62516Y135141D01*
X62443Y135089D01*
X62372Y135033D01*
X62304Y134975D01*
X62239Y134913D01*
X62176Y134849D01*
X62116Y134782D01*
X62059Y134713D01*
X62005Y134641D01*
X61954Y134567D01*
X61906Y134491D01*
X61862Y134413D01*
X61821Y134333D01*
X61783Y134251D01*
X61749Y134168D01*
X61719Y134083D01*
X61692Y133997D01*
X61669Y133911D01*
X61650Y133823D01*
X61635Y133734D01*
X61623Y133645D01*
X61615Y133556D01*
X61611Y133466D01*
X61611Y133376D01*
X61615Y133286D01*
X61623Y133197D01*
X61635Y133108D01*
X61650Y133019D01*
X61669Y132931D01*
X61692Y132845D01*
X61719Y132759D01*
X61749Y132674D01*
X61783Y132591D01*
X61821Y132509D01*
X61862Y132429D01*
X61906Y132351D01*
X61954Y132275D01*
X62005Y132201D01*
X62059Y132129D01*
X62116Y132060D01*
X62176Y131993D01*
X62239Y131929D01*
X62304Y131867D01*
X62372Y131809D01*
X62443Y131753D01*
X62516Y131701D01*
X62591Y131651D01*
X62668Y131605D01*
X62747Y131563D01*
X62828Y131523D01*
X62910Y131488D01*
X62994Y131456D01*
X63079Y131427D01*
X63166Y131402D01*
X63253Y131381D01*
X63341Y131364D01*
X63430Y131350D01*
X63520Y131341D01*
X63609Y131335D01*
X63699Y131333D01*
X57689Y130288D02*
X57689Y128199D01*
X57689Y130288D02*
X57687Y130378D01*
X57681Y130467D01*
X57672Y130557D01*
X57658Y130646D01*
X57641Y130734D01*
X57620Y130821D01*
X57595Y130908D01*
X57566Y130993D01*
X57534Y131077D01*
X57499Y131159D01*
X57459Y131240D01*
X57417Y131319D01*
X57371Y131396D01*
X57321Y131471D01*
X57269Y131544D01*
X57213Y131615D01*
X57155Y131683D01*
X57093Y131748D01*
X57029Y131811D01*
X56962Y131871D01*
X56893Y131928D01*
X56821Y131982D01*
X56747Y132033D01*
X56671Y132081D01*
X56593Y132125D01*
X56513Y132166D01*
X56431Y132204D01*
X56348Y132238D01*
X56263Y132268D01*
X56177Y132295D01*
X56091Y132318D01*
X56003Y132337D01*
X55914Y132352D01*
X55825Y132364D01*
X55736Y132372D01*
X55646Y132376D01*
X55556Y132376D01*
X55466Y132372D01*
X55377Y132364D01*
X55288Y132352D01*
X55199Y132337D01*
X55111Y132318D01*
X55025Y132295D01*
X54939Y132268D01*
X54854Y132238D01*
X54771Y132204D01*
X54689Y132166D01*
X54609Y132125D01*
X54531Y132081D01*
X54455Y132033D01*
X54381Y131982D01*
X54309Y131928D01*
X54240Y131871D01*
X54173Y131811D01*
X54109Y131748D01*
X54047Y131683D01*
X53989Y131615D01*
X53933Y131544D01*
X53881Y131471D01*
X53831Y131396D01*
X53785Y131319D01*
X53743Y131240D01*
X53703Y131159D01*
X53668Y131077D01*
X53636Y130993D01*
X53607Y130908D01*
X53582Y130821D01*
X53561Y130734D01*
X53544Y130646D01*
X53530Y130557D01*
X53521Y130467D01*
X53515Y130378D01*
X53513Y130288D01*
X53513Y128199D01*
X53515Y128109D01*
X53521Y128020D01*
X53530Y127930D01*
X53544Y127841D01*
X53561Y127753D01*
X53582Y127666D01*
X53607Y127579D01*
X53636Y127494D01*
X53668Y127410D01*
X53703Y127328D01*
X53743Y127247D01*
X53785Y127168D01*
X53831Y127091D01*
X53881Y127016D01*
X53933Y126943D01*
X53989Y126872D01*
X54047Y126804D01*
X54109Y126739D01*
X54173Y126676D01*
X54240Y126616D01*
X54309Y126559D01*
X54381Y126505D01*
X54455Y126454D01*
X54531Y126406D01*
X54609Y126362D01*
X54689Y126321D01*
X54771Y126283D01*
X54854Y126249D01*
X54939Y126219D01*
X55025Y126192D01*
X55111Y126169D01*
X55199Y126150D01*
X55288Y126135D01*
X55377Y126123D01*
X55466Y126115D01*
X55556Y126111D01*
X55646Y126111D01*
X55736Y126115D01*
X55825Y126123D01*
X55914Y126135D01*
X56003Y126150D01*
X56091Y126169D01*
X56177Y126192D01*
X56263Y126219D01*
X56348Y126249D01*
X56431Y126283D01*
X56513Y126321D01*
X56593Y126362D01*
X56671Y126406D01*
X56747Y126454D01*
X56821Y126505D01*
X56893Y126559D01*
X56962Y126616D01*
X57029Y126676D01*
X57093Y126739D01*
X57155Y126804D01*
X57213Y126872D01*
X57269Y126943D01*
X57321Y127016D01*
X57371Y127091D01*
X57417Y127168D01*
X57459Y127247D01*
X57499Y127328D01*
X57534Y127410D01*
X57566Y127494D01*
X57595Y127579D01*
X57620Y127666D01*
X57641Y127753D01*
X57658Y127841D01*
X57672Y127930D01*
X57681Y128020D01*
X57687Y128109D01*
X57689Y128199D01*
X49765Y128199D02*
X49765Y130288D01*
X49764Y130288D02*
X49762Y130378D01*
X49756Y130467D01*
X49747Y130557D01*
X49733Y130646D01*
X49716Y130734D01*
X49695Y130821D01*
X49670Y130908D01*
X49641Y130993D01*
X49609Y131077D01*
X49574Y131159D01*
X49534Y131240D01*
X49492Y131319D01*
X49446Y131396D01*
X49396Y131471D01*
X49344Y131544D01*
X49288Y131615D01*
X49230Y131683D01*
X49168Y131748D01*
X49104Y131811D01*
X49037Y131871D01*
X48968Y131928D01*
X48896Y131982D01*
X48822Y132033D01*
X48746Y132081D01*
X48668Y132125D01*
X48588Y132166D01*
X48506Y132204D01*
X48423Y132238D01*
X48338Y132268D01*
X48252Y132295D01*
X48166Y132318D01*
X48078Y132337D01*
X47989Y132352D01*
X47900Y132364D01*
X47811Y132372D01*
X47721Y132376D01*
X47631Y132376D01*
X47541Y132372D01*
X47452Y132364D01*
X47363Y132352D01*
X47274Y132337D01*
X47186Y132318D01*
X47100Y132295D01*
X47014Y132268D01*
X46929Y132238D01*
X46846Y132204D01*
X46764Y132166D01*
X46684Y132125D01*
X46606Y132081D01*
X46530Y132033D01*
X46456Y131982D01*
X46384Y131928D01*
X46315Y131871D01*
X46248Y131811D01*
X46184Y131748D01*
X46122Y131683D01*
X46064Y131615D01*
X46008Y131544D01*
X45956Y131471D01*
X45906Y131396D01*
X45860Y131319D01*
X45818Y131240D01*
X45778Y131159D01*
X45743Y131077D01*
X45711Y130993D01*
X45682Y130908D01*
X45657Y130821D01*
X45636Y130734D01*
X45619Y130646D01*
X45605Y130557D01*
X45596Y130467D01*
X45590Y130378D01*
X45588Y130288D01*
X45588Y128199D01*
X45590Y128109D01*
X45596Y128020D01*
X45605Y127930D01*
X45619Y127841D01*
X45636Y127753D01*
X45657Y127666D01*
X45682Y127579D01*
X45711Y127494D01*
X45743Y127410D01*
X45778Y127328D01*
X45818Y127247D01*
X45860Y127168D01*
X45906Y127091D01*
X45956Y127016D01*
X46008Y126943D01*
X46064Y126872D01*
X46122Y126804D01*
X46184Y126739D01*
X46248Y126676D01*
X46315Y126616D01*
X46384Y126559D01*
X46456Y126505D01*
X46530Y126454D01*
X46606Y126406D01*
X46684Y126362D01*
X46764Y126321D01*
X46846Y126283D01*
X46929Y126249D01*
X47014Y126219D01*
X47100Y126192D01*
X47186Y126169D01*
X47274Y126150D01*
X47363Y126135D01*
X47452Y126123D01*
X47541Y126115D01*
X47631Y126111D01*
X47721Y126111D01*
X47811Y126115D01*
X47900Y126123D01*
X47989Y126135D01*
X48078Y126150D01*
X48166Y126169D01*
X48252Y126192D01*
X48338Y126219D01*
X48423Y126249D01*
X48506Y126283D01*
X48588Y126321D01*
X48668Y126362D01*
X48746Y126406D01*
X48822Y126454D01*
X48896Y126505D01*
X48968Y126559D01*
X49037Y126616D01*
X49104Y126676D01*
X49168Y126739D01*
X49230Y126804D01*
X49288Y126872D01*
X49344Y126943D01*
X49396Y127016D01*
X49446Y127091D01*
X49492Y127168D01*
X49534Y127247D01*
X49574Y127328D01*
X49609Y127410D01*
X49641Y127494D01*
X49670Y127579D01*
X49695Y127666D01*
X49716Y127753D01*
X49733Y127841D01*
X49747Y127930D01*
X49756Y128020D01*
X49762Y128109D01*
X49764Y128199D01*
X41057Y129766D02*
X38446Y128722D01*
X41057Y129766D02*
X41123Y129794D01*
X41188Y129827D01*
X41251Y129862D01*
X41312Y129901D01*
X41371Y129943D01*
X41427Y129988D01*
X41481Y130036D01*
X41532Y130087D01*
X41581Y130140D01*
X41626Y130197D01*
X41669Y130255D01*
X41708Y130315D01*
X41745Y130378D01*
X41777Y130443D01*
X41806Y130509D01*
X41832Y130576D01*
X41854Y130645D01*
X41872Y130715D01*
X41887Y130786D01*
X41898Y130857D01*
X41905Y130929D01*
X41908Y131001D01*
X41907Y131073D01*
X41902Y131146D01*
X41894Y131217D01*
X41882Y131289D01*
X41866Y131359D01*
X41846Y131428D01*
X41822Y131497D01*
X41795Y131564D01*
X41765Y131629D01*
X41731Y131693D01*
X41693Y131755D01*
X41653Y131815D01*
X41609Y131872D01*
X41562Y131927D01*
X41512Y131980D01*
X41460Y132029D01*
X41405Y132076D01*
X41348Y132120D01*
X41288Y132161D01*
X41226Y132198D01*
X41162Y132233D01*
X41097Y132263D01*
X41030Y132291D01*
X40962Y132314D01*
X40892Y132334D01*
X40822Y132350D01*
X40751Y132363D01*
X40679Y132371D01*
X40607Y132376D01*
X40535Y132377D01*
X40534Y132376D02*
X40383Y132372D01*
X40232Y132364D01*
X40081Y132353D01*
X39930Y132337D01*
X39780Y132317D01*
X39630Y132294D01*
X39481Y132267D01*
X39333Y132236D01*
X39185Y132201D01*
X39039Y132163D01*
X38893Y132120D01*
X38749Y132074D01*
X38606Y132025D01*
X38464Y131972D01*
X38324Y131915D01*
X38185Y131854D01*
X38446Y128722D02*
X38380Y128694D01*
X38315Y128661D01*
X38252Y128626D01*
X38191Y128587D01*
X38132Y128545D01*
X38076Y128500D01*
X38022Y128452D01*
X37971Y128401D01*
X37922Y128348D01*
X37877Y128291D01*
X37834Y128233D01*
X37795Y128173D01*
X37758Y128110D01*
X37726Y128045D01*
X37697Y127979D01*
X37671Y127912D01*
X37649Y127843D01*
X37631Y127773D01*
X37616Y127702D01*
X37605Y127631D01*
X37598Y127559D01*
X37595Y127487D01*
X37596Y127415D01*
X37601Y127342D01*
X37609Y127271D01*
X37621Y127199D01*
X37637Y127129D01*
X37657Y127060D01*
X37681Y126991D01*
X37708Y126924D01*
X37738Y126859D01*
X37772Y126795D01*
X37810Y126733D01*
X37850Y126673D01*
X37894Y126616D01*
X37941Y126561D01*
X37991Y126508D01*
X38043Y126459D01*
X38098Y126412D01*
X38155Y126368D01*
X38215Y126327D01*
X38277Y126290D01*
X38341Y126255D01*
X38406Y126225D01*
X38473Y126197D01*
X38541Y126174D01*
X38611Y126154D01*
X38681Y126138D01*
X38752Y126125D01*
X38824Y126117D01*
X38896Y126112D01*
X38968Y126111D01*
X39178Y126116D01*
X39387Y126127D01*
X39596Y126142D01*
X39804Y126162D01*
X40012Y126188D01*
X40219Y126218D01*
X40426Y126253D01*
X40631Y126293D01*
X40836Y126337D01*
X41039Y126387D01*
X41242Y126441D01*
X41443Y126501D01*
X41642Y126564D01*
X41840Y126633D01*
X34684Y132376D02*
X31551Y132376D01*
X33640Y135509D02*
X33640Y127677D01*
X33639Y127677D02*
X33637Y127600D01*
X33631Y127524D01*
X33622Y127447D01*
X33609Y127371D01*
X33592Y127296D01*
X33572Y127222D01*
X33547Y127149D01*
X33520Y127078D01*
X33489Y127007D01*
X33454Y126939D01*
X33416Y126872D01*
X33375Y126807D01*
X33331Y126744D01*
X33284Y126684D01*
X33233Y126625D01*
X33180Y126570D01*
X33125Y126517D01*
X33066Y126466D01*
X33006Y126419D01*
X32943Y126375D01*
X32878Y126334D01*
X32811Y126296D01*
X32743Y126261D01*
X32672Y126230D01*
X32601Y126203D01*
X32528Y126178D01*
X32454Y126158D01*
X32379Y126141D01*
X32303Y126128D01*
X32226Y126119D01*
X32150Y126113D01*
X32073Y126111D01*
X31551Y126111D01*
X124895Y478155D02*
X126983Y478155D01*
X127072Y478157D01*
X127160Y478163D01*
X127248Y478172D01*
X127336Y478185D01*
X127423Y478202D01*
X127509Y478222D01*
X127594Y478247D01*
X127679Y478274D01*
X127762Y478306D01*
X127843Y478340D01*
X127923Y478379D01*
X128001Y478420D01*
X128078Y478465D01*
X128152Y478513D01*
X128225Y478564D01*
X128295Y478618D01*
X128362Y478676D01*
X128428Y478736D01*
X128490Y478798D01*
X128550Y478864D01*
X128608Y478931D01*
X128662Y479001D01*
X128713Y479074D01*
X128761Y479148D01*
X128806Y479225D01*
X128847Y479303D01*
X128886Y479383D01*
X128920Y479464D01*
X128952Y479547D01*
X128979Y479632D01*
X129004Y479717D01*
X129024Y479803D01*
X129041Y479890D01*
X129054Y479978D01*
X129063Y480066D01*
X129069Y480154D01*
X129071Y480243D01*
X129072Y480243D02*
X129072Y485465D01*
X129071Y485465D02*
X129069Y485554D01*
X129063Y485642D01*
X129054Y485730D01*
X129041Y485818D01*
X129024Y485905D01*
X129004Y485991D01*
X128979Y486076D01*
X128952Y486161D01*
X128920Y486244D01*
X128886Y486325D01*
X128847Y486405D01*
X128806Y486483D01*
X128761Y486560D01*
X128713Y486634D01*
X128662Y486707D01*
X128608Y486777D01*
X128550Y486844D01*
X128490Y486910D01*
X128428Y486972D01*
X128362Y487032D01*
X128295Y487090D01*
X128225Y487144D01*
X128152Y487195D01*
X128078Y487243D01*
X128001Y487288D01*
X127923Y487329D01*
X127843Y487368D01*
X127762Y487402D01*
X127679Y487434D01*
X127594Y487461D01*
X127509Y487486D01*
X127423Y487506D01*
X127336Y487523D01*
X127248Y487536D01*
X127160Y487545D01*
X127072Y487551D01*
X126983Y487553D01*
X124895Y487553D01*
X121426Y485465D02*
X118816Y487553D01*
X118816Y478155D01*
X121426Y478155D02*
X116205Y478155D01*
X112282Y478155D02*
X109672Y478155D01*
X109571Y478157D01*
X109470Y478163D01*
X109369Y478173D01*
X109269Y478186D01*
X109169Y478204D01*
X109070Y478225D01*
X108972Y478251D01*
X108875Y478280D01*
X108779Y478312D01*
X108685Y478349D01*
X108592Y478389D01*
X108500Y478433D01*
X108411Y478480D01*
X108323Y478531D01*
X108237Y478585D01*
X108154Y478642D01*
X108072Y478702D01*
X107994Y478766D01*
X107917Y478832D01*
X107844Y478902D01*
X107773Y478974D01*
X107705Y479049D01*
X107640Y479127D01*
X107578Y479207D01*
X107519Y479289D01*
X107463Y479374D01*
X107411Y479461D01*
X107362Y479549D01*
X107316Y479640D01*
X107275Y479732D01*
X107236Y479826D01*
X107202Y479921D01*
X107171Y480017D01*
X107144Y480115D01*
X107120Y480213D01*
X107101Y480313D01*
X107085Y480413D01*
X107073Y480513D01*
X107065Y480614D01*
X107061Y480715D01*
X107061Y480817D01*
X107065Y480918D01*
X107073Y481019D01*
X107085Y481119D01*
X107101Y481219D01*
X107120Y481319D01*
X107144Y481417D01*
X107171Y481515D01*
X107202Y481611D01*
X107236Y481706D01*
X107275Y481800D01*
X107316Y481892D01*
X107362Y481983D01*
X107411Y482072D01*
X107463Y482158D01*
X107519Y482243D01*
X107578Y482325D01*
X107640Y482405D01*
X107705Y482483D01*
X107773Y482558D01*
X107844Y482630D01*
X107917Y482700D01*
X107994Y482766D01*
X108072Y482830D01*
X108154Y482890D01*
X108237Y482947D01*
X108323Y483001D01*
X108411Y483052D01*
X108500Y483099D01*
X108592Y483143D01*
X108685Y483183D01*
X108779Y483220D01*
X108875Y483252D01*
X108972Y483281D01*
X109070Y483307D01*
X109169Y483328D01*
X109269Y483346D01*
X109369Y483359D01*
X109470Y483369D01*
X109571Y483375D01*
X109672Y483377D01*
X109149Y487553D02*
X112282Y487553D01*
X109149Y487553D02*
X109059Y487551D01*
X108970Y487545D01*
X108880Y487536D01*
X108791Y487522D01*
X108703Y487505D01*
X108616Y487484D01*
X108529Y487459D01*
X108444Y487430D01*
X108360Y487398D01*
X108278Y487363D01*
X108197Y487323D01*
X108118Y487281D01*
X108041Y487235D01*
X107966Y487185D01*
X107893Y487133D01*
X107822Y487077D01*
X107754Y487019D01*
X107689Y486957D01*
X107626Y486893D01*
X107566Y486826D01*
X107509Y486757D01*
X107455Y486685D01*
X107404Y486611D01*
X107356Y486535D01*
X107312Y486457D01*
X107271Y486377D01*
X107233Y486295D01*
X107199Y486212D01*
X107169Y486127D01*
X107142Y486041D01*
X107119Y485955D01*
X107100Y485867D01*
X107085Y485778D01*
X107073Y485689D01*
X107065Y485600D01*
X107061Y485510D01*
X107061Y485420D01*
X107065Y485330D01*
X107073Y485241D01*
X107085Y485152D01*
X107100Y485063D01*
X107119Y484975D01*
X107142Y484889D01*
X107169Y484803D01*
X107199Y484718D01*
X107233Y484635D01*
X107271Y484553D01*
X107312Y484473D01*
X107356Y484395D01*
X107404Y484319D01*
X107455Y484245D01*
X107509Y484173D01*
X107566Y484104D01*
X107626Y484037D01*
X107689Y483973D01*
X107754Y483911D01*
X107822Y483853D01*
X107893Y483797D01*
X107966Y483745D01*
X108041Y483695D01*
X108118Y483649D01*
X108197Y483607D01*
X108278Y483567D01*
X108360Y483532D01*
X108444Y483500D01*
X108529Y483471D01*
X108616Y483446D01*
X108703Y483425D01*
X108791Y483408D01*
X108880Y483394D01*
X108970Y483385D01*
X109059Y483379D01*
X109149Y483377D01*
X109149Y483376D02*
X111238Y483376D01*
X152835Y478155D02*
X154923Y478155D01*
X155012Y478157D01*
X155100Y478163D01*
X155188Y478172D01*
X155276Y478185D01*
X155363Y478202D01*
X155449Y478222D01*
X155534Y478247D01*
X155619Y478274D01*
X155702Y478306D01*
X155783Y478340D01*
X155863Y478379D01*
X155941Y478420D01*
X156018Y478465D01*
X156092Y478513D01*
X156165Y478564D01*
X156235Y478618D01*
X156302Y478676D01*
X156368Y478736D01*
X156430Y478798D01*
X156490Y478864D01*
X156548Y478931D01*
X156602Y479001D01*
X156653Y479074D01*
X156701Y479148D01*
X156746Y479225D01*
X156787Y479303D01*
X156826Y479383D01*
X156860Y479464D01*
X156892Y479547D01*
X156919Y479632D01*
X156944Y479717D01*
X156964Y479803D01*
X156981Y479890D01*
X156994Y479978D01*
X157003Y480066D01*
X157009Y480154D01*
X157011Y480243D01*
X157012Y480243D02*
X157012Y485465D01*
X157011Y485465D02*
X157009Y485554D01*
X157003Y485642D01*
X156994Y485730D01*
X156981Y485818D01*
X156964Y485905D01*
X156944Y485991D01*
X156919Y486076D01*
X156892Y486161D01*
X156860Y486244D01*
X156826Y486325D01*
X156787Y486405D01*
X156746Y486483D01*
X156701Y486560D01*
X156653Y486634D01*
X156602Y486707D01*
X156548Y486777D01*
X156490Y486844D01*
X156430Y486910D01*
X156368Y486972D01*
X156302Y487032D01*
X156235Y487090D01*
X156165Y487144D01*
X156092Y487195D01*
X156018Y487243D01*
X155941Y487288D01*
X155863Y487329D01*
X155783Y487368D01*
X155702Y487402D01*
X155619Y487434D01*
X155534Y487461D01*
X155449Y487486D01*
X155363Y487506D01*
X155276Y487523D01*
X155188Y487536D01*
X155100Y487545D01*
X155012Y487551D01*
X154923Y487553D01*
X152835Y487553D01*
X149366Y485465D02*
X146756Y487553D01*
X146756Y478155D01*
X149366Y478155D02*
X144145Y478155D01*
X140222Y480243D02*
X138134Y487553D01*
X140222Y480243D02*
X135001Y480243D01*
X136567Y482332D02*
X136567Y478155D01*
X66111Y89281D02*
X64022Y89281D01*
X66111Y89281D02*
X66200Y89283D01*
X66288Y89289D01*
X66376Y89298D01*
X66464Y89311D01*
X66551Y89328D01*
X66637Y89348D01*
X66722Y89373D01*
X66807Y89400D01*
X66890Y89432D01*
X66971Y89466D01*
X67051Y89505D01*
X67129Y89546D01*
X67206Y89591D01*
X67280Y89639D01*
X67353Y89690D01*
X67423Y89744D01*
X67490Y89802D01*
X67556Y89862D01*
X67618Y89924D01*
X67678Y89990D01*
X67736Y90057D01*
X67790Y90127D01*
X67841Y90200D01*
X67889Y90274D01*
X67934Y90351D01*
X67975Y90429D01*
X68014Y90509D01*
X68048Y90590D01*
X68080Y90673D01*
X68107Y90758D01*
X68132Y90843D01*
X68152Y90929D01*
X68169Y91016D01*
X68182Y91104D01*
X68191Y91192D01*
X68197Y91280D01*
X68199Y91369D01*
X68199Y96591D01*
X68197Y96680D01*
X68191Y96768D01*
X68182Y96856D01*
X68169Y96944D01*
X68152Y97031D01*
X68132Y97117D01*
X68107Y97202D01*
X68080Y97287D01*
X68048Y97370D01*
X68014Y97451D01*
X67975Y97531D01*
X67934Y97609D01*
X67889Y97686D01*
X67841Y97760D01*
X67790Y97833D01*
X67736Y97903D01*
X67678Y97970D01*
X67618Y98036D01*
X67556Y98098D01*
X67490Y98158D01*
X67423Y98216D01*
X67353Y98270D01*
X67280Y98321D01*
X67206Y98369D01*
X67129Y98414D01*
X67051Y98455D01*
X66971Y98494D01*
X66890Y98528D01*
X66807Y98560D01*
X66722Y98587D01*
X66637Y98612D01*
X66551Y98632D01*
X66464Y98649D01*
X66376Y98662D01*
X66288Y98671D01*
X66200Y98677D01*
X66111Y98679D01*
X64022Y98679D01*
X60553Y96591D02*
X57943Y98679D01*
X57943Y89281D01*
X60553Y89281D02*
X55332Y89281D01*
X51409Y94502D02*
X48277Y94502D01*
X48188Y94500D01*
X48100Y94494D01*
X48012Y94485D01*
X47924Y94472D01*
X47837Y94455D01*
X47751Y94435D01*
X47666Y94410D01*
X47581Y94383D01*
X47498Y94351D01*
X47417Y94317D01*
X47337Y94278D01*
X47259Y94237D01*
X47182Y94192D01*
X47108Y94144D01*
X47035Y94093D01*
X46965Y94039D01*
X46898Y93981D01*
X46832Y93921D01*
X46770Y93859D01*
X46710Y93793D01*
X46652Y93726D01*
X46598Y93656D01*
X46547Y93583D01*
X46499Y93509D01*
X46454Y93432D01*
X46413Y93354D01*
X46374Y93274D01*
X46340Y93193D01*
X46308Y93110D01*
X46281Y93025D01*
X46256Y92940D01*
X46236Y92854D01*
X46219Y92767D01*
X46206Y92679D01*
X46197Y92591D01*
X46191Y92503D01*
X46189Y92414D01*
X46188Y92414D02*
X46188Y91892D01*
X46190Y91791D01*
X46196Y91690D01*
X46206Y91589D01*
X46219Y91489D01*
X46237Y91389D01*
X46258Y91290D01*
X46284Y91192D01*
X46313Y91095D01*
X46345Y90999D01*
X46382Y90905D01*
X46422Y90812D01*
X46466Y90720D01*
X46513Y90631D01*
X46564Y90543D01*
X46618Y90457D01*
X46675Y90374D01*
X46735Y90292D01*
X46799Y90214D01*
X46865Y90137D01*
X46935Y90064D01*
X47007Y89993D01*
X47082Y89925D01*
X47160Y89860D01*
X47240Y89798D01*
X47322Y89739D01*
X47407Y89683D01*
X47493Y89631D01*
X47582Y89582D01*
X47673Y89536D01*
X47765Y89495D01*
X47859Y89456D01*
X47954Y89422D01*
X48050Y89391D01*
X48148Y89364D01*
X48246Y89340D01*
X48346Y89321D01*
X48446Y89305D01*
X48546Y89293D01*
X48647Y89285D01*
X48748Y89281D01*
X48850Y89281D01*
X48951Y89285D01*
X49052Y89293D01*
X49152Y89305D01*
X49252Y89321D01*
X49352Y89340D01*
X49450Y89364D01*
X49548Y89391D01*
X49644Y89422D01*
X49739Y89456D01*
X49833Y89495D01*
X49925Y89536D01*
X50016Y89582D01*
X50104Y89631D01*
X50191Y89683D01*
X50276Y89739D01*
X50358Y89798D01*
X50438Y89860D01*
X50516Y89925D01*
X50591Y89993D01*
X50663Y90064D01*
X50733Y90137D01*
X50799Y90214D01*
X50863Y90292D01*
X50923Y90374D01*
X50980Y90457D01*
X51034Y90543D01*
X51085Y90631D01*
X51132Y90720D01*
X51176Y90812D01*
X51216Y90905D01*
X51253Y90999D01*
X51285Y91095D01*
X51314Y91192D01*
X51340Y91290D01*
X51361Y91389D01*
X51379Y91489D01*
X51392Y91589D01*
X51402Y91690D01*
X51408Y91791D01*
X51410Y91892D01*
X51409Y91892D02*
X51409Y94502D01*
X51407Y94628D01*
X51401Y94754D01*
X51392Y94880D01*
X51379Y95005D01*
X51361Y95130D01*
X51341Y95255D01*
X51316Y95379D01*
X51288Y95502D01*
X51256Y95624D01*
X51220Y95745D01*
X51181Y95865D01*
X51138Y95983D01*
X51091Y96100D01*
X51041Y96216D01*
X50987Y96331D01*
X50931Y96443D01*
X50870Y96554D01*
X50807Y96663D01*
X50740Y96770D01*
X50670Y96875D01*
X50596Y96978D01*
X50520Y97078D01*
X50441Y97176D01*
X50359Y97272D01*
X50273Y97365D01*
X50186Y97456D01*
X50095Y97543D01*
X50002Y97629D01*
X49906Y97711D01*
X49808Y97790D01*
X49708Y97866D01*
X49605Y97940D01*
X49500Y98010D01*
X49393Y98077D01*
X49284Y98140D01*
X49173Y98201D01*
X49061Y98257D01*
X48946Y98311D01*
X48830Y98361D01*
X48713Y98408D01*
X48595Y98451D01*
X48475Y98490D01*
X48354Y98526D01*
X48232Y98558D01*
X48109Y98586D01*
X47985Y98611D01*
X47860Y98631D01*
X47735Y98649D01*
X47610Y98662D01*
X47484Y98671D01*
X47358Y98677D01*
X47232Y98679D01*
X197031Y71501D02*
X199119Y71501D01*
X199208Y71503D01*
X199296Y71509D01*
X199384Y71518D01*
X199472Y71531D01*
X199559Y71548D01*
X199645Y71568D01*
X199730Y71593D01*
X199815Y71620D01*
X199898Y71652D01*
X199979Y71686D01*
X200059Y71725D01*
X200137Y71766D01*
X200214Y71811D01*
X200288Y71859D01*
X200361Y71910D01*
X200431Y71964D01*
X200498Y72022D01*
X200564Y72082D01*
X200626Y72144D01*
X200686Y72210D01*
X200744Y72277D01*
X200798Y72347D01*
X200849Y72420D01*
X200897Y72494D01*
X200942Y72571D01*
X200983Y72649D01*
X201022Y72729D01*
X201056Y72810D01*
X201088Y72893D01*
X201115Y72978D01*
X201140Y73063D01*
X201160Y73149D01*
X201177Y73236D01*
X201190Y73324D01*
X201199Y73412D01*
X201205Y73500D01*
X201207Y73589D01*
X201208Y73589D02*
X201208Y78811D01*
X201207Y78811D02*
X201205Y78900D01*
X201199Y78988D01*
X201190Y79076D01*
X201177Y79164D01*
X201160Y79251D01*
X201140Y79337D01*
X201115Y79422D01*
X201088Y79507D01*
X201056Y79590D01*
X201022Y79671D01*
X200983Y79751D01*
X200942Y79829D01*
X200897Y79906D01*
X200849Y79980D01*
X200798Y80053D01*
X200744Y80123D01*
X200686Y80190D01*
X200626Y80256D01*
X200564Y80318D01*
X200498Y80378D01*
X200431Y80436D01*
X200361Y80490D01*
X200288Y80541D01*
X200214Y80589D01*
X200137Y80634D01*
X200059Y80675D01*
X199979Y80714D01*
X199898Y80748D01*
X199815Y80780D01*
X199730Y80807D01*
X199645Y80832D01*
X199559Y80852D01*
X199472Y80869D01*
X199384Y80882D01*
X199296Y80891D01*
X199208Y80897D01*
X199119Y80899D01*
X197031Y80899D01*
X190691Y80900D02*
X190596Y80898D01*
X190502Y80892D01*
X190408Y80883D01*
X190314Y80870D01*
X190221Y80853D01*
X190129Y80832D01*
X190037Y80807D01*
X189947Y80779D01*
X189858Y80747D01*
X189770Y80712D01*
X189684Y80673D01*
X189599Y80631D01*
X189516Y80585D01*
X189435Y80536D01*
X189356Y80484D01*
X189279Y80429D01*
X189205Y80370D01*
X189133Y80309D01*
X189063Y80245D01*
X188996Y80178D01*
X188932Y80108D01*
X188871Y80036D01*
X188812Y79962D01*
X188757Y79885D01*
X188705Y79806D01*
X188656Y79725D01*
X188610Y79642D01*
X188568Y79557D01*
X188529Y79471D01*
X188494Y79383D01*
X188462Y79294D01*
X188434Y79204D01*
X188409Y79112D01*
X188388Y79020D01*
X188371Y78927D01*
X188358Y78833D01*
X188349Y78739D01*
X188343Y78645D01*
X188341Y78550D01*
X190691Y80899D02*
X190799Y80897D01*
X190908Y80891D01*
X191016Y80881D01*
X191123Y80868D01*
X191230Y80850D01*
X191337Y80829D01*
X191442Y80804D01*
X191547Y80775D01*
X191650Y80743D01*
X191752Y80706D01*
X191853Y80666D01*
X191952Y80623D01*
X192050Y80576D01*
X192146Y80525D01*
X192240Y80471D01*
X192332Y80414D01*
X192422Y80353D01*
X192510Y80289D01*
X192595Y80223D01*
X192678Y80153D01*
X192758Y80080D01*
X192836Y80004D01*
X192911Y79926D01*
X192983Y79845D01*
X193052Y79761D01*
X193118Y79675D01*
X193181Y79587D01*
X193240Y79496D01*
X193297Y79404D01*
X193350Y79309D01*
X193399Y79212D01*
X193445Y79114D01*
X193488Y79015D01*
X193527Y78913D01*
X193562Y78811D01*
X189124Y76722D02*
X189055Y76791D01*
X188989Y76862D01*
X188925Y76935D01*
X188864Y77011D01*
X188806Y77090D01*
X188752Y77170D01*
X188700Y77253D01*
X188652Y77337D01*
X188606Y77423D01*
X188565Y77511D01*
X188526Y77601D01*
X188491Y77692D01*
X188460Y77784D01*
X188432Y77877D01*
X188408Y77971D01*
X188388Y78066D01*
X188371Y78162D01*
X188358Y78259D01*
X188349Y78356D01*
X188343Y78453D01*
X188341Y78550D01*
X189124Y76722D02*
X193562Y71501D01*
X188341Y71501D01*
X222431Y256921D02*
X224519Y256921D01*
X224608Y256923D01*
X224696Y256929D01*
X224784Y256938D01*
X224872Y256951D01*
X224959Y256968D01*
X225045Y256988D01*
X225130Y257013D01*
X225215Y257040D01*
X225298Y257072D01*
X225379Y257106D01*
X225459Y257145D01*
X225537Y257186D01*
X225614Y257231D01*
X225688Y257279D01*
X225761Y257330D01*
X225831Y257384D01*
X225898Y257442D01*
X225964Y257502D01*
X226026Y257564D01*
X226086Y257630D01*
X226144Y257697D01*
X226198Y257767D01*
X226249Y257840D01*
X226297Y257914D01*
X226342Y257991D01*
X226383Y258069D01*
X226422Y258149D01*
X226456Y258230D01*
X226488Y258313D01*
X226515Y258398D01*
X226540Y258483D01*
X226560Y258569D01*
X226577Y258656D01*
X226590Y258744D01*
X226599Y258832D01*
X226605Y258920D01*
X226607Y259009D01*
X226608Y259009D02*
X226608Y264231D01*
X226607Y264231D02*
X226605Y264320D01*
X226599Y264408D01*
X226590Y264496D01*
X226577Y264584D01*
X226560Y264671D01*
X226540Y264757D01*
X226515Y264842D01*
X226488Y264927D01*
X226456Y265010D01*
X226422Y265091D01*
X226383Y265171D01*
X226342Y265249D01*
X226297Y265326D01*
X226249Y265400D01*
X226198Y265473D01*
X226144Y265543D01*
X226086Y265610D01*
X226026Y265676D01*
X225964Y265738D01*
X225898Y265798D01*
X225831Y265856D01*
X225761Y265910D01*
X225688Y265961D01*
X225614Y266009D01*
X225537Y266054D01*
X225459Y266095D01*
X225379Y266134D01*
X225298Y266168D01*
X225215Y266200D01*
X225130Y266227D01*
X225045Y266252D01*
X224959Y266272D01*
X224872Y266289D01*
X224784Y266302D01*
X224696Y266311D01*
X224608Y266317D01*
X224519Y266319D01*
X222431Y266319D01*
X216874Y266319D02*
X218962Y259009D01*
X213741Y259009D01*
X215307Y261098D02*
X215307Y256921D01*
X226949Y115189D02*
X226949Y105791D01*
X226949Y115189D02*
X224338Y115189D01*
X224237Y115187D01*
X224136Y115181D01*
X224035Y115171D01*
X223935Y115158D01*
X223835Y115140D01*
X223736Y115119D01*
X223638Y115093D01*
X223541Y115064D01*
X223445Y115032D01*
X223351Y114995D01*
X223258Y114955D01*
X223166Y114911D01*
X223077Y114864D01*
X222989Y114813D01*
X222903Y114759D01*
X222820Y114702D01*
X222738Y114642D01*
X222660Y114578D01*
X222583Y114512D01*
X222510Y114442D01*
X222439Y114370D01*
X222371Y114295D01*
X222306Y114217D01*
X222244Y114137D01*
X222185Y114055D01*
X222129Y113970D01*
X222077Y113884D01*
X222028Y113795D01*
X221982Y113704D01*
X221941Y113612D01*
X221902Y113518D01*
X221868Y113423D01*
X221837Y113327D01*
X221810Y113229D01*
X221786Y113131D01*
X221767Y113031D01*
X221751Y112931D01*
X221739Y112831D01*
X221731Y112730D01*
X221727Y112629D01*
X221727Y112527D01*
X221731Y112426D01*
X221739Y112325D01*
X221751Y112225D01*
X221767Y112125D01*
X221786Y112025D01*
X221810Y111927D01*
X221837Y111829D01*
X221868Y111733D01*
X221902Y111638D01*
X221941Y111544D01*
X221982Y111452D01*
X222028Y111361D01*
X222077Y111273D01*
X222129Y111186D01*
X222185Y111101D01*
X222244Y111019D01*
X222306Y110939D01*
X222371Y110861D01*
X222439Y110786D01*
X222510Y110714D01*
X222583Y110644D01*
X222660Y110578D01*
X222738Y110514D01*
X222820Y110454D01*
X222903Y110397D01*
X222989Y110343D01*
X223077Y110292D01*
X223166Y110245D01*
X223258Y110201D01*
X223351Y110161D01*
X223445Y110124D01*
X223541Y110092D01*
X223638Y110063D01*
X223736Y110037D01*
X223835Y110016D01*
X223935Y109998D01*
X224035Y109985D01*
X224136Y109975D01*
X224237Y109969D01*
X224338Y109967D01*
X224338Y109968D02*
X226949Y109968D01*
X223816Y109968D02*
X221728Y105791D01*
X217862Y105791D02*
X215252Y105791D01*
X215151Y105793D01*
X215050Y105799D01*
X214949Y105809D01*
X214849Y105822D01*
X214749Y105840D01*
X214650Y105861D01*
X214552Y105887D01*
X214455Y105916D01*
X214359Y105948D01*
X214265Y105985D01*
X214172Y106025D01*
X214080Y106069D01*
X213991Y106116D01*
X213903Y106167D01*
X213817Y106221D01*
X213734Y106278D01*
X213652Y106338D01*
X213574Y106402D01*
X213497Y106468D01*
X213424Y106538D01*
X213353Y106610D01*
X213285Y106685D01*
X213220Y106763D01*
X213158Y106843D01*
X213099Y106925D01*
X213043Y107010D01*
X212991Y107097D01*
X212942Y107185D01*
X212896Y107276D01*
X212855Y107368D01*
X212816Y107462D01*
X212782Y107557D01*
X212751Y107653D01*
X212724Y107751D01*
X212700Y107849D01*
X212681Y107949D01*
X212665Y108049D01*
X212653Y108149D01*
X212645Y108250D01*
X212641Y108351D01*
X212641Y108453D01*
X212645Y108554D01*
X212653Y108655D01*
X212665Y108755D01*
X212681Y108855D01*
X212700Y108955D01*
X212724Y109053D01*
X212751Y109151D01*
X212782Y109247D01*
X212816Y109342D01*
X212855Y109436D01*
X212896Y109528D01*
X212942Y109619D01*
X212991Y109708D01*
X213043Y109794D01*
X213099Y109879D01*
X213158Y109961D01*
X213220Y110041D01*
X213285Y110119D01*
X213353Y110194D01*
X213424Y110266D01*
X213497Y110336D01*
X213574Y110402D01*
X213652Y110466D01*
X213734Y110526D01*
X213817Y110583D01*
X213903Y110637D01*
X213991Y110688D01*
X214080Y110735D01*
X214172Y110779D01*
X214265Y110819D01*
X214359Y110856D01*
X214455Y110888D01*
X214552Y110917D01*
X214650Y110943D01*
X214749Y110964D01*
X214849Y110982D01*
X214949Y110995D01*
X215050Y111005D01*
X215151Y111011D01*
X215252Y111013D01*
X214729Y115189D02*
X217862Y115189D01*
X214729Y115189D02*
X214639Y115187D01*
X214550Y115181D01*
X214460Y115172D01*
X214371Y115158D01*
X214283Y115141D01*
X214196Y115120D01*
X214109Y115095D01*
X214024Y115066D01*
X213940Y115034D01*
X213858Y114999D01*
X213777Y114959D01*
X213698Y114917D01*
X213621Y114871D01*
X213546Y114821D01*
X213473Y114769D01*
X213402Y114713D01*
X213334Y114655D01*
X213269Y114593D01*
X213206Y114529D01*
X213146Y114462D01*
X213089Y114393D01*
X213035Y114321D01*
X212984Y114247D01*
X212936Y114171D01*
X212892Y114093D01*
X212851Y114013D01*
X212813Y113931D01*
X212779Y113848D01*
X212749Y113763D01*
X212722Y113677D01*
X212699Y113591D01*
X212680Y113503D01*
X212665Y113414D01*
X212653Y113325D01*
X212645Y113236D01*
X212641Y113146D01*
X212641Y113056D01*
X212645Y112966D01*
X212653Y112877D01*
X212665Y112788D01*
X212680Y112699D01*
X212699Y112611D01*
X212722Y112525D01*
X212749Y112439D01*
X212779Y112354D01*
X212813Y112271D01*
X212851Y112189D01*
X212892Y112109D01*
X212936Y112031D01*
X212984Y111955D01*
X213035Y111881D01*
X213089Y111809D01*
X213146Y111740D01*
X213206Y111673D01*
X213269Y111609D01*
X213334Y111547D01*
X213402Y111489D01*
X213473Y111433D01*
X213546Y111381D01*
X213621Y111331D01*
X213698Y111285D01*
X213777Y111243D01*
X213858Y111203D01*
X213940Y111168D01*
X214024Y111136D01*
X214109Y111107D01*
X214196Y111082D01*
X214283Y111061D01*
X214371Y111044D01*
X214460Y111030D01*
X214550Y111021D01*
X214639Y111015D01*
X214729Y111013D01*
X214729Y111012D02*
X216818Y111012D01*
D11*
X167890Y185420D02*
X167890Y220980D01*
X167890Y185420D02*
X233430Y185420D01*
X233430Y220980D01*
X167890Y220980D01*
D10*
X164719Y195707D02*
X164719Y188920D01*
X164717Y188819D01*
X164711Y188718D01*
X164701Y188617D01*
X164688Y188517D01*
X164670Y188417D01*
X164649Y188318D01*
X164623Y188220D01*
X164594Y188123D01*
X164562Y188027D01*
X164525Y187933D01*
X164485Y187840D01*
X164441Y187748D01*
X164394Y187659D01*
X164343Y187571D01*
X164289Y187485D01*
X164232Y187402D01*
X164172Y187320D01*
X164108Y187242D01*
X164042Y187165D01*
X163972Y187092D01*
X163900Y187021D01*
X163825Y186953D01*
X163747Y186888D01*
X163667Y186826D01*
X163585Y186767D01*
X163500Y186711D01*
X163413Y186659D01*
X163325Y186610D01*
X163234Y186564D01*
X163142Y186523D01*
X163048Y186484D01*
X162953Y186450D01*
X162857Y186419D01*
X162759Y186392D01*
X162661Y186368D01*
X162561Y186349D01*
X162461Y186333D01*
X162361Y186321D01*
X162260Y186313D01*
X162159Y186309D01*
X162057Y186309D01*
X161956Y186313D01*
X161855Y186321D01*
X161755Y186333D01*
X161655Y186349D01*
X161555Y186368D01*
X161457Y186392D01*
X161359Y186419D01*
X161263Y186450D01*
X161168Y186484D01*
X161074Y186523D01*
X160982Y186564D01*
X160891Y186610D01*
X160803Y186659D01*
X160716Y186711D01*
X160631Y186767D01*
X160549Y186826D01*
X160469Y186888D01*
X160391Y186953D01*
X160316Y187021D01*
X160244Y187092D01*
X160174Y187165D01*
X160108Y187242D01*
X160044Y187320D01*
X159984Y187402D01*
X159927Y187485D01*
X159873Y187571D01*
X159822Y187659D01*
X159775Y187748D01*
X159731Y187840D01*
X159691Y187933D01*
X159654Y188027D01*
X159622Y188123D01*
X159593Y188220D01*
X159567Y188318D01*
X159546Y188417D01*
X159528Y188517D01*
X159515Y188617D01*
X159505Y188718D01*
X159499Y188819D01*
X159497Y188920D01*
X159498Y188920D02*
X159498Y195707D01*
X152399Y195708D02*
X152304Y195706D01*
X152210Y195700D01*
X152116Y195691D01*
X152022Y195678D01*
X151929Y195661D01*
X151837Y195640D01*
X151745Y195615D01*
X151655Y195587D01*
X151566Y195555D01*
X151478Y195520D01*
X151392Y195481D01*
X151307Y195439D01*
X151224Y195393D01*
X151143Y195344D01*
X151064Y195292D01*
X150987Y195237D01*
X150913Y195178D01*
X150841Y195117D01*
X150771Y195053D01*
X150704Y194986D01*
X150640Y194916D01*
X150579Y194844D01*
X150520Y194770D01*
X150465Y194693D01*
X150413Y194614D01*
X150364Y194533D01*
X150318Y194450D01*
X150276Y194365D01*
X150237Y194279D01*
X150202Y194191D01*
X150170Y194102D01*
X150142Y194012D01*
X150117Y193920D01*
X150096Y193828D01*
X150079Y193735D01*
X150066Y193641D01*
X150057Y193547D01*
X150051Y193453D01*
X150049Y193358D01*
X152399Y195707D02*
X152507Y195705D01*
X152616Y195699D01*
X152724Y195689D01*
X152831Y195676D01*
X152938Y195658D01*
X153045Y195637D01*
X153150Y195612D01*
X153255Y195583D01*
X153358Y195551D01*
X153460Y195514D01*
X153561Y195474D01*
X153660Y195431D01*
X153758Y195384D01*
X153854Y195333D01*
X153948Y195279D01*
X154040Y195222D01*
X154130Y195161D01*
X154218Y195097D01*
X154303Y195031D01*
X154386Y194961D01*
X154466Y194888D01*
X154544Y194812D01*
X154619Y194734D01*
X154691Y194653D01*
X154760Y194569D01*
X154826Y194483D01*
X154889Y194395D01*
X154948Y194304D01*
X155005Y194212D01*
X155058Y194117D01*
X155107Y194020D01*
X155153Y193922D01*
X155196Y193823D01*
X155235Y193721D01*
X155270Y193619D01*
X150832Y191530D02*
X150763Y191599D01*
X150697Y191670D01*
X150633Y191743D01*
X150572Y191819D01*
X150514Y191898D01*
X150460Y191978D01*
X150408Y192061D01*
X150360Y192145D01*
X150314Y192231D01*
X150273Y192319D01*
X150234Y192409D01*
X150199Y192500D01*
X150168Y192592D01*
X150140Y192685D01*
X150116Y192779D01*
X150096Y192874D01*
X150079Y192970D01*
X150066Y193067D01*
X150057Y193164D01*
X150051Y193261D01*
X150049Y193358D01*
X150832Y191530D02*
X155270Y186309D01*
X150049Y186309D01*
D12*
X100330Y379222D02*
X57150Y379222D01*
X100330Y418338D02*
X100452Y418336D01*
X100574Y418330D01*
X100696Y418320D01*
X100817Y418307D01*
X100938Y418289D01*
X101058Y418268D01*
X101178Y418242D01*
X101296Y418213D01*
X101414Y418181D01*
X101531Y418144D01*
X101646Y418104D01*
X101760Y418060D01*
X101872Y418012D01*
X101983Y417961D01*
X102092Y417906D01*
X102200Y417848D01*
X102305Y417786D01*
X102408Y417721D01*
X102510Y417653D01*
X102609Y417581D01*
X102705Y417507D01*
X102800Y417429D01*
X102891Y417348D01*
X102981Y417265D01*
X103067Y417179D01*
X103150Y417089D01*
X103231Y416998D01*
X103309Y416903D01*
X103383Y416807D01*
X103455Y416708D01*
X103523Y416606D01*
X103588Y416503D01*
X103650Y416398D01*
X103708Y416290D01*
X103763Y416181D01*
X103814Y416070D01*
X103862Y415958D01*
X103906Y415844D01*
X103946Y415729D01*
X103983Y415612D01*
X104015Y415494D01*
X104044Y415376D01*
X104070Y415256D01*
X104091Y415136D01*
X104109Y415015D01*
X104122Y414894D01*
X104132Y414772D01*
X104138Y414650D01*
X104140Y414528D01*
X57150Y379222D02*
X57028Y379224D01*
X56906Y379230D01*
X56784Y379240D01*
X56663Y379253D01*
X56542Y379271D01*
X56422Y379292D01*
X56302Y379318D01*
X56184Y379347D01*
X56066Y379379D01*
X55949Y379416D01*
X55834Y379456D01*
X55720Y379500D01*
X55608Y379548D01*
X55497Y379599D01*
X55388Y379654D01*
X55280Y379712D01*
X55175Y379774D01*
X55072Y379839D01*
X54970Y379907D01*
X54871Y379979D01*
X54775Y380053D01*
X54680Y380131D01*
X54589Y380212D01*
X54499Y380295D01*
X54413Y380381D01*
X54330Y380471D01*
X54249Y380562D01*
X54171Y380657D01*
X54097Y380753D01*
X54025Y380852D01*
X53957Y380954D01*
X53892Y381057D01*
X53830Y381162D01*
X53772Y381270D01*
X53717Y381379D01*
X53666Y381490D01*
X53618Y381602D01*
X53574Y381716D01*
X53534Y381831D01*
X53497Y381948D01*
X53465Y382066D01*
X53436Y382184D01*
X53410Y382304D01*
X53389Y382424D01*
X53371Y382545D01*
X53358Y382666D01*
X53348Y382788D01*
X53342Y382910D01*
X53340Y383032D01*
X100330Y379222D02*
X100452Y379224D01*
X100574Y379230D01*
X100696Y379240D01*
X100817Y379253D01*
X100938Y379271D01*
X101058Y379292D01*
X101178Y379318D01*
X101296Y379347D01*
X101414Y379379D01*
X101531Y379416D01*
X101646Y379456D01*
X101760Y379500D01*
X101872Y379548D01*
X101983Y379599D01*
X102092Y379654D01*
X102200Y379712D01*
X102305Y379774D01*
X102408Y379839D01*
X102510Y379907D01*
X102609Y379979D01*
X102705Y380053D01*
X102800Y380131D01*
X102891Y380212D01*
X102981Y380295D01*
X103067Y380381D01*
X103150Y380471D01*
X103231Y380562D01*
X103309Y380657D01*
X103383Y380753D01*
X103455Y380852D01*
X103523Y380954D01*
X103588Y381057D01*
X103650Y381162D01*
X103708Y381270D01*
X103763Y381379D01*
X103814Y381490D01*
X103862Y381602D01*
X103906Y381716D01*
X103946Y381831D01*
X103983Y381948D01*
X104015Y382066D01*
X104044Y382184D01*
X104070Y382304D01*
X104091Y382424D01*
X104109Y382545D01*
X104122Y382666D01*
X104132Y382788D01*
X104138Y382910D01*
X104140Y383032D01*
X57150Y418338D02*
X57028Y418336D01*
X56906Y418330D01*
X56784Y418320D01*
X56663Y418307D01*
X56542Y418289D01*
X56422Y418268D01*
X56302Y418242D01*
X56184Y418213D01*
X56066Y418181D01*
X55949Y418144D01*
X55834Y418104D01*
X55720Y418060D01*
X55608Y418012D01*
X55497Y417961D01*
X55388Y417906D01*
X55280Y417848D01*
X55175Y417786D01*
X55072Y417721D01*
X54970Y417653D01*
X54871Y417581D01*
X54775Y417507D01*
X54680Y417429D01*
X54589Y417348D01*
X54499Y417265D01*
X54413Y417179D01*
X54330Y417089D01*
X54249Y416998D01*
X54171Y416903D01*
X54097Y416807D01*
X54025Y416708D01*
X53957Y416606D01*
X53892Y416503D01*
X53830Y416398D01*
X53772Y416290D01*
X53717Y416181D01*
X53666Y416070D01*
X53618Y415958D01*
X53574Y415844D01*
X53534Y415729D01*
X53497Y415612D01*
X53465Y415494D01*
X53436Y415376D01*
X53410Y415256D01*
X53389Y415136D01*
X53371Y415015D01*
X53358Y414894D01*
X53348Y414772D01*
X53342Y414650D01*
X53340Y414528D01*
X57150Y418338D02*
X100330Y418338D01*
X104140Y414528D02*
X104140Y383032D01*
X53340Y383032D02*
X53340Y393700D01*
X53340Y403860D01*
X53340Y414528D01*
X53340Y403860D02*
X53481Y403858D01*
X53622Y403852D01*
X53763Y403842D01*
X53904Y403829D01*
X54044Y403811D01*
X54183Y403789D01*
X54322Y403764D01*
X54461Y403735D01*
X54598Y403702D01*
X54734Y403665D01*
X54869Y403624D01*
X55004Y403580D01*
X55136Y403532D01*
X55268Y403480D01*
X55398Y403425D01*
X55526Y403366D01*
X55653Y403303D01*
X55777Y403237D01*
X55900Y403168D01*
X56021Y403095D01*
X56140Y403019D01*
X56257Y402939D01*
X56371Y402856D01*
X56484Y402771D01*
X56593Y402682D01*
X56701Y402590D01*
X56805Y402495D01*
X56907Y402397D01*
X57006Y402296D01*
X57103Y402193D01*
X57196Y402087D01*
X57286Y401979D01*
X57374Y401868D01*
X57458Y401755D01*
X57539Y401639D01*
X57617Y401521D01*
X57692Y401401D01*
X57763Y401279D01*
X57831Y401155D01*
X57895Y401029D01*
X57956Y400902D01*
X58013Y400773D01*
X58066Y400642D01*
X58116Y400510D01*
X58163Y400377D01*
X58205Y400242D01*
X58244Y400106D01*
X58279Y399969D01*
X58310Y399832D01*
X58337Y399693D01*
X58361Y399554D01*
X58380Y399414D01*
X58396Y399274D01*
X58408Y399133D01*
X58416Y398992D01*
X58420Y398851D01*
X58420Y398709D01*
X58416Y398568D01*
X58408Y398427D01*
X58396Y398286D01*
X58380Y398146D01*
X58361Y398006D01*
X58337Y397867D01*
X58310Y397728D01*
X58279Y397591D01*
X58244Y397454D01*
X58205Y397318D01*
X58163Y397183D01*
X58116Y397050D01*
X58066Y396918D01*
X58013Y396787D01*
X57956Y396658D01*
X57895Y396531D01*
X57831Y396405D01*
X57763Y396281D01*
X57692Y396159D01*
X57617Y396039D01*
X57539Y395921D01*
X57458Y395805D01*
X57374Y395692D01*
X57286Y395581D01*
X57196Y395473D01*
X57103Y395367D01*
X57006Y395264D01*
X56907Y395163D01*
X56805Y395065D01*
X56701Y394970D01*
X56593Y394878D01*
X56484Y394789D01*
X56371Y394704D01*
X56257Y394621D01*
X56140Y394541D01*
X56021Y394465D01*
X55900Y394392D01*
X55777Y394323D01*
X55653Y394257D01*
X55526Y394194D01*
X55398Y394135D01*
X55268Y394080D01*
X55136Y394028D01*
X55004Y393980D01*
X54869Y393936D01*
X54734Y393895D01*
X54598Y393858D01*
X54461Y393825D01*
X54322Y393796D01*
X54183Y393771D01*
X54044Y393749D01*
X53904Y393731D01*
X53763Y393718D01*
X53622Y393708D01*
X53481Y393702D01*
X53340Y393700D01*
D13*
X53340Y414782D02*
X104140Y414782D01*
D14*
X110998Y390093D02*
X117602Y390093D01*
X110998Y390093D02*
X110898Y390095D01*
X110799Y390101D01*
X110699Y390111D01*
X110601Y390124D01*
X110502Y390142D01*
X110405Y390163D01*
X110309Y390188D01*
X110213Y390217D01*
X110119Y390250D01*
X110026Y390286D01*
X109935Y390326D01*
X109845Y390370D01*
X109757Y390417D01*
X109671Y390467D01*
X109587Y390521D01*
X109505Y390578D01*
X109426Y390638D01*
X109348Y390702D01*
X109274Y390768D01*
X109202Y390837D01*
X109133Y390909D01*
X109067Y390983D01*
X109003Y391061D01*
X108943Y391140D01*
X108886Y391222D01*
X108832Y391306D01*
X108782Y391392D01*
X108735Y391480D01*
X108691Y391570D01*
X108651Y391661D01*
X108615Y391754D01*
X108582Y391848D01*
X108553Y391944D01*
X108528Y392040D01*
X108507Y392137D01*
X108489Y392236D01*
X108476Y392334D01*
X108466Y392434D01*
X108460Y392533D01*
X108458Y392633D01*
X108460Y392733D01*
X108466Y392832D01*
X108476Y392932D01*
X108489Y393030D01*
X108507Y393129D01*
X108528Y393226D01*
X108553Y393322D01*
X108582Y393418D01*
X108615Y393512D01*
X108651Y393605D01*
X108691Y393696D01*
X108735Y393786D01*
X108782Y393874D01*
X108832Y393960D01*
X108886Y394044D01*
X108943Y394126D01*
X109003Y394205D01*
X109067Y394283D01*
X109133Y394357D01*
X109202Y394429D01*
X109274Y394498D01*
X109348Y394564D01*
X109426Y394628D01*
X109505Y394688D01*
X109587Y394745D01*
X109671Y394799D01*
X109757Y394849D01*
X109845Y394896D01*
X109935Y394940D01*
X110026Y394980D01*
X110119Y395016D01*
X110213Y395049D01*
X110309Y395078D01*
X110405Y395103D01*
X110502Y395124D01*
X110601Y395142D01*
X110699Y395155D01*
X110799Y395165D01*
X110898Y395171D01*
X110998Y395173D01*
X117602Y395173D01*
X117602Y401574D02*
X110490Y399542D01*
X110490Y404622D01*
X112522Y403098D02*
X108458Y403098D01*
D12*
X166370Y379222D02*
X209550Y379222D01*
X213360Y414528D02*
X213358Y414650D01*
X213352Y414772D01*
X213342Y414894D01*
X213329Y415015D01*
X213311Y415136D01*
X213290Y415256D01*
X213264Y415376D01*
X213235Y415494D01*
X213203Y415612D01*
X213166Y415729D01*
X213126Y415844D01*
X213082Y415958D01*
X213034Y416070D01*
X212983Y416181D01*
X212928Y416290D01*
X212870Y416398D01*
X212808Y416503D01*
X212743Y416606D01*
X212675Y416708D01*
X212603Y416807D01*
X212529Y416903D01*
X212451Y416998D01*
X212370Y417089D01*
X212287Y417179D01*
X212201Y417265D01*
X212111Y417348D01*
X212020Y417429D01*
X211925Y417507D01*
X211829Y417581D01*
X211730Y417653D01*
X211628Y417721D01*
X211525Y417786D01*
X211420Y417848D01*
X211312Y417906D01*
X211203Y417961D01*
X211092Y418012D01*
X210980Y418060D01*
X210866Y418104D01*
X210751Y418144D01*
X210634Y418181D01*
X210516Y418213D01*
X210398Y418242D01*
X210278Y418268D01*
X210158Y418289D01*
X210037Y418307D01*
X209916Y418320D01*
X209794Y418330D01*
X209672Y418336D01*
X209550Y418338D01*
X166370Y379222D02*
X166248Y379224D01*
X166126Y379230D01*
X166004Y379240D01*
X165883Y379253D01*
X165762Y379271D01*
X165642Y379292D01*
X165522Y379318D01*
X165404Y379347D01*
X165286Y379379D01*
X165169Y379416D01*
X165054Y379456D01*
X164940Y379500D01*
X164828Y379548D01*
X164717Y379599D01*
X164608Y379654D01*
X164500Y379712D01*
X164395Y379774D01*
X164292Y379839D01*
X164190Y379907D01*
X164091Y379979D01*
X163995Y380053D01*
X163900Y380131D01*
X163809Y380212D01*
X163719Y380295D01*
X163633Y380381D01*
X163550Y380471D01*
X163469Y380562D01*
X163391Y380657D01*
X163317Y380753D01*
X163245Y380852D01*
X163177Y380954D01*
X163112Y381057D01*
X163050Y381162D01*
X162992Y381270D01*
X162937Y381379D01*
X162886Y381490D01*
X162838Y381602D01*
X162794Y381716D01*
X162754Y381831D01*
X162717Y381948D01*
X162685Y382066D01*
X162656Y382184D01*
X162630Y382304D01*
X162609Y382424D01*
X162591Y382545D01*
X162578Y382666D01*
X162568Y382788D01*
X162562Y382910D01*
X162560Y383032D01*
X209550Y379222D02*
X209672Y379224D01*
X209794Y379230D01*
X209916Y379240D01*
X210037Y379253D01*
X210158Y379271D01*
X210278Y379292D01*
X210398Y379318D01*
X210516Y379347D01*
X210634Y379379D01*
X210751Y379416D01*
X210866Y379456D01*
X210980Y379500D01*
X211092Y379548D01*
X211203Y379599D01*
X211312Y379654D01*
X211420Y379712D01*
X211525Y379774D01*
X211628Y379839D01*
X211730Y379907D01*
X211829Y379979D01*
X211925Y380053D01*
X212020Y380131D01*
X212111Y380212D01*
X212201Y380295D01*
X212287Y380381D01*
X212370Y380471D01*
X212451Y380562D01*
X212529Y380657D01*
X212603Y380753D01*
X212675Y380852D01*
X212743Y380954D01*
X212808Y381057D01*
X212870Y381162D01*
X212928Y381270D01*
X212983Y381379D01*
X213034Y381490D01*
X213082Y381602D01*
X213126Y381716D01*
X213166Y381831D01*
X213203Y381948D01*
X213235Y382066D01*
X213264Y382184D01*
X213290Y382304D01*
X213311Y382424D01*
X213329Y382545D01*
X213342Y382666D01*
X213352Y382788D01*
X213358Y382910D01*
X213360Y383032D01*
X166370Y418338D02*
X166248Y418336D01*
X166126Y418330D01*
X166004Y418320D01*
X165883Y418307D01*
X165762Y418289D01*
X165642Y418268D01*
X165522Y418242D01*
X165404Y418213D01*
X165286Y418181D01*
X165169Y418144D01*
X165054Y418104D01*
X164940Y418060D01*
X164828Y418012D01*
X164717Y417961D01*
X164608Y417906D01*
X164500Y417848D01*
X164395Y417786D01*
X164292Y417721D01*
X164190Y417653D01*
X164091Y417581D01*
X163995Y417507D01*
X163900Y417429D01*
X163809Y417348D01*
X163719Y417265D01*
X163633Y417179D01*
X163550Y417089D01*
X163469Y416998D01*
X163391Y416903D01*
X163317Y416807D01*
X163245Y416708D01*
X163177Y416606D01*
X163112Y416503D01*
X163050Y416398D01*
X162992Y416290D01*
X162937Y416181D01*
X162886Y416070D01*
X162838Y415958D01*
X162794Y415844D01*
X162754Y415729D01*
X162717Y415612D01*
X162685Y415494D01*
X162656Y415376D01*
X162630Y415256D01*
X162609Y415136D01*
X162591Y415015D01*
X162578Y414894D01*
X162568Y414772D01*
X162562Y414650D01*
X162560Y414528D01*
X166370Y418338D02*
X209550Y418338D01*
X213360Y414528D02*
X213360Y383032D01*
X162560Y383032D02*
X162560Y393700D01*
X162560Y403860D01*
X162560Y414528D01*
X162560Y403860D02*
X162701Y403858D01*
X162842Y403852D01*
X162983Y403842D01*
X163124Y403829D01*
X163264Y403811D01*
X163403Y403789D01*
X163542Y403764D01*
X163681Y403735D01*
X163818Y403702D01*
X163954Y403665D01*
X164089Y403624D01*
X164224Y403580D01*
X164356Y403532D01*
X164488Y403480D01*
X164618Y403425D01*
X164746Y403366D01*
X164873Y403303D01*
X164997Y403237D01*
X165120Y403168D01*
X165241Y403095D01*
X165360Y403019D01*
X165477Y402939D01*
X165591Y402856D01*
X165704Y402771D01*
X165813Y402682D01*
X165921Y402590D01*
X166025Y402495D01*
X166127Y402397D01*
X166226Y402296D01*
X166323Y402193D01*
X166416Y402087D01*
X166506Y401979D01*
X166594Y401868D01*
X166678Y401755D01*
X166759Y401639D01*
X166837Y401521D01*
X166912Y401401D01*
X166983Y401279D01*
X167051Y401155D01*
X167115Y401029D01*
X167176Y400902D01*
X167233Y400773D01*
X167286Y400642D01*
X167336Y400510D01*
X167383Y400377D01*
X167425Y400242D01*
X167464Y400106D01*
X167499Y399969D01*
X167530Y399832D01*
X167557Y399693D01*
X167581Y399554D01*
X167600Y399414D01*
X167616Y399274D01*
X167628Y399133D01*
X167636Y398992D01*
X167640Y398851D01*
X167640Y398709D01*
X167636Y398568D01*
X167628Y398427D01*
X167616Y398286D01*
X167600Y398146D01*
X167581Y398006D01*
X167557Y397867D01*
X167530Y397728D01*
X167499Y397591D01*
X167464Y397454D01*
X167425Y397318D01*
X167383Y397183D01*
X167336Y397050D01*
X167286Y396918D01*
X167233Y396787D01*
X167176Y396658D01*
X167115Y396531D01*
X167051Y396405D01*
X166983Y396281D01*
X166912Y396159D01*
X166837Y396039D01*
X166759Y395921D01*
X166678Y395805D01*
X166594Y395692D01*
X166506Y395581D01*
X166416Y395473D01*
X166323Y395367D01*
X166226Y395264D01*
X166127Y395163D01*
X166025Y395065D01*
X165921Y394970D01*
X165813Y394878D01*
X165704Y394789D01*
X165591Y394704D01*
X165477Y394621D01*
X165360Y394541D01*
X165241Y394465D01*
X165120Y394392D01*
X164997Y394323D01*
X164873Y394257D01*
X164746Y394194D01*
X164618Y394135D01*
X164488Y394080D01*
X164356Y394028D01*
X164224Y393980D01*
X164089Y393936D01*
X163954Y393895D01*
X163818Y393858D01*
X163681Y393825D01*
X163542Y393796D01*
X163403Y393771D01*
X163264Y393749D01*
X163124Y393731D01*
X162983Y393718D01*
X162842Y393708D01*
X162701Y393702D01*
X162560Y393700D01*
D13*
X162560Y414782D02*
X213360Y414782D01*
D14*
X155702Y390093D02*
X149098Y390093D01*
X148998Y390095D01*
X148899Y390101D01*
X148799Y390111D01*
X148701Y390124D01*
X148602Y390142D01*
X148505Y390163D01*
X148409Y390188D01*
X148313Y390217D01*
X148219Y390250D01*
X148126Y390286D01*
X148035Y390326D01*
X147945Y390370D01*
X147857Y390417D01*
X147771Y390467D01*
X147687Y390521D01*
X147605Y390578D01*
X147526Y390638D01*
X147448Y390702D01*
X147374Y390768D01*
X147302Y390837D01*
X147233Y390909D01*
X147167Y390983D01*
X147103Y391061D01*
X147043Y391140D01*
X146986Y391222D01*
X146932Y391306D01*
X146882Y391392D01*
X146835Y391480D01*
X146791Y391570D01*
X146751Y391661D01*
X146715Y391754D01*
X146682Y391848D01*
X146653Y391944D01*
X146628Y392040D01*
X146607Y392137D01*
X146589Y392236D01*
X146576Y392334D01*
X146566Y392434D01*
X146560Y392533D01*
X146558Y392633D01*
X146560Y392733D01*
X146566Y392832D01*
X146576Y392932D01*
X146589Y393030D01*
X146607Y393129D01*
X146628Y393226D01*
X146653Y393322D01*
X146682Y393418D01*
X146715Y393512D01*
X146751Y393605D01*
X146791Y393696D01*
X146835Y393786D01*
X146882Y393874D01*
X146932Y393960D01*
X146986Y394044D01*
X147043Y394126D01*
X147103Y394205D01*
X147167Y394283D01*
X147233Y394357D01*
X147302Y394429D01*
X147374Y394498D01*
X147448Y394564D01*
X147526Y394628D01*
X147605Y394688D01*
X147687Y394745D01*
X147771Y394799D01*
X147857Y394849D01*
X147945Y394896D01*
X148035Y394940D01*
X148126Y394980D01*
X148219Y395016D01*
X148313Y395049D01*
X148409Y395078D01*
X148505Y395103D01*
X148602Y395124D01*
X148701Y395142D01*
X148799Y395155D01*
X148899Y395165D01*
X148998Y395171D01*
X149098Y395173D01*
X155702Y395173D01*
X146558Y399542D02*
X146558Y402590D01*
X146560Y402679D01*
X146566Y402767D01*
X146575Y402855D01*
X146589Y402943D01*
X146606Y403030D01*
X146627Y403116D01*
X146652Y403201D01*
X146681Y403285D01*
X146713Y403368D01*
X146748Y403449D01*
X146788Y403528D01*
X146830Y403606D01*
X146876Y403682D01*
X146925Y403756D01*
X146978Y403827D01*
X147033Y403896D01*
X147092Y403963D01*
X147153Y404027D01*
X147217Y404088D01*
X147284Y404147D01*
X147353Y404202D01*
X147424Y404255D01*
X147498Y404304D01*
X147574Y404350D01*
X147652Y404392D01*
X147731Y404432D01*
X147812Y404467D01*
X147895Y404499D01*
X147979Y404528D01*
X148064Y404553D01*
X148150Y404574D01*
X148237Y404591D01*
X148325Y404605D01*
X148413Y404614D01*
X148501Y404620D01*
X148590Y404622D01*
X149606Y404622D01*
X149695Y404620D01*
X149783Y404614D01*
X149871Y404605D01*
X149959Y404591D01*
X150046Y404574D01*
X150132Y404553D01*
X150217Y404528D01*
X150301Y404499D01*
X150384Y404467D01*
X150465Y404432D01*
X150544Y404392D01*
X150622Y404350D01*
X150698Y404304D01*
X150772Y404255D01*
X150843Y404202D01*
X150912Y404147D01*
X150979Y404088D01*
X151043Y404027D01*
X151104Y403963D01*
X151163Y403896D01*
X151218Y403827D01*
X151271Y403756D01*
X151320Y403682D01*
X151366Y403606D01*
X151408Y403528D01*
X151448Y403449D01*
X151483Y403368D01*
X151515Y403285D01*
X151544Y403201D01*
X151569Y403116D01*
X151590Y403030D01*
X151607Y402943D01*
X151621Y402855D01*
X151630Y402767D01*
X151636Y402679D01*
X151638Y402590D01*
X151638Y399542D01*
X155702Y399542D01*
X155702Y404622D01*
D10*
X150241Y205305D02*
X150241Y203217D01*
X150243Y203128D01*
X150249Y203040D01*
X150258Y202952D01*
X150271Y202864D01*
X150288Y202777D01*
X150308Y202691D01*
X150333Y202606D01*
X150360Y202521D01*
X150392Y202438D01*
X150426Y202357D01*
X150465Y202277D01*
X150506Y202199D01*
X150551Y202122D01*
X150599Y202048D01*
X150650Y201975D01*
X150704Y201905D01*
X150762Y201838D01*
X150822Y201772D01*
X150884Y201710D01*
X150950Y201650D01*
X151017Y201592D01*
X151087Y201538D01*
X151160Y201487D01*
X151234Y201439D01*
X151311Y201394D01*
X151389Y201353D01*
X151469Y201314D01*
X151550Y201280D01*
X151633Y201248D01*
X151718Y201221D01*
X151803Y201196D01*
X151889Y201176D01*
X151976Y201159D01*
X152064Y201146D01*
X152152Y201137D01*
X152240Y201131D01*
X152329Y201129D01*
X152329Y201128D02*
X157551Y201128D01*
X157551Y201129D02*
X157642Y201131D01*
X157733Y201137D01*
X157824Y201147D01*
X157914Y201161D01*
X158003Y201178D01*
X158091Y201200D01*
X158179Y201226D01*
X158265Y201255D01*
X158350Y201288D01*
X158433Y201325D01*
X158515Y201365D01*
X158595Y201409D01*
X158673Y201456D01*
X158749Y201507D01*
X158822Y201560D01*
X158893Y201617D01*
X158962Y201678D01*
X159027Y201741D01*
X159090Y201806D01*
X159150Y201875D01*
X159208Y201946D01*
X159261Y202019D01*
X159312Y202095D01*
X159359Y202173D01*
X159403Y202253D01*
X159443Y202335D01*
X159480Y202418D01*
X159513Y202503D01*
X159542Y202589D01*
X159568Y202677D01*
X159590Y202765D01*
X159607Y202854D01*
X159621Y202944D01*
X159631Y203035D01*
X159637Y203126D01*
X159639Y203217D01*
X159639Y205305D01*
X157551Y208774D02*
X159639Y211384D01*
X150241Y211384D01*
X150241Y208774D02*
X150241Y213995D01*
X150241Y217918D02*
X150241Y221051D01*
X150243Y221140D01*
X150249Y221228D01*
X150258Y221316D01*
X150271Y221404D01*
X150288Y221491D01*
X150308Y221577D01*
X150333Y221662D01*
X150360Y221747D01*
X150392Y221830D01*
X150426Y221911D01*
X150465Y221991D01*
X150506Y222069D01*
X150551Y222146D01*
X150599Y222220D01*
X150650Y222293D01*
X150704Y222363D01*
X150762Y222430D01*
X150822Y222496D01*
X150884Y222558D01*
X150950Y222618D01*
X151017Y222676D01*
X151087Y222730D01*
X151160Y222781D01*
X151234Y222829D01*
X151311Y222874D01*
X151389Y222915D01*
X151469Y222954D01*
X151550Y222988D01*
X151633Y223020D01*
X151718Y223047D01*
X151803Y223072D01*
X151889Y223092D01*
X151976Y223109D01*
X152064Y223122D01*
X152152Y223131D01*
X152240Y223137D01*
X152329Y223139D01*
X153374Y223139D01*
X153463Y223137D01*
X153551Y223131D01*
X153639Y223122D01*
X153727Y223109D01*
X153814Y223092D01*
X153900Y223072D01*
X153985Y223047D01*
X154070Y223020D01*
X154153Y222988D01*
X154234Y222954D01*
X154314Y222915D01*
X154392Y222874D01*
X154469Y222829D01*
X154543Y222781D01*
X154616Y222730D01*
X154686Y222676D01*
X154753Y222618D01*
X154819Y222558D01*
X154881Y222496D01*
X154941Y222430D01*
X154999Y222363D01*
X155053Y222293D01*
X155104Y222220D01*
X155152Y222146D01*
X155197Y222069D01*
X155238Y221991D01*
X155277Y221911D01*
X155311Y221830D01*
X155343Y221747D01*
X155370Y221662D01*
X155395Y221577D01*
X155415Y221491D01*
X155432Y221404D01*
X155445Y221316D01*
X155454Y221228D01*
X155460Y221140D01*
X155462Y221051D01*
X155462Y217918D01*
X159639Y217918D01*
X159639Y223139D01*
X79121Y251477D02*
X79121Y253565D01*
X79121Y251477D02*
X79123Y251388D01*
X79129Y251300D01*
X79138Y251212D01*
X79151Y251124D01*
X79168Y251037D01*
X79188Y250951D01*
X79213Y250866D01*
X79240Y250781D01*
X79272Y250698D01*
X79306Y250617D01*
X79345Y250537D01*
X79386Y250459D01*
X79431Y250382D01*
X79479Y250308D01*
X79530Y250235D01*
X79584Y250165D01*
X79642Y250098D01*
X79702Y250032D01*
X79764Y249970D01*
X79830Y249910D01*
X79897Y249852D01*
X79967Y249798D01*
X80040Y249747D01*
X80114Y249699D01*
X80191Y249654D01*
X80269Y249613D01*
X80349Y249574D01*
X80430Y249540D01*
X80513Y249508D01*
X80598Y249481D01*
X80683Y249456D01*
X80769Y249436D01*
X80856Y249419D01*
X80944Y249406D01*
X81032Y249397D01*
X81120Y249391D01*
X81209Y249389D01*
X81209Y249388D02*
X86431Y249388D01*
X86431Y249389D02*
X86522Y249391D01*
X86613Y249397D01*
X86704Y249407D01*
X86794Y249421D01*
X86883Y249438D01*
X86971Y249460D01*
X87059Y249486D01*
X87145Y249515D01*
X87230Y249548D01*
X87313Y249585D01*
X87395Y249625D01*
X87475Y249669D01*
X87553Y249716D01*
X87629Y249767D01*
X87702Y249820D01*
X87773Y249877D01*
X87842Y249938D01*
X87907Y250001D01*
X87970Y250066D01*
X88030Y250135D01*
X88088Y250206D01*
X88141Y250279D01*
X88192Y250355D01*
X88239Y250433D01*
X88283Y250513D01*
X88323Y250595D01*
X88360Y250678D01*
X88393Y250763D01*
X88422Y250849D01*
X88448Y250937D01*
X88470Y251025D01*
X88487Y251114D01*
X88501Y251204D01*
X88511Y251295D01*
X88517Y251386D01*
X88519Y251477D01*
X88519Y253565D01*
X86431Y257034D02*
X88519Y259644D01*
X79121Y259644D01*
X79121Y257034D02*
X79121Y262255D01*
X87475Y266178D02*
X88519Y266178D01*
X88519Y271399D01*
X79121Y268788D01*
X124841Y207391D02*
X134239Y207391D01*
X134239Y210002D01*
X134237Y210103D01*
X134231Y210204D01*
X134221Y210305D01*
X134208Y210405D01*
X134190Y210505D01*
X134169Y210604D01*
X134143Y210702D01*
X134114Y210799D01*
X134082Y210895D01*
X134045Y210989D01*
X134005Y211082D01*
X133961Y211174D01*
X133914Y211263D01*
X133863Y211351D01*
X133809Y211437D01*
X133752Y211520D01*
X133692Y211602D01*
X133628Y211680D01*
X133562Y211757D01*
X133492Y211830D01*
X133420Y211901D01*
X133345Y211969D01*
X133267Y212034D01*
X133187Y212096D01*
X133105Y212155D01*
X133020Y212211D01*
X132934Y212263D01*
X132845Y212312D01*
X132754Y212358D01*
X132662Y212399D01*
X132568Y212438D01*
X132473Y212472D01*
X132377Y212503D01*
X132279Y212530D01*
X132181Y212554D01*
X132081Y212573D01*
X131981Y212589D01*
X131881Y212601D01*
X131780Y212609D01*
X131679Y212613D01*
X131577Y212613D01*
X131476Y212609D01*
X131375Y212601D01*
X131275Y212589D01*
X131175Y212573D01*
X131075Y212554D01*
X130977Y212530D01*
X130879Y212503D01*
X130783Y212472D01*
X130688Y212438D01*
X130594Y212399D01*
X130502Y212358D01*
X130411Y212312D01*
X130323Y212263D01*
X130236Y212211D01*
X130151Y212155D01*
X130069Y212096D01*
X129989Y212034D01*
X129911Y211969D01*
X129836Y211901D01*
X129764Y211830D01*
X129694Y211757D01*
X129628Y211680D01*
X129564Y211602D01*
X129504Y211520D01*
X129447Y211437D01*
X129393Y211351D01*
X129342Y211263D01*
X129295Y211174D01*
X129251Y211082D01*
X129211Y210989D01*
X129174Y210895D01*
X129142Y210799D01*
X129113Y210702D01*
X129087Y210604D01*
X129066Y210505D01*
X129048Y210405D01*
X129035Y210305D01*
X129025Y210204D01*
X129019Y210103D01*
X129017Y210002D01*
X129018Y210002D02*
X129018Y207391D01*
X129018Y210524D02*
X124841Y212612D01*
X127452Y216477D02*
X127553Y216479D01*
X127654Y216485D01*
X127755Y216495D01*
X127855Y216508D01*
X127955Y216526D01*
X128054Y216547D01*
X128152Y216573D01*
X128249Y216602D01*
X128345Y216634D01*
X128439Y216671D01*
X128532Y216711D01*
X128624Y216755D01*
X128713Y216802D01*
X128801Y216853D01*
X128887Y216907D01*
X128970Y216964D01*
X129052Y217024D01*
X129130Y217088D01*
X129207Y217154D01*
X129280Y217224D01*
X129351Y217296D01*
X129419Y217371D01*
X129484Y217449D01*
X129546Y217529D01*
X129605Y217611D01*
X129661Y217696D01*
X129713Y217782D01*
X129762Y217871D01*
X129808Y217962D01*
X129849Y218054D01*
X129888Y218148D01*
X129922Y218243D01*
X129953Y218339D01*
X129980Y218437D01*
X130004Y218535D01*
X130023Y218635D01*
X130039Y218735D01*
X130051Y218835D01*
X130059Y218936D01*
X130063Y219037D01*
X130063Y219139D01*
X130059Y219240D01*
X130051Y219341D01*
X130039Y219441D01*
X130023Y219541D01*
X130004Y219641D01*
X129980Y219739D01*
X129953Y219837D01*
X129922Y219933D01*
X129888Y220028D01*
X129849Y220122D01*
X129808Y220214D01*
X129762Y220305D01*
X129713Y220393D01*
X129661Y220480D01*
X129605Y220565D01*
X129546Y220647D01*
X129484Y220727D01*
X129419Y220805D01*
X129351Y220880D01*
X129280Y220952D01*
X129207Y221022D01*
X129130Y221088D01*
X129052Y221152D01*
X128970Y221212D01*
X128887Y221269D01*
X128801Y221323D01*
X128713Y221374D01*
X128624Y221421D01*
X128532Y221465D01*
X128439Y221505D01*
X128345Y221542D01*
X128249Y221574D01*
X128152Y221603D01*
X128054Y221629D01*
X127955Y221650D01*
X127855Y221668D01*
X127755Y221681D01*
X127654Y221691D01*
X127553Y221697D01*
X127452Y221699D01*
X127351Y221697D01*
X127250Y221691D01*
X127149Y221681D01*
X127049Y221668D01*
X126949Y221650D01*
X126850Y221629D01*
X126752Y221603D01*
X126655Y221574D01*
X126559Y221542D01*
X126465Y221505D01*
X126372Y221465D01*
X126280Y221421D01*
X126191Y221374D01*
X126103Y221323D01*
X126017Y221269D01*
X125934Y221212D01*
X125852Y221152D01*
X125774Y221088D01*
X125697Y221022D01*
X125624Y220952D01*
X125553Y220880D01*
X125485Y220805D01*
X125420Y220727D01*
X125358Y220647D01*
X125299Y220565D01*
X125243Y220480D01*
X125191Y220394D01*
X125142Y220305D01*
X125096Y220214D01*
X125055Y220122D01*
X125016Y220028D01*
X124982Y219933D01*
X124951Y219837D01*
X124924Y219739D01*
X124900Y219641D01*
X124881Y219541D01*
X124865Y219441D01*
X124853Y219341D01*
X124845Y219240D01*
X124841Y219139D01*
X124841Y219037D01*
X124845Y218936D01*
X124853Y218835D01*
X124865Y218735D01*
X124881Y218635D01*
X124900Y218535D01*
X124924Y218437D01*
X124951Y218339D01*
X124982Y218243D01*
X125016Y218148D01*
X125055Y218054D01*
X125096Y217962D01*
X125142Y217871D01*
X125191Y217783D01*
X125243Y217696D01*
X125299Y217611D01*
X125358Y217529D01*
X125420Y217449D01*
X125485Y217371D01*
X125553Y217296D01*
X125624Y217224D01*
X125697Y217154D01*
X125774Y217088D01*
X125852Y217024D01*
X125934Y216964D01*
X126017Y216907D01*
X126103Y216853D01*
X126191Y216802D01*
X126280Y216755D01*
X126372Y216711D01*
X126465Y216671D01*
X126559Y216634D01*
X126655Y216602D01*
X126752Y216573D01*
X126850Y216547D01*
X126949Y216526D01*
X127049Y216508D01*
X127149Y216495D01*
X127250Y216485D01*
X127351Y216479D01*
X127452Y216477D01*
X132151Y217000D02*
X132241Y217002D01*
X132330Y217008D01*
X132420Y217017D01*
X132509Y217031D01*
X132597Y217048D01*
X132684Y217069D01*
X132771Y217094D01*
X132856Y217123D01*
X132940Y217155D01*
X133022Y217190D01*
X133103Y217230D01*
X133182Y217272D01*
X133259Y217318D01*
X133334Y217368D01*
X133407Y217420D01*
X133478Y217476D01*
X133546Y217534D01*
X133611Y217596D01*
X133674Y217660D01*
X133734Y217727D01*
X133791Y217796D01*
X133845Y217868D01*
X133896Y217942D01*
X133944Y218018D01*
X133988Y218096D01*
X134029Y218176D01*
X134067Y218258D01*
X134101Y218341D01*
X134131Y218426D01*
X134158Y218512D01*
X134181Y218598D01*
X134200Y218686D01*
X134215Y218775D01*
X134227Y218864D01*
X134235Y218953D01*
X134239Y219043D01*
X134239Y219133D01*
X134235Y219223D01*
X134227Y219312D01*
X134215Y219401D01*
X134200Y219490D01*
X134181Y219578D01*
X134158Y219664D01*
X134131Y219750D01*
X134101Y219835D01*
X134067Y219918D01*
X134029Y220000D01*
X133988Y220080D01*
X133944Y220158D01*
X133896Y220234D01*
X133845Y220308D01*
X133791Y220380D01*
X133734Y220449D01*
X133674Y220516D01*
X133611Y220580D01*
X133546Y220642D01*
X133478Y220700D01*
X133407Y220756D01*
X133334Y220808D01*
X133259Y220858D01*
X133182Y220904D01*
X133103Y220946D01*
X133022Y220986D01*
X132940Y221021D01*
X132856Y221053D01*
X132771Y221082D01*
X132684Y221107D01*
X132597Y221128D01*
X132509Y221145D01*
X132420Y221159D01*
X132330Y221168D01*
X132241Y221174D01*
X132151Y221176D01*
X132061Y221174D01*
X131972Y221168D01*
X131882Y221159D01*
X131793Y221145D01*
X131705Y221128D01*
X131618Y221107D01*
X131531Y221082D01*
X131446Y221053D01*
X131362Y221021D01*
X131280Y220986D01*
X131199Y220946D01*
X131120Y220904D01*
X131043Y220858D01*
X130968Y220808D01*
X130895Y220756D01*
X130824Y220700D01*
X130756Y220642D01*
X130691Y220580D01*
X130628Y220516D01*
X130568Y220449D01*
X130511Y220380D01*
X130457Y220308D01*
X130406Y220234D01*
X130358Y220158D01*
X130314Y220080D01*
X130273Y220000D01*
X130235Y219918D01*
X130201Y219835D01*
X130171Y219750D01*
X130144Y219664D01*
X130121Y219578D01*
X130102Y219490D01*
X130087Y219401D01*
X130075Y219312D01*
X130067Y219223D01*
X130063Y219133D01*
X130063Y219043D01*
X130067Y218953D01*
X130075Y218864D01*
X130087Y218775D01*
X130102Y218686D01*
X130121Y218598D01*
X130144Y218512D01*
X130171Y218426D01*
X130201Y218341D01*
X130235Y218258D01*
X130273Y218176D01*
X130314Y218096D01*
X130358Y218018D01*
X130406Y217942D01*
X130457Y217868D01*
X130511Y217796D01*
X130568Y217727D01*
X130628Y217660D01*
X130691Y217596D01*
X130756Y217534D01*
X130824Y217476D01*
X130895Y217420D01*
X130968Y217368D01*
X131043Y217318D01*
X131120Y217272D01*
X131199Y217230D01*
X131280Y217190D01*
X131362Y217155D01*
X131446Y217123D01*
X131531Y217094D01*
X131618Y217069D01*
X131705Y217048D01*
X131793Y217031D01*
X131882Y217017D01*
X131972Y217008D01*
X132061Y217002D01*
X132151Y217000D01*
X152781Y352989D02*
X152781Y355078D01*
X152781Y352989D02*
X152783Y352900D01*
X152789Y352812D01*
X152798Y352724D01*
X152811Y352636D01*
X152828Y352549D01*
X152848Y352463D01*
X152873Y352378D01*
X152900Y352293D01*
X152932Y352210D01*
X152966Y352129D01*
X153005Y352049D01*
X153046Y351971D01*
X153091Y351894D01*
X153139Y351820D01*
X153190Y351747D01*
X153244Y351677D01*
X153302Y351610D01*
X153362Y351544D01*
X153424Y351482D01*
X153490Y351422D01*
X153557Y351364D01*
X153627Y351310D01*
X153700Y351259D01*
X153774Y351211D01*
X153851Y351166D01*
X153929Y351125D01*
X154009Y351086D01*
X154090Y351052D01*
X154173Y351020D01*
X154258Y350993D01*
X154343Y350968D01*
X154429Y350948D01*
X154516Y350931D01*
X154604Y350918D01*
X154692Y350909D01*
X154780Y350903D01*
X154869Y350901D01*
X160091Y350901D01*
X160182Y350903D01*
X160273Y350909D01*
X160364Y350919D01*
X160454Y350933D01*
X160543Y350950D01*
X160631Y350972D01*
X160719Y350998D01*
X160805Y351027D01*
X160890Y351060D01*
X160973Y351097D01*
X161055Y351137D01*
X161135Y351181D01*
X161213Y351228D01*
X161289Y351279D01*
X161362Y351332D01*
X161433Y351389D01*
X161502Y351450D01*
X161567Y351513D01*
X161630Y351578D01*
X161690Y351647D01*
X161748Y351718D01*
X161801Y351791D01*
X161852Y351867D01*
X161899Y351945D01*
X161943Y352025D01*
X161983Y352107D01*
X162020Y352190D01*
X162053Y352275D01*
X162082Y352361D01*
X162108Y352449D01*
X162130Y352537D01*
X162147Y352626D01*
X162161Y352716D01*
X162171Y352807D01*
X162177Y352898D01*
X162179Y352989D01*
X162179Y355078D01*
X160091Y358547D02*
X162179Y361157D01*
X152781Y361157D01*
X152781Y358547D02*
X152781Y363768D01*
X155392Y367690D02*
X155493Y367692D01*
X155594Y367698D01*
X155695Y367708D01*
X155795Y367721D01*
X155895Y367739D01*
X155994Y367760D01*
X156092Y367786D01*
X156189Y367815D01*
X156285Y367847D01*
X156379Y367884D01*
X156472Y367924D01*
X156564Y367968D01*
X156653Y368015D01*
X156741Y368066D01*
X156827Y368120D01*
X156910Y368177D01*
X156992Y368237D01*
X157070Y368301D01*
X157147Y368367D01*
X157220Y368437D01*
X157291Y368509D01*
X157359Y368584D01*
X157424Y368662D01*
X157486Y368742D01*
X157545Y368824D01*
X157601Y368909D01*
X157653Y368996D01*
X157702Y369084D01*
X157748Y369175D01*
X157789Y369267D01*
X157828Y369361D01*
X157862Y369456D01*
X157893Y369552D01*
X157920Y369650D01*
X157944Y369748D01*
X157963Y369848D01*
X157979Y369948D01*
X157991Y370048D01*
X157999Y370149D01*
X158003Y370250D01*
X158003Y370352D01*
X157999Y370453D01*
X157991Y370554D01*
X157979Y370654D01*
X157963Y370754D01*
X157944Y370854D01*
X157920Y370952D01*
X157893Y371050D01*
X157862Y371146D01*
X157828Y371241D01*
X157789Y371335D01*
X157748Y371427D01*
X157702Y371518D01*
X157653Y371606D01*
X157601Y371693D01*
X157545Y371778D01*
X157486Y371860D01*
X157424Y371940D01*
X157359Y372018D01*
X157291Y372093D01*
X157220Y372165D01*
X157147Y372235D01*
X157070Y372301D01*
X156992Y372365D01*
X156910Y372425D01*
X156827Y372482D01*
X156741Y372536D01*
X156653Y372587D01*
X156564Y372634D01*
X156472Y372678D01*
X156379Y372718D01*
X156285Y372755D01*
X156189Y372787D01*
X156092Y372816D01*
X155994Y372842D01*
X155895Y372863D01*
X155795Y372881D01*
X155695Y372894D01*
X155594Y372904D01*
X155493Y372910D01*
X155392Y372912D01*
X155291Y372910D01*
X155190Y372904D01*
X155089Y372894D01*
X154989Y372881D01*
X154889Y372863D01*
X154790Y372842D01*
X154692Y372816D01*
X154595Y372787D01*
X154499Y372755D01*
X154405Y372718D01*
X154312Y372678D01*
X154220Y372634D01*
X154131Y372587D01*
X154043Y372536D01*
X153957Y372482D01*
X153874Y372425D01*
X153792Y372365D01*
X153714Y372301D01*
X153637Y372235D01*
X153564Y372165D01*
X153493Y372093D01*
X153425Y372018D01*
X153360Y371940D01*
X153298Y371860D01*
X153239Y371778D01*
X153183Y371693D01*
X153131Y371607D01*
X153082Y371518D01*
X153036Y371427D01*
X152995Y371335D01*
X152956Y371241D01*
X152922Y371146D01*
X152891Y371050D01*
X152864Y370952D01*
X152840Y370854D01*
X152821Y370754D01*
X152805Y370654D01*
X152793Y370554D01*
X152785Y370453D01*
X152781Y370352D01*
X152781Y370250D01*
X152785Y370149D01*
X152793Y370048D01*
X152805Y369948D01*
X152821Y369848D01*
X152840Y369748D01*
X152864Y369650D01*
X152891Y369552D01*
X152922Y369456D01*
X152956Y369361D01*
X152995Y369267D01*
X153036Y369175D01*
X153082Y369084D01*
X153131Y368996D01*
X153183Y368909D01*
X153239Y368824D01*
X153298Y368742D01*
X153360Y368662D01*
X153425Y368584D01*
X153493Y368509D01*
X153564Y368437D01*
X153637Y368367D01*
X153714Y368301D01*
X153792Y368237D01*
X153874Y368177D01*
X153957Y368120D01*
X154043Y368066D01*
X154131Y368015D01*
X154220Y367968D01*
X154312Y367924D01*
X154405Y367884D01*
X154499Y367847D01*
X154595Y367815D01*
X154692Y367786D01*
X154790Y367760D01*
X154889Y367739D01*
X154989Y367721D01*
X155089Y367708D01*
X155190Y367698D01*
X155291Y367692D01*
X155392Y367690D01*
X160091Y368213D02*
X160181Y368215D01*
X160270Y368221D01*
X160360Y368230D01*
X160449Y368244D01*
X160537Y368261D01*
X160624Y368282D01*
X160711Y368307D01*
X160796Y368336D01*
X160880Y368368D01*
X160962Y368403D01*
X161043Y368443D01*
X161122Y368485D01*
X161199Y368531D01*
X161274Y368581D01*
X161347Y368633D01*
X161418Y368689D01*
X161486Y368747D01*
X161551Y368809D01*
X161614Y368873D01*
X161674Y368940D01*
X161731Y369009D01*
X161785Y369081D01*
X161836Y369155D01*
X161884Y369231D01*
X161928Y369309D01*
X161969Y369389D01*
X162007Y369471D01*
X162041Y369554D01*
X162071Y369639D01*
X162098Y369725D01*
X162121Y369811D01*
X162140Y369899D01*
X162155Y369988D01*
X162167Y370077D01*
X162175Y370166D01*
X162179Y370256D01*
X162179Y370346D01*
X162175Y370436D01*
X162167Y370525D01*
X162155Y370614D01*
X162140Y370703D01*
X162121Y370791D01*
X162098Y370877D01*
X162071Y370963D01*
X162041Y371048D01*
X162007Y371131D01*
X161969Y371213D01*
X161928Y371293D01*
X161884Y371371D01*
X161836Y371447D01*
X161785Y371521D01*
X161731Y371593D01*
X161674Y371662D01*
X161614Y371729D01*
X161551Y371793D01*
X161486Y371855D01*
X161418Y371913D01*
X161347Y371969D01*
X161274Y372021D01*
X161199Y372071D01*
X161122Y372117D01*
X161043Y372159D01*
X160962Y372199D01*
X160880Y372234D01*
X160796Y372266D01*
X160711Y372295D01*
X160624Y372320D01*
X160537Y372341D01*
X160449Y372358D01*
X160360Y372372D01*
X160270Y372381D01*
X160181Y372387D01*
X160091Y372389D01*
X160001Y372387D01*
X159912Y372381D01*
X159822Y372372D01*
X159733Y372358D01*
X159645Y372341D01*
X159558Y372320D01*
X159471Y372295D01*
X159386Y372266D01*
X159302Y372234D01*
X159220Y372199D01*
X159139Y372159D01*
X159060Y372117D01*
X158983Y372071D01*
X158908Y372021D01*
X158835Y371969D01*
X158764Y371913D01*
X158696Y371855D01*
X158631Y371793D01*
X158568Y371729D01*
X158508Y371662D01*
X158451Y371593D01*
X158397Y371521D01*
X158346Y371447D01*
X158298Y371371D01*
X158254Y371293D01*
X158213Y371213D01*
X158175Y371131D01*
X158141Y371048D01*
X158111Y370963D01*
X158084Y370877D01*
X158061Y370791D01*
X158042Y370703D01*
X158027Y370614D01*
X158015Y370525D01*
X158007Y370436D01*
X158003Y370346D01*
X158003Y370256D01*
X158007Y370166D01*
X158015Y370077D01*
X158027Y369988D01*
X158042Y369899D01*
X158061Y369811D01*
X158084Y369725D01*
X158111Y369639D01*
X158141Y369554D01*
X158175Y369471D01*
X158213Y369389D01*
X158254Y369309D01*
X158298Y369231D01*
X158346Y369155D01*
X158397Y369081D01*
X158451Y369009D01*
X158508Y368940D01*
X158568Y368873D01*
X158631Y368809D01*
X158696Y368747D01*
X158764Y368689D01*
X158835Y368633D01*
X158908Y368581D01*
X158983Y368531D01*
X159060Y368485D01*
X159139Y368443D01*
X159220Y368403D01*
X159302Y368368D01*
X159386Y368336D01*
X159471Y368307D01*
X159558Y368282D01*
X159645Y368261D01*
X159733Y368244D01*
X159822Y368230D01*
X159912Y368221D01*
X160001Y368215D01*
X160091Y368213D01*
X98679Y299001D02*
X89281Y299001D01*
X98679Y299001D02*
X98679Y301612D01*
X98677Y301713D01*
X98671Y301814D01*
X98661Y301915D01*
X98648Y302015D01*
X98630Y302115D01*
X98609Y302214D01*
X98583Y302312D01*
X98554Y302409D01*
X98522Y302505D01*
X98485Y302599D01*
X98445Y302692D01*
X98401Y302784D01*
X98354Y302873D01*
X98303Y302961D01*
X98249Y303047D01*
X98192Y303130D01*
X98132Y303212D01*
X98068Y303290D01*
X98002Y303367D01*
X97932Y303440D01*
X97860Y303511D01*
X97785Y303579D01*
X97707Y303644D01*
X97627Y303706D01*
X97545Y303765D01*
X97460Y303821D01*
X97374Y303873D01*
X97285Y303922D01*
X97194Y303968D01*
X97102Y304009D01*
X97008Y304048D01*
X96913Y304082D01*
X96817Y304113D01*
X96719Y304140D01*
X96621Y304164D01*
X96521Y304183D01*
X96421Y304199D01*
X96321Y304211D01*
X96220Y304219D01*
X96119Y304223D01*
X96017Y304223D01*
X95916Y304219D01*
X95815Y304211D01*
X95715Y304199D01*
X95615Y304183D01*
X95515Y304164D01*
X95417Y304140D01*
X95319Y304113D01*
X95223Y304082D01*
X95128Y304048D01*
X95034Y304009D01*
X94942Y303968D01*
X94851Y303922D01*
X94763Y303873D01*
X94676Y303821D01*
X94591Y303765D01*
X94509Y303706D01*
X94429Y303644D01*
X94351Y303579D01*
X94276Y303511D01*
X94204Y303440D01*
X94134Y303367D01*
X94068Y303290D01*
X94004Y303212D01*
X93944Y303130D01*
X93887Y303047D01*
X93833Y302961D01*
X93782Y302873D01*
X93735Y302784D01*
X93691Y302692D01*
X93651Y302599D01*
X93614Y302505D01*
X93582Y302409D01*
X93553Y302312D01*
X93527Y302214D01*
X93506Y302115D01*
X93488Y302015D01*
X93475Y301915D01*
X93465Y301814D01*
X93459Y301713D01*
X93457Y301612D01*
X93458Y301612D02*
X93458Y299001D01*
X93458Y302134D02*
X89281Y304222D01*
X93458Y310176D02*
X93458Y313309D01*
X93458Y310176D02*
X93460Y310087D01*
X93466Y309999D01*
X93475Y309911D01*
X93488Y309823D01*
X93505Y309736D01*
X93525Y309650D01*
X93550Y309565D01*
X93577Y309480D01*
X93609Y309397D01*
X93643Y309316D01*
X93682Y309236D01*
X93723Y309158D01*
X93768Y309081D01*
X93816Y309007D01*
X93867Y308934D01*
X93921Y308864D01*
X93979Y308797D01*
X94039Y308731D01*
X94101Y308669D01*
X94167Y308609D01*
X94234Y308551D01*
X94304Y308497D01*
X94377Y308446D01*
X94451Y308398D01*
X94528Y308353D01*
X94606Y308312D01*
X94686Y308273D01*
X94767Y308239D01*
X94850Y308207D01*
X94935Y308180D01*
X95020Y308155D01*
X95106Y308135D01*
X95193Y308118D01*
X95281Y308105D01*
X95369Y308096D01*
X95457Y308090D01*
X95546Y308088D01*
X96068Y308088D01*
X96068Y308087D02*
X96169Y308089D01*
X96270Y308095D01*
X96371Y308105D01*
X96471Y308118D01*
X96571Y308136D01*
X96670Y308157D01*
X96768Y308183D01*
X96865Y308212D01*
X96961Y308244D01*
X97055Y308281D01*
X97148Y308321D01*
X97240Y308365D01*
X97329Y308412D01*
X97417Y308463D01*
X97503Y308517D01*
X97586Y308574D01*
X97668Y308634D01*
X97746Y308698D01*
X97823Y308764D01*
X97896Y308834D01*
X97967Y308906D01*
X98035Y308981D01*
X98100Y309059D01*
X98162Y309139D01*
X98221Y309221D01*
X98277Y309306D01*
X98329Y309393D01*
X98378Y309481D01*
X98424Y309572D01*
X98465Y309664D01*
X98504Y309758D01*
X98538Y309853D01*
X98569Y309949D01*
X98596Y310047D01*
X98620Y310145D01*
X98639Y310245D01*
X98655Y310345D01*
X98667Y310445D01*
X98675Y310546D01*
X98679Y310647D01*
X98679Y310749D01*
X98675Y310850D01*
X98667Y310951D01*
X98655Y311051D01*
X98639Y311151D01*
X98620Y311251D01*
X98596Y311349D01*
X98569Y311447D01*
X98538Y311543D01*
X98504Y311638D01*
X98465Y311732D01*
X98424Y311824D01*
X98378Y311915D01*
X98329Y312003D01*
X98277Y312090D01*
X98221Y312175D01*
X98162Y312257D01*
X98100Y312337D01*
X98035Y312415D01*
X97967Y312490D01*
X97896Y312562D01*
X97823Y312632D01*
X97746Y312698D01*
X97668Y312762D01*
X97586Y312822D01*
X97503Y312879D01*
X97417Y312933D01*
X97329Y312984D01*
X97240Y313031D01*
X97148Y313075D01*
X97055Y313115D01*
X96961Y313152D01*
X96865Y313184D01*
X96768Y313213D01*
X96670Y313239D01*
X96571Y313260D01*
X96471Y313278D01*
X96371Y313291D01*
X96270Y313301D01*
X96169Y313307D01*
X96068Y313309D01*
X93458Y313309D01*
X93332Y313307D01*
X93206Y313301D01*
X93080Y313292D01*
X92955Y313279D01*
X92830Y313261D01*
X92705Y313241D01*
X92581Y313216D01*
X92458Y313188D01*
X92336Y313156D01*
X92215Y313120D01*
X92095Y313081D01*
X91977Y313038D01*
X91860Y312991D01*
X91744Y312941D01*
X91629Y312887D01*
X91517Y312831D01*
X91406Y312770D01*
X91297Y312707D01*
X91190Y312640D01*
X91085Y312570D01*
X90982Y312496D01*
X90882Y312420D01*
X90784Y312341D01*
X90688Y312259D01*
X90595Y312173D01*
X90504Y312086D01*
X90417Y311995D01*
X90331Y311902D01*
X90249Y311806D01*
X90170Y311708D01*
X90094Y311608D01*
X90020Y311505D01*
X89950Y311400D01*
X89883Y311293D01*
X89820Y311184D01*
X89759Y311073D01*
X89703Y310961D01*
X89649Y310846D01*
X89599Y310730D01*
X89552Y310613D01*
X89509Y310495D01*
X89470Y310375D01*
X89434Y310254D01*
X89402Y310132D01*
X89374Y310009D01*
X89349Y309885D01*
X89329Y309760D01*
X89311Y309635D01*
X89298Y309510D01*
X89289Y309384D01*
X89283Y309258D01*
X89281Y309132D01*
X145161Y294937D02*
X154559Y294937D01*
X154559Y297548D01*
X154557Y297649D01*
X154551Y297750D01*
X154541Y297851D01*
X154528Y297951D01*
X154510Y298051D01*
X154489Y298150D01*
X154463Y298248D01*
X154434Y298345D01*
X154402Y298441D01*
X154365Y298535D01*
X154325Y298628D01*
X154281Y298720D01*
X154234Y298809D01*
X154183Y298897D01*
X154129Y298983D01*
X154072Y299066D01*
X154012Y299148D01*
X153948Y299226D01*
X153882Y299303D01*
X153812Y299376D01*
X153740Y299447D01*
X153665Y299515D01*
X153587Y299580D01*
X153507Y299642D01*
X153425Y299701D01*
X153340Y299757D01*
X153254Y299809D01*
X153165Y299858D01*
X153074Y299904D01*
X152982Y299945D01*
X152888Y299984D01*
X152793Y300018D01*
X152697Y300049D01*
X152599Y300076D01*
X152501Y300100D01*
X152401Y300119D01*
X152301Y300135D01*
X152201Y300147D01*
X152100Y300155D01*
X151999Y300159D01*
X151897Y300159D01*
X151796Y300155D01*
X151695Y300147D01*
X151595Y300135D01*
X151495Y300119D01*
X151395Y300100D01*
X151297Y300076D01*
X151199Y300049D01*
X151103Y300018D01*
X151008Y299984D01*
X150914Y299945D01*
X150822Y299904D01*
X150731Y299858D01*
X150643Y299809D01*
X150556Y299757D01*
X150471Y299701D01*
X150389Y299642D01*
X150309Y299580D01*
X150231Y299515D01*
X150156Y299447D01*
X150084Y299376D01*
X150014Y299303D01*
X149948Y299226D01*
X149884Y299148D01*
X149824Y299066D01*
X149767Y298983D01*
X149713Y298897D01*
X149662Y298809D01*
X149615Y298720D01*
X149571Y298628D01*
X149531Y298535D01*
X149494Y298441D01*
X149462Y298345D01*
X149433Y298248D01*
X149407Y298150D01*
X149386Y298051D01*
X149368Y297951D01*
X149355Y297851D01*
X149345Y297750D01*
X149339Y297649D01*
X149337Y297548D01*
X149338Y297548D02*
X149338Y294937D01*
X149338Y298070D02*
X145161Y300158D01*
X152471Y304024D02*
X154559Y306634D01*
X145161Y306634D01*
X145161Y304024D02*
X145161Y309245D01*
X149860Y313168D02*
X150045Y313170D01*
X150230Y313177D01*
X150414Y313188D01*
X150598Y313203D01*
X150782Y313223D01*
X150966Y313247D01*
X151148Y313276D01*
X151330Y313309D01*
X151511Y313346D01*
X151691Y313388D01*
X151871Y313434D01*
X152049Y313484D01*
X152225Y313538D01*
X152401Y313597D01*
X152575Y313659D01*
X152747Y313726D01*
X152918Y313797D01*
X153087Y313872D01*
X153254Y313951D01*
X153254Y313950D02*
X153334Y313980D01*
X153413Y314013D01*
X153490Y314050D01*
X153566Y314090D01*
X153640Y314133D01*
X153712Y314179D01*
X153781Y314229D01*
X153849Y314281D01*
X153914Y314337D01*
X153977Y314395D01*
X154036Y314457D01*
X154094Y314520D01*
X154148Y314587D01*
X154199Y314655D01*
X154247Y314726D01*
X154292Y314799D01*
X154334Y314873D01*
X154372Y314950D01*
X154407Y315028D01*
X154439Y315107D01*
X154467Y315188D01*
X154491Y315270D01*
X154512Y315354D01*
X154529Y315437D01*
X154542Y315522D01*
X154551Y315607D01*
X154557Y315692D01*
X154559Y315778D01*
X154557Y315864D01*
X154551Y315949D01*
X154542Y316034D01*
X154529Y316119D01*
X154512Y316202D01*
X154491Y316286D01*
X154467Y316368D01*
X154439Y316449D01*
X154407Y316528D01*
X154372Y316606D01*
X154334Y316683D01*
X154292Y316757D01*
X154247Y316830D01*
X154199Y316901D01*
X154148Y316969D01*
X154094Y317036D01*
X154036Y317099D01*
X153977Y317161D01*
X153914Y317219D01*
X153849Y317275D01*
X153781Y317327D01*
X153712Y317377D01*
X153640Y317423D01*
X153566Y317466D01*
X153490Y317506D01*
X153413Y317543D01*
X153334Y317576D01*
X153254Y317606D01*
X153087Y317685D01*
X152918Y317760D01*
X152747Y317831D01*
X152575Y317898D01*
X152401Y317960D01*
X152225Y318019D01*
X152049Y318073D01*
X151871Y318123D01*
X151691Y318169D01*
X151511Y318211D01*
X151330Y318248D01*
X151148Y318281D01*
X150966Y318310D01*
X150782Y318334D01*
X150598Y318354D01*
X150414Y318369D01*
X150230Y318380D01*
X150045Y318387D01*
X149860Y318389D01*
X149860Y313168D02*
X149675Y313170D01*
X149490Y313177D01*
X149306Y313188D01*
X149122Y313203D01*
X148938Y313223D01*
X148754Y313247D01*
X148572Y313276D01*
X148390Y313309D01*
X148209Y313346D01*
X148029Y313388D01*
X147849Y313434D01*
X147671Y313484D01*
X147495Y313538D01*
X147319Y313597D01*
X147145Y313659D01*
X146973Y313726D01*
X146802Y313797D01*
X146633Y313872D01*
X146466Y313951D01*
X146466Y313950D02*
X146386Y313980D01*
X146307Y314013D01*
X146230Y314050D01*
X146154Y314090D01*
X146080Y314133D01*
X146008Y314179D01*
X145939Y314229D01*
X145871Y314282D01*
X145806Y314337D01*
X145743Y314396D01*
X145684Y314457D01*
X145626Y314520D01*
X145572Y314587D01*
X145521Y314655D01*
X145473Y314726D01*
X145428Y314799D01*
X145386Y314873D01*
X145348Y314950D01*
X145313Y315028D01*
X145281Y315107D01*
X145253Y315188D01*
X145229Y315270D01*
X145208Y315354D01*
X145191Y315437D01*
X145178Y315522D01*
X145169Y315607D01*
X145163Y315692D01*
X145161Y315778D01*
X146466Y317606D02*
X146633Y317685D01*
X146802Y317760D01*
X146973Y317831D01*
X147145Y317898D01*
X147319Y317960D01*
X147495Y318019D01*
X147671Y318073D01*
X147849Y318123D01*
X148029Y318169D01*
X148209Y318211D01*
X148390Y318248D01*
X148572Y318281D01*
X148754Y318310D01*
X148938Y318334D01*
X149122Y318354D01*
X149306Y318369D01*
X149490Y318380D01*
X149675Y318387D01*
X149860Y318389D01*
X146466Y317606D02*
X146386Y317576D01*
X146307Y317543D01*
X146230Y317506D01*
X146154Y317466D01*
X146080Y317423D01*
X146008Y317377D01*
X145939Y317327D01*
X145871Y317275D01*
X145806Y317219D01*
X145743Y317161D01*
X145684Y317099D01*
X145626Y317036D01*
X145572Y316969D01*
X145521Y316901D01*
X145473Y316830D01*
X145428Y316757D01*
X145386Y316683D01*
X145348Y316606D01*
X145313Y316528D01*
X145281Y316449D01*
X145253Y316368D01*
X145229Y316286D01*
X145208Y316202D01*
X145191Y316119D01*
X145178Y316034D01*
X145169Y315949D01*
X145163Y315864D01*
X145161Y315778D01*
X147249Y313690D02*
X152471Y317867D01*
X231575Y310261D02*
X233663Y310261D01*
X233752Y310263D01*
X233840Y310269D01*
X233928Y310278D01*
X234016Y310291D01*
X234103Y310308D01*
X234189Y310328D01*
X234274Y310353D01*
X234359Y310380D01*
X234442Y310412D01*
X234523Y310446D01*
X234603Y310485D01*
X234681Y310526D01*
X234758Y310571D01*
X234832Y310619D01*
X234905Y310670D01*
X234975Y310724D01*
X235042Y310782D01*
X235108Y310842D01*
X235170Y310904D01*
X235230Y310970D01*
X235288Y311037D01*
X235342Y311107D01*
X235393Y311180D01*
X235441Y311254D01*
X235486Y311331D01*
X235527Y311409D01*
X235566Y311489D01*
X235600Y311570D01*
X235632Y311653D01*
X235659Y311738D01*
X235684Y311823D01*
X235704Y311909D01*
X235721Y311996D01*
X235734Y312084D01*
X235743Y312172D01*
X235749Y312260D01*
X235751Y312349D01*
X235752Y312349D02*
X235752Y317571D01*
X235751Y317571D02*
X235749Y317660D01*
X235743Y317748D01*
X235734Y317836D01*
X235721Y317924D01*
X235704Y318011D01*
X235684Y318097D01*
X235659Y318182D01*
X235632Y318267D01*
X235600Y318350D01*
X235566Y318431D01*
X235527Y318511D01*
X235486Y318589D01*
X235441Y318666D01*
X235393Y318740D01*
X235342Y318813D01*
X235288Y318883D01*
X235230Y318950D01*
X235170Y319016D01*
X235108Y319078D01*
X235042Y319138D01*
X234975Y319196D01*
X234905Y319250D01*
X234832Y319301D01*
X234758Y319349D01*
X234681Y319394D01*
X234603Y319435D01*
X234523Y319474D01*
X234442Y319508D01*
X234359Y319540D01*
X234274Y319567D01*
X234189Y319592D01*
X234103Y319612D01*
X234016Y319629D01*
X233928Y319642D01*
X233840Y319651D01*
X233752Y319657D01*
X233663Y319659D01*
X231575Y319659D01*
X228106Y317571D02*
X225496Y319659D01*
X225496Y310261D01*
X228106Y310261D02*
X222885Y310261D01*
X216874Y314438D02*
X213741Y314438D01*
X216874Y314438D02*
X216963Y314440D01*
X217051Y314446D01*
X217139Y314455D01*
X217227Y314468D01*
X217314Y314485D01*
X217400Y314505D01*
X217485Y314530D01*
X217570Y314557D01*
X217653Y314589D01*
X217734Y314623D01*
X217814Y314662D01*
X217892Y314703D01*
X217969Y314748D01*
X218043Y314796D01*
X218116Y314847D01*
X218186Y314901D01*
X218253Y314959D01*
X218319Y315019D01*
X218381Y315081D01*
X218441Y315147D01*
X218499Y315214D01*
X218553Y315284D01*
X218604Y315357D01*
X218652Y315431D01*
X218697Y315508D01*
X218738Y315586D01*
X218777Y315666D01*
X218811Y315747D01*
X218843Y315830D01*
X218870Y315915D01*
X218895Y316000D01*
X218915Y316086D01*
X218932Y316173D01*
X218945Y316261D01*
X218954Y316349D01*
X218960Y316437D01*
X218962Y316526D01*
X218962Y317048D01*
X218963Y317048D02*
X218961Y317149D01*
X218955Y317250D01*
X218945Y317351D01*
X218932Y317451D01*
X218914Y317551D01*
X218893Y317650D01*
X218867Y317748D01*
X218838Y317845D01*
X218806Y317941D01*
X218769Y318035D01*
X218729Y318128D01*
X218685Y318220D01*
X218638Y318309D01*
X218587Y318397D01*
X218533Y318483D01*
X218476Y318566D01*
X218416Y318648D01*
X218352Y318726D01*
X218286Y318803D01*
X218216Y318876D01*
X218144Y318947D01*
X218069Y319015D01*
X217991Y319080D01*
X217911Y319142D01*
X217829Y319201D01*
X217744Y319257D01*
X217658Y319309D01*
X217569Y319358D01*
X217478Y319404D01*
X217386Y319445D01*
X217292Y319484D01*
X217197Y319518D01*
X217101Y319549D01*
X217003Y319576D01*
X216905Y319600D01*
X216805Y319619D01*
X216705Y319635D01*
X216605Y319647D01*
X216504Y319655D01*
X216403Y319659D01*
X216301Y319659D01*
X216200Y319655D01*
X216099Y319647D01*
X215999Y319635D01*
X215899Y319619D01*
X215799Y319600D01*
X215701Y319576D01*
X215603Y319549D01*
X215507Y319518D01*
X215412Y319484D01*
X215318Y319445D01*
X215226Y319404D01*
X215135Y319358D01*
X215047Y319309D01*
X214960Y319257D01*
X214875Y319201D01*
X214793Y319142D01*
X214713Y319080D01*
X214635Y319015D01*
X214560Y318947D01*
X214488Y318876D01*
X214418Y318803D01*
X214352Y318726D01*
X214288Y318648D01*
X214228Y318566D01*
X214171Y318483D01*
X214117Y318397D01*
X214066Y318309D01*
X214019Y318220D01*
X213975Y318128D01*
X213935Y318035D01*
X213898Y317941D01*
X213866Y317845D01*
X213837Y317748D01*
X213811Y317650D01*
X213790Y317551D01*
X213772Y317451D01*
X213759Y317351D01*
X213749Y317250D01*
X213743Y317149D01*
X213741Y317048D01*
X213741Y314438D01*
X213743Y314312D01*
X213749Y314186D01*
X213758Y314060D01*
X213771Y313935D01*
X213789Y313810D01*
X213809Y313685D01*
X213834Y313561D01*
X213862Y313438D01*
X213894Y313316D01*
X213930Y313195D01*
X213969Y313075D01*
X214012Y312957D01*
X214059Y312840D01*
X214109Y312724D01*
X214163Y312609D01*
X214219Y312497D01*
X214280Y312386D01*
X214343Y312277D01*
X214410Y312170D01*
X214480Y312065D01*
X214554Y311962D01*
X214630Y311862D01*
X214709Y311764D01*
X214791Y311668D01*
X214877Y311575D01*
X214964Y311484D01*
X215055Y311397D01*
X215148Y311311D01*
X215244Y311229D01*
X215342Y311150D01*
X215442Y311074D01*
X215545Y311000D01*
X215650Y310930D01*
X215757Y310863D01*
X215866Y310800D01*
X215977Y310739D01*
X216089Y310683D01*
X216204Y310629D01*
X216320Y310579D01*
X216437Y310532D01*
X216555Y310489D01*
X216675Y310450D01*
X216796Y310414D01*
X216918Y310382D01*
X217041Y310354D01*
X217165Y310329D01*
X217290Y310309D01*
X217415Y310291D01*
X217540Y310278D01*
X217666Y310269D01*
X217792Y310263D01*
X217918Y310261D01*
X231575Y287401D02*
X233663Y287401D01*
X233752Y287403D01*
X233840Y287409D01*
X233928Y287418D01*
X234016Y287431D01*
X234103Y287448D01*
X234189Y287468D01*
X234274Y287493D01*
X234359Y287520D01*
X234442Y287552D01*
X234523Y287586D01*
X234603Y287625D01*
X234681Y287666D01*
X234758Y287711D01*
X234832Y287759D01*
X234905Y287810D01*
X234975Y287864D01*
X235042Y287922D01*
X235108Y287982D01*
X235170Y288044D01*
X235230Y288110D01*
X235288Y288177D01*
X235342Y288247D01*
X235393Y288320D01*
X235441Y288394D01*
X235486Y288471D01*
X235527Y288549D01*
X235566Y288629D01*
X235600Y288710D01*
X235632Y288793D01*
X235659Y288878D01*
X235684Y288963D01*
X235704Y289049D01*
X235721Y289136D01*
X235734Y289224D01*
X235743Y289312D01*
X235749Y289400D01*
X235751Y289489D01*
X235752Y289489D02*
X235752Y294711D01*
X235751Y294711D02*
X235749Y294800D01*
X235743Y294888D01*
X235734Y294976D01*
X235721Y295064D01*
X235704Y295151D01*
X235684Y295237D01*
X235659Y295322D01*
X235632Y295407D01*
X235600Y295490D01*
X235566Y295571D01*
X235527Y295651D01*
X235486Y295729D01*
X235441Y295806D01*
X235393Y295880D01*
X235342Y295953D01*
X235288Y296023D01*
X235230Y296090D01*
X235170Y296156D01*
X235108Y296218D01*
X235042Y296278D01*
X234975Y296336D01*
X234905Y296390D01*
X234832Y296441D01*
X234758Y296489D01*
X234681Y296534D01*
X234603Y296575D01*
X234523Y296614D01*
X234442Y296648D01*
X234359Y296680D01*
X234274Y296707D01*
X234189Y296732D01*
X234103Y296752D01*
X234016Y296769D01*
X233928Y296782D01*
X233840Y296791D01*
X233752Y296797D01*
X233663Y296799D01*
X231575Y296799D01*
X225234Y296800D02*
X225139Y296798D01*
X225045Y296792D01*
X224951Y296783D01*
X224857Y296770D01*
X224764Y296753D01*
X224672Y296732D01*
X224580Y296707D01*
X224490Y296679D01*
X224401Y296647D01*
X224313Y296612D01*
X224227Y296573D01*
X224142Y296531D01*
X224059Y296485D01*
X223978Y296436D01*
X223899Y296384D01*
X223822Y296329D01*
X223748Y296270D01*
X223676Y296209D01*
X223606Y296145D01*
X223539Y296078D01*
X223475Y296008D01*
X223414Y295936D01*
X223355Y295862D01*
X223300Y295785D01*
X223248Y295706D01*
X223199Y295625D01*
X223153Y295542D01*
X223111Y295457D01*
X223072Y295371D01*
X223037Y295283D01*
X223005Y295194D01*
X222977Y295104D01*
X222952Y295012D01*
X222931Y294920D01*
X222914Y294827D01*
X222901Y294733D01*
X222892Y294639D01*
X222886Y294545D01*
X222884Y294450D01*
X225234Y296799D02*
X225342Y296797D01*
X225451Y296791D01*
X225559Y296781D01*
X225666Y296768D01*
X225773Y296750D01*
X225880Y296729D01*
X225985Y296704D01*
X226090Y296675D01*
X226193Y296643D01*
X226295Y296606D01*
X226396Y296566D01*
X226495Y296523D01*
X226593Y296476D01*
X226689Y296425D01*
X226783Y296371D01*
X226875Y296314D01*
X226965Y296253D01*
X227053Y296189D01*
X227138Y296123D01*
X227221Y296053D01*
X227301Y295980D01*
X227379Y295904D01*
X227454Y295826D01*
X227526Y295745D01*
X227595Y295661D01*
X227661Y295575D01*
X227724Y295487D01*
X227783Y295396D01*
X227840Y295304D01*
X227893Y295209D01*
X227942Y295112D01*
X227988Y295014D01*
X228031Y294915D01*
X228070Y294813D01*
X228105Y294711D01*
X223668Y292622D02*
X223599Y292691D01*
X223533Y292762D01*
X223469Y292835D01*
X223408Y292911D01*
X223350Y292990D01*
X223296Y293070D01*
X223244Y293153D01*
X223196Y293237D01*
X223150Y293323D01*
X223109Y293411D01*
X223070Y293501D01*
X223035Y293592D01*
X223004Y293684D01*
X222976Y293777D01*
X222952Y293871D01*
X222932Y293966D01*
X222915Y294062D01*
X222902Y294159D01*
X222893Y294256D01*
X222887Y294353D01*
X222885Y294450D01*
X223668Y292622D02*
X228106Y287401D01*
X222885Y287401D01*
X218962Y292100D02*
X218960Y292285D01*
X218953Y292470D01*
X218942Y292654D01*
X218927Y292838D01*
X218907Y293022D01*
X218883Y293206D01*
X218854Y293388D01*
X218821Y293570D01*
X218784Y293751D01*
X218742Y293931D01*
X218696Y294111D01*
X218646Y294289D01*
X218592Y294465D01*
X218533Y294641D01*
X218471Y294815D01*
X218404Y294987D01*
X218333Y295158D01*
X218258Y295327D01*
X218179Y295494D01*
X218180Y295494D02*
X218150Y295574D01*
X218117Y295653D01*
X218080Y295730D01*
X218040Y295806D01*
X217997Y295880D01*
X217951Y295952D01*
X217901Y296021D01*
X217849Y296089D01*
X217793Y296154D01*
X217735Y296217D01*
X217673Y296276D01*
X217610Y296334D01*
X217543Y296388D01*
X217475Y296439D01*
X217404Y296487D01*
X217331Y296532D01*
X217257Y296574D01*
X217180Y296612D01*
X217102Y296647D01*
X217023Y296679D01*
X216942Y296707D01*
X216860Y296731D01*
X216776Y296752D01*
X216693Y296769D01*
X216608Y296782D01*
X216523Y296791D01*
X216438Y296797D01*
X216352Y296799D01*
X216266Y296797D01*
X216181Y296791D01*
X216096Y296782D01*
X216011Y296769D01*
X215928Y296752D01*
X215844Y296731D01*
X215762Y296707D01*
X215682Y296679D01*
X215602Y296647D01*
X215524Y296612D01*
X215447Y296574D01*
X215373Y296532D01*
X215300Y296487D01*
X215229Y296439D01*
X215161Y296388D01*
X215094Y296334D01*
X215031Y296276D01*
X214970Y296217D01*
X214911Y296154D01*
X214856Y296089D01*
X214803Y296021D01*
X214753Y295952D01*
X214707Y295880D01*
X214664Y295806D01*
X214624Y295730D01*
X214587Y295653D01*
X214554Y295574D01*
X214524Y295494D01*
X214445Y295327D01*
X214370Y295158D01*
X214299Y294987D01*
X214232Y294815D01*
X214170Y294641D01*
X214111Y294465D01*
X214057Y294289D01*
X214007Y294111D01*
X213961Y293931D01*
X213919Y293751D01*
X213882Y293570D01*
X213849Y293388D01*
X213820Y293206D01*
X213796Y293022D01*
X213776Y292838D01*
X213761Y292654D01*
X213750Y292470D01*
X213743Y292285D01*
X213741Y292100D01*
X218962Y292100D02*
X218960Y291915D01*
X218953Y291730D01*
X218942Y291546D01*
X218927Y291362D01*
X218907Y291178D01*
X218883Y290994D01*
X218854Y290812D01*
X218821Y290630D01*
X218784Y290449D01*
X218742Y290269D01*
X218696Y290089D01*
X218646Y289911D01*
X218592Y289735D01*
X218533Y289559D01*
X218471Y289385D01*
X218404Y289213D01*
X218333Y289042D01*
X218258Y288873D01*
X218179Y288706D01*
X218180Y288706D02*
X218150Y288626D01*
X218117Y288547D01*
X218080Y288470D01*
X218040Y288394D01*
X217997Y288320D01*
X217951Y288248D01*
X217901Y288179D01*
X217848Y288111D01*
X217793Y288046D01*
X217734Y287983D01*
X217673Y287924D01*
X217610Y287866D01*
X217543Y287812D01*
X217475Y287761D01*
X217404Y287713D01*
X217331Y287668D01*
X217257Y287626D01*
X217180Y287588D01*
X217102Y287553D01*
X217023Y287521D01*
X216942Y287493D01*
X216860Y287469D01*
X216776Y287448D01*
X216693Y287431D01*
X216608Y287418D01*
X216523Y287409D01*
X216438Y287403D01*
X216352Y287401D01*
X214524Y288706D02*
X214445Y288873D01*
X214370Y289042D01*
X214299Y289213D01*
X214232Y289385D01*
X214170Y289559D01*
X214111Y289735D01*
X214057Y289911D01*
X214007Y290089D01*
X213961Y290269D01*
X213919Y290449D01*
X213882Y290630D01*
X213849Y290812D01*
X213820Y290994D01*
X213796Y291178D01*
X213776Y291362D01*
X213761Y291546D01*
X213750Y291730D01*
X213743Y291915D01*
X213741Y292100D01*
X214524Y288706D02*
X214554Y288626D01*
X214587Y288547D01*
X214624Y288470D01*
X214664Y288394D01*
X214707Y288320D01*
X214753Y288248D01*
X214803Y288179D01*
X214856Y288111D01*
X214911Y288046D01*
X214970Y287983D01*
X215031Y287924D01*
X215094Y287866D01*
X215161Y287812D01*
X215229Y287761D01*
X215300Y287713D01*
X215373Y287668D01*
X215447Y287626D01*
X215524Y287588D01*
X215602Y287553D01*
X215682Y287521D01*
X215762Y287493D01*
X215844Y287469D01*
X215928Y287448D01*
X216011Y287431D01*
X216096Y287418D01*
X216181Y287409D01*
X216266Y287403D01*
X216352Y287401D01*
X218440Y289489D02*
X214263Y294711D01*
M02*
