G04 EAGLE Gerber RS-274X export*
G75*
%MOIN*%
%FSLAX25Y25*%
%LPD*%
%INSoldermask Top*%
%IPPOS*%
%AMOC8*
5,1,8,0,0,1.08239X$1,22.5*%
G01*
%ADD10C,0.086740*%
%ADD11P,0.076850X8X202.500000*%
%ADD12C,0.071000*%
%ADD13R,0.059181X0.067055*%
%ADD14R,0.078866X0.070992*%
%ADD15R,0.067055X0.059181*%
%ADD16R,0.084000X0.108000*%
%ADD17R,0.055244X0.055244*%
%ADD18C,0.068000*%
%ADD19R,0.058000X0.033000*%
%ADD20C,0.061465*%
%ADD21C,0.014000*%
%ADD22C,0.020000*%
%ADD23C,0.034500*%
%ADD24P,0.069273X8X22.500000*%
%ADD25C,0.068000*%


D10*
X50063Y32000D02*
X57937Y32000D01*
X72898Y23543D02*
X72898Y15669D01*
X57937Y8000D02*
X50063Y8000D01*
D11*
X12000Y19000D03*
D12*
X26000Y19000D03*
D13*
X15260Y82000D03*
X22740Y82000D03*
D14*
X15598Y73024D03*
X15598Y62000D03*
X23598Y73024D03*
X23598Y62000D03*
D13*
X75260Y84000D03*
X82740Y84000D03*
D15*
X14000Y40260D03*
X14000Y47740D03*
D14*
X30000Y39488D03*
X30000Y50512D03*
X22000Y39488D03*
X22000Y50512D03*
D13*
X60740Y57000D03*
X53260Y57000D03*
D16*
X61780Y76000D03*
X34220Y76000D03*
D17*
X83866Y31000D03*
X92134Y31000D03*
D18*
X35921Y177500D02*
X35921Y183500D01*
X26079Y183500D02*
X26079Y177500D01*
X78921Y177500D02*
X78921Y183500D01*
X69079Y183500D02*
X69079Y177500D01*
D13*
X66260Y40000D03*
X73740Y40000D03*
X66260Y48000D03*
X73740Y48000D03*
X81260Y96000D03*
X88740Y96000D03*
X81260Y106000D03*
X88740Y106000D03*
X81260Y116000D03*
X88740Y116000D03*
X81260Y126000D03*
X88740Y126000D03*
D19*
X54000Y49740D03*
X54000Y46000D03*
X54000Y42260D03*
X44000Y42260D03*
X44000Y46000D03*
X44000Y49740D03*
D20*
X7000Y106000D03*
X7000Y116000D03*
X7000Y126000D03*
X7000Y136000D03*
X7000Y146000D03*
X7000Y156000D03*
X7000Y166000D03*
X7000Y96000D03*
X7000Y86000D03*
X7000Y76000D03*
X7000Y66000D03*
X7000Y56000D03*
X7000Y46000D03*
X97000Y106000D03*
X97000Y96000D03*
X97000Y86000D03*
X97000Y76000D03*
X97000Y66000D03*
X97000Y56000D03*
X97000Y46000D03*
X97000Y116000D03*
X97000Y126000D03*
X97000Y136000D03*
X97000Y146000D03*
X97000Y156000D03*
X97000Y166000D03*
D21*
X45300Y124700D02*
X42700Y124700D01*
X42700Y125300D01*
X45300Y125300D01*
X45300Y124700D01*
D22*
X45000Y123000D02*
X43000Y123000D01*
X43000Y121000D02*
X45000Y121000D01*
X45000Y119000D02*
X43000Y119000D01*
X43000Y117000D02*
X45000Y117000D01*
X45000Y115000D02*
X43000Y115000D01*
X47000Y113000D02*
X47000Y111000D01*
X49000Y111000D02*
X49000Y113000D01*
X51000Y113000D02*
X51000Y111000D01*
X53000Y111000D02*
X53000Y113000D01*
X55000Y113000D02*
X55000Y111000D01*
X57000Y111000D02*
X57000Y113000D01*
X59000Y115000D02*
X61000Y115000D01*
X61000Y117000D02*
X59000Y117000D01*
X59000Y119000D02*
X61000Y119000D01*
X61000Y121000D02*
X59000Y121000D01*
X59000Y123000D02*
X61000Y123000D01*
X61000Y125000D02*
X59000Y125000D01*
X57000Y127000D02*
X57000Y129000D01*
X55000Y129000D02*
X55000Y127000D01*
X53000Y127000D02*
X53000Y129000D01*
X51000Y129000D02*
X51000Y127000D01*
X49000Y127000D02*
X49000Y129000D01*
X47000Y129000D02*
X47000Y127000D01*
D23*
X47975Y115975D02*
X56025Y115975D01*
X47975Y115975D02*
X47975Y124025D01*
X56025Y124025D01*
X56025Y115975D01*
X56025Y119252D02*
X47975Y119252D01*
X47975Y122529D02*
X56025Y122529D01*
D15*
X32000Y113740D03*
X32000Y106260D03*
D13*
X30740Y136000D03*
X23260Y136000D03*
D24*
X85000Y7000D03*
X85000Y17000D03*
X95000Y7000D03*
X95000Y17000D03*
D25*
X23000Y126000D03*
X23000Y116000D03*
X23000Y106000D03*
X23000Y96000D03*
M02*
