G04 EAGLE Gerber RS-274X export*
G75*
%MOIN*%
%FSLAX25Y25*%
%LPD*%
%INSolderpaste Bottom*%
%IPPOS*%
%AMOC8*
5,1,8,0,0,1.08239X$1,22.5*%
G01*
%ADD10R,0.051181X0.059055*%
%ADD11R,0.059055X0.078740*%
%ADD12R,0.149606X0.078740*%
%ADD13R,0.026000X0.080000*%
%ADD14R,0.059055X0.051181*%


D10*
X27260Y190100D03*
X34740Y190100D03*
X70260Y190100D03*
X77740Y190100D03*
X25740Y30000D03*
X18260Y30000D03*
X84260Y28000D03*
X91740Y28000D03*
X71260Y103000D03*
X78740Y103000D03*
X91740Y37000D03*
X84260Y37000D03*
D11*
X88055Y67598D03*
X79000Y67598D03*
X69945Y67598D03*
D12*
X79000Y92402D03*
D13*
X23500Y169100D03*
X23500Y144900D03*
X28500Y169100D03*
X33500Y169100D03*
X28500Y144900D03*
X33500Y144900D03*
X38500Y169100D03*
X38500Y144900D03*
X66500Y169100D03*
X66500Y144900D03*
X71500Y169100D03*
X76500Y169100D03*
X71500Y144900D03*
X76500Y144900D03*
X81500Y169100D03*
X81500Y144900D03*
D14*
X61000Y100740D03*
X61000Y93260D03*
X40000Y106740D03*
X40000Y99260D03*
X51000Y93260D03*
X51000Y100740D03*
X55000Y139260D03*
X55000Y146740D03*
X44000Y124740D03*
X44000Y117260D03*
X52000Y124740D03*
X52000Y117260D03*
D10*
X71260Y124000D03*
X78740Y124000D03*
X71260Y115000D03*
X78740Y115000D03*
M02*
